<svg width="408" height="408" viewBox="0 0 408 408" fill="none" xmlns="http://www.w3.org/2000/svg">
<path d="M35.822 208.073C21.0532 236.266 31.8956 262.967 37.9508 277.909C50.4279 308.709 92.3001 348.188 192.677 355.073C321.945 363.945 341.562 251.58 337.911 203.199C334.259 154.818 328.647 91.2612 222.577 55.9484C116.506 20.6356 158.083 143.273 76.4618 179.263C61.968 185.639 43.2268 193.935 35.822 208.073Z" fill="#E7EBEF"/>
<path d="M35.822 208.073C21.0532 236.266 31.8956 262.967 37.9508 277.909C50.4279 308.709 92.3001 348.188 192.677 355.073C321.945 363.945 341.562 251.58 337.911 203.199C334.259 154.818 328.647 91.2612 222.577 55.9484C116.506 20.6356 158.083 143.273 76.4618 179.263C61.968 185.639 43.2268 193.935 35.822 208.073Z" fill="#E7EBEF"/>
<path d="M43.4917 156.957C44.0857 158.372 45.0509 159.599 46.2854 160.51C47.5199 161.421 48.9776 161.981 50.5043 162.131C62.6301 163.318 80.1235 158.179 98.2077 135.445C118.431 110.028 140.594 83.8055 118.884 85.8375C97.1739 87.8695 61.3009 108.475 48.3043 130.042C40.3189 143.288 41.4393 152.114 43.4917 156.957Z" fill="#E7EBEF"/>
<path d="M35.822 208.073C21.0532 236.266 31.8956 262.967 37.9508 277.909C50.4279 308.709 92.3001 348.188 192.677 355.073C321.945 363.945 341.562 251.58 337.911 203.199C334.259 154.818 328.647 91.2612 222.577 55.9484C116.506 20.6356 158.083 143.273 76.4618 179.263C61.968 185.639 43.2268 193.935 35.822 208.073Z" fill="#E7EBEF"/>
<path d="M39.5041 355.603H327.206V357.788H39.5041V355.603Z" fill="#010101"/>
<path d="M102.307 257.879H75.316V243.075H102.307V257.879ZM76.8438 256.351H100.779V244.638H76.8438V256.351Z" fill="#ABB7C2"/>
<path d="M83.8004 271.135H56.7836V256.331H83.8004V271.135ZM58.3369 269.608H82.2726V257.894H58.3369V269.608ZM168.935 130.648H141.918V115.844H168.935V130.648ZM143.472 129.12H167.407V117.407H143.472V129.12ZM216.44 294.088H189.408V279.284H216.44V294.088ZM190.976 292.56H214.912V280.847H190.976V292.56Z" fill="#ABB7C2"/>
<path d="M190.925 294.088H163.934V279.284H190.925V294.088ZM165.462 292.56H189.398V280.847H165.462V292.56Z" fill="#ABB7C2"/>
<path d="M203.708 307.345H176.717V292.54H203.708V307.345ZM178.245 305.817H202.18V294.104H178.245V305.817ZM194.409 198.198H167.387V183.393H194.409V198.198ZM168.945 196.67H192.881V184.957H168.945V196.67Z" fill="#ABB7C2"/>
<path d="M212.911 211.454H185.884V196.65H212.9L212.911 211.454ZM187.447 209.926H211.383V198.213H187.447V209.926ZM300.755 148.04H273.763V133.235H300.755V148.04ZM275.291 146.512H299.227V134.799H275.291V146.512Z" fill="#ABB7C2"/>
<path d="M275.255 148.04H248.239V133.235H275.255V148.04ZM249.792 146.512H273.728V134.799H249.792V146.512Z" fill="#ABB7C2"/>
<path d="M288.023 161.296H261.001V146.492H288.023V161.296ZM262.559 159.768H286.495V148.055H262.559V159.768ZM137.203 240.009H175.525V347.699H137.203V240.009Z" fill="#ABB7C2"/>
<path d="M137.202 288.588H175.525V306.576H137.202V288.588ZM212.238 355.659C209.341 348.494 182.365 342.876 149.491 342.876C116.618 342.876 89.6366 348.478 86.744 355.659H212.238Z" fill="#010101"/>
<path d="M309.295 104.288V283.791C309.293 285.357 309.063 286.915 308.613 288.415C307.627 291.601 305.647 294.387 302.963 296.365C300.278 298.342 297.031 299.408 293.696 299.405H52.5108C50.5742 299.414 48.6537 299.053 46.8529 298.341C43.9191 297.203 41.3981 295.205 39.6212 292.608C37.8442 290.011 36.8945 286.937 36.8966 283.791V104.288C36.8932 101.926 37.4281 99.5939 38.4605 97.4691C39.4929 95.3442 40.9958 93.4825 42.8551 92.0251C45.3456 90.039 48.3931 88.8784 51.5738 88.7047C51.8946 88.6741 52.1951 88.6741 52.5108 88.6741H293.681C295.817 88.6695 297.932 89.1028 299.894 89.9473C300.537 90.2286 301.16 90.5536 301.758 90.92C304.055 92.3153 305.954 94.2777 307.274 96.6187C308.594 98.9598 309.29 101.601 309.295 104.288Z" fill="#010101"/>
<path d="M299.451 104.288V283.791C299.455 284.686 299.373 285.58 299.206 286.459C298.592 290.04 296.745 293.294 293.986 295.658C291.227 298.021 287.729 299.347 284.096 299.405C284.005 299.413 283.913 299.413 283.821 299.405H42.6615C38.5172 299.402 34.5433 297.755 31.6128 294.824C28.6823 291.894 27.0347 287.92 27.032 283.776V104.288C27.0317 100.343 28.5242 96.5429 31.2099 93.6522C33.8956 90.7616 37.5755 88.9941 41.5106 88.7047C41.8875 88.6741 42.2643 88.6741 42.6615 88.6741H283.811C285.909 88.6721 287.986 89.0942 289.916 89.9151C291.847 90.736 293.592 91.9388 295.046 93.4511C297.874 96.3487 299.456 100.239 299.451 104.288Z" fill="#ABB7C2"/>
<path d="M51.9456 97.8461H274.558C278.232 97.8461 281.755 99.3055 284.353 101.903C286.951 104.501 288.41 108.024 288.41 111.698V276.381C288.41 280.055 286.951 283.578 284.353 286.176C281.755 288.774 278.232 290.233 274.558 290.233H51.9456C48.2731 290.233 44.7511 288.774 42.1543 286.177C39.5574 283.581 38.0985 280.059 38.0985 276.386V111.693C38.0999 108.021 39.5592 104.5 42.1557 101.903C44.7523 99.3068 48.2735 97.8474 51.9456 97.8461Z" fill="white"/>
<path d="M274.558 98.223C278.13 98.227 281.555 99.6482 284.08 102.175C286.605 104.701 288.025 108.126 288.028 111.698V276.381C288.025 279.953 286.605 283.378 284.08 285.905C281.555 288.431 278.13 289.852 274.558 289.856H51.9456C48.3747 289.851 44.9516 288.43 42.4267 285.905C39.9017 283.38 38.4808 279.957 38.4754 276.386V111.693C38.4808 108.122 39.9017 104.699 42.4267 102.174C44.9516 99.6493 48.3747 98.2284 51.9456 98.223H274.558ZM274.558 97.4642H51.9456C48.169 97.4641 44.5466 98.9623 41.8733 101.63C39.2 104.297 37.6941 107.917 37.686 111.693V276.386C37.6867 278.257 38.0562 280.109 38.7735 281.837C39.4908 283.565 40.5417 285.134 41.8662 286.455C43.1906 287.776 44.7626 288.823 46.4922 289.536C48.2217 290.249 50.0749 290.614 51.9456 290.61H274.558C278.332 290.61 281.951 289.111 284.619 286.442C287.288 283.774 288.787 280.155 288.787 276.381V111.698C288.787 107.922 287.289 104.299 284.621 101.626C281.953 98.9527 278.334 97.4468 274.558 97.4387V97.4642Z" fill="#010101"/>
<path opacity="0.5" d="M236.108 131.514L213.033 111.418L159.875 172.444L106.718 111.418L83.6425 131.514L139.586 195.738L83.6425 259.957L106.718 280.058L159.875 219.032L213.033 280.058L236.108 259.957L180.165 195.738L236.108 131.514Z" fill="#ABB7C2"/>
<path d="M309.295 264.586V283.791C309.293 285.357 309.063 286.915 308.613 288.415L299.212 286.459L288.858 284.29L286.694 283.837L257.436 277.725L225.729 271.105L194.332 264.54L175.551 260.614L162.62 257.9L137.202 252.598L131.183 251.34L99.4757 244.72L68.0487 238.135L37.686 231.799L36.8813 231.631L36.3364 231.509L27.0269 229.554V205.587L32.7461 206.764L36.8864 207.629L37.6911 207.798L64.1731 213.328L95.8701 219.949L127.318 226.554L143.105 229.854L158.974 233.174L190.38 239.739L222.077 246.359H222.108L253.515 252.924L285.227 259.544L288.71 260.268L299.451 262.524L309.295 264.586Z" fill="white"/>
<path d="M308.75 288.603H308.557L286.658 284.02L26.8436 229.706V205.358L309.489 264.433V283.786C309.486 285.369 309.253 286.944 308.796 288.461L308.75 288.603ZM27.2205 229.401L37.742 231.616L308.475 288.196C308.891 286.765 309.104 285.282 309.107 283.791V264.739L27.2205 205.822V229.401Z" fill="#010101"/>
<path d="M222.154 246.37L194.297 264.525L162.585 257.894L190.442 239.739L222.154 246.37ZM159.02 233.169L131.163 251.325L99.4605 244.699L127.318 226.544L159.02 233.169ZM95.8956 219.974L68.0385 238.13L36.3364 231.504L64.1935 213.349L95.8956 219.974ZM32.7613 206.769V206.784H32.7461L27.032 210.502V205.572L32.7613 206.769ZM309.295 270.932V283.771C309.293 285.337 309.063 286.894 308.613 288.395L299.212 286.439L288.858 284.27L299.451 277.379L309.295 270.932ZM285.278 259.565L257.421 277.72L225.709 271.09L253.576 252.939L285.278 259.565Z" fill="#395382"/>
<path d="M301.758 90.92L295.061 93.4664L280.72 98.8748L276.025 100.632L245.978 111.958L215.661 123.386L185.665 134.697L155.327 146.161L125.281 157.466L94.9789 168.894L64.9625 180.205L54.8841 184.01L37.686 190.467L36.8814 190.768L34.6304 191.628L27.0219 194.495V169.424L36.8916 165.706L37.6962 165.406L48.3909 161.372L78.6925 149.944L108.739 138.618L139.031 127.19L169.078 115.869L199.395 104.441L217.876 97.4642L229.411 93.115L241.185 88.6741H293.64C295.776 88.6695 297.891 89.1028 299.853 89.9473C300.51 90.2269 301.146 90.5519 301.758 90.92Z" fill="white"/>
<path d="M26.8436 194.765V169.302L48.3807 161.184L241.216 88.4857H293.671C296.555 88.4663 299.388 89.253 301.85 90.7571L302.175 90.9557L295.046 93.6395L26.8436 194.765ZM27.2205 169.551V194.22L155.266 145.962L301.33 90.8793C299.008 89.5393 296.372 88.8366 293.691 88.8422H241.251L27.2205 169.551Z" fill="#010101"/>
<path d="M199.4 104.436L185.644 134.707L155.327 146.135L169.083 115.864L199.4 104.436ZM139.051 127.19L125.291 157.461L94.984 168.884L108.744 138.613L139.051 127.19ZM78.7077 149.939L64.9472 180.21L34.6406 191.633L48.401 161.362L78.7077 149.939ZM301.758 90.92L295.061 93.4664L280.72 98.8748L276.024 100.632L277.344 97.7392L281.469 88.6741H293.691C295.827 88.6695 297.942 89.1028 299.904 89.9473C300.543 90.229 301.163 90.554 301.758 90.92ZM256.555 88.6741L252.573 97.4642L245.978 111.958L215.661 123.386L227.455 97.4642L229.442 93.115L241.216 88.6741H256.555Z" fill="#395382"/>
<path d="M335.635 170.305C335.309 170.296 334.992 170.203 334.713 170.035C332.767 168.925 331.036 166.827 331.861 164.219C331.757 164.093 331.683 163.945 331.643 163.787C331.604 163.628 331.6 163.463 331.632 163.303C331.973 161.164 333.511 155.602 336.434 155.602C336.669 155.604 336.902 155.638 337.127 155.704C337.308 155.751 337.472 155.846 337.602 155.98C337.733 156.114 337.823 156.281 337.865 156.463C337.913 156.697 337.902 156.939 337.832 157.168C337.763 157.396 337.638 157.604 337.468 157.772L337.28 157.955C336.701 158.418 336.246 159.016 335.955 159.697L335.91 159.855C336.281 159.549 336.567 159.31 336.674 159.208L336.78 159.096H337.183L337.356 159.34C337.824 160.155 338.339 167.071 336.994 169.404C336.875 169.668 336.685 169.893 336.445 170.055C336.205 170.217 335.924 170.309 335.635 170.32V170.305Z" fill="white"/>
<path d="M336.439 155.979C336.636 155.981 336.831 156.01 337.02 156.066C337.702 156.265 337.611 157.115 337.208 157.497C336.556 158.128 335.904 158.684 335.599 159.575C335.478 159.977 335.393 160.39 335.344 160.807C336.088 160.196 336.765 159.651 336.938 159.473C336.943 159.471 336.948 159.469 336.954 159.469C336.959 159.469 336.964 159.471 336.969 159.473C337.422 159.473 338.308 169.933 335.635 169.933C335.375 169.925 335.122 169.85 334.901 169.714C333.032 168.65 331.336 166.623 332.299 164.112C332.181 164.032 332.09 163.918 332.037 163.786C331.984 163.653 331.973 163.508 332.003 163.369C332.309 161.485 333.776 155.984 336.439 155.984V155.979ZM336.439 155.226C332.594 155.226 331.27 163.165 331.255 163.247C331.199 163.598 331.267 163.959 331.448 164.265C330.684 167.005 332.467 169.185 334.504 170.341C334.84 170.541 335.223 170.652 335.614 170.662C337.336 170.662 338.211 168.467 338.217 164.133C338.217 159.04 337.493 158.704 337.035 158.684C337.183 158.526 337.346 158.373 337.519 158.21L337.712 158.027C337.933 157.814 338.096 157.548 338.185 157.255C338.274 156.962 338.287 156.651 338.222 156.351C338.16 156.105 338.032 155.881 337.853 155.701C337.673 155.522 337.449 155.395 337.203 155.333C336.945 155.258 336.677 155.221 336.409 155.221L336.439 155.226Z" fill="#010101"/>
<path d="M217.005 353.739H174.099L174.807 351.096L178.077 338.97L181.102 327.715L183.999 316.955L187.208 305.043L189.454 296.696L191.007 290.931H200.133L201.681 296.696L203.922 305.043L207.125 316.955L210.013 327.715L213.038 338.97L216.297 351.096L217.005 353.739Z" fill="#395382"/>
<path d="M191.007 290.875H200.133V290.992H191.007V290.875ZM167.489 351.096H223.3V356.693H167.489V351.096Z" fill="#010101"/>
<path d="M187.208 304.961L189.53 296.716L201.681 296.777L203.82 304.961H187.208Z" fill="white"/>
<path d="M201.559 296.859L203.708 304.88H187.411L189.571 296.859H201.559ZM201.681 296.696H189.449L187.208 305.053H203.922L201.671 296.696H201.681Z" fill="#010101"/>
<path d="M181.102 327.639L184.076 316.975L207.125 317.036L209.911 327.639H181.102Z" fill="white"/>
<path d="M207.003 317.117L209.804 327.558H181.3L184.111 317.117H207.003ZM207.125 316.955H183.999L181.102 327.715H210.013L207.125 316.955Z" fill="#010101"/>
<path d="M174.685 351.193L177.98 338.945L213.038 338.874L216.425 351.193H174.685Z" fill="white"/>
<path d="M213.038 338.97L216.297 351.096H174.807L178.077 338.97H213.038ZM213.186 338.782H177.924L177.888 338.919L174.624 351.05L174.557 351.289H216.547L216.486 351.05L213.226 338.919L213.186 338.782ZM200.046 291.007C200.046 291.588 198.04 292.061 195.57 292.061C193.1 292.061 191.093 291.588 191.093 291.007C191.093 290.427 193.1 289.958 195.57 289.958C198.04 289.958 200.046 290.427 200.046 291.007ZM281.117 237.391C272.633 246.003 232.365 227.506 222.154 241.119C215.36 250.179 205.857 279.019 205.857 279.019L201.09 277.298C201.09 277.298 199.67 240.452 202.557 219.241C206.631 189.494 251.121 213.364 251.121 213.364C251.121 213.364 258.694 215.635 265.04 217.723C265.243 217.805 282.645 235.818 281.117 237.391Z" fill="#010101"/>
<path d="M222.139 241.119C212.299 255.379 205.842 279.019 205.842 279.019C205.842 279.019 200.652 259.85 211.149 230.445C220.514 204.329 267.234 217.876 269.353 219.271C275.938 223.6 281.102 237.391 281.102 237.391C272.617 246.003 231.209 227.985 222.139 241.119Z" fill="#010101"/>
<path d="M292.061 334.952L295.346 342.326L299.013 341.41L298.626 332.441L292.061 334.952Z" fill="white"/>
<path d="M295.127 342.769L291.562 334.738L298.993 331.897L299.415 341.7L295.127 342.769ZM292.581 335.161L295.57 341.878L298.626 341.114L298.274 332.966L292.581 335.161Z" fill="#010101"/>
<path d="M259.926 213.527C259.926 213.527 257.889 241.562 265.809 281.26C270.443 304.437 292.24 334.035 292.24 334.035H299.023C299.023 334.035 289.856 308.984 290.61 276.615C291.231 249.435 302.476 229.121 298.351 217.26C296.319 211.439 259.926 213.527 259.926 213.527Z" fill="#010101"/>
<path d="M290.635 336.398C290.426 336.318 290.235 336.195 290.074 336.038C289.914 335.881 289.787 335.692 289.703 335.484C289.618 335.276 289.577 335.052 289.583 334.828C289.588 334.603 289.64 334.382 289.734 334.178C289.573 333.654 289.519 333.104 289.576 332.559C289.734 332.049 300.368 331.112 300.948 332.559C301.529 334.005 300.495 334.433 300.495 334.433C300.495 334.433 301.788 335.451 300.434 335.798C299.079 336.144 294.18 337.417 290.635 336.398ZM294.277 340.376C294.277 340.376 279.192 346.854 279.508 355.797L304.126 345.219C304.126 345.219 303.826 338.965 298.667 338.751C298.692 338.751 297.592 340.977 294.277 340.376Z" fill="#010101"/>
<path d="M303.927 344.333L286.989 351.605C286.289 349.904 285.188 348.396 283.781 347.21C283.643 347.093 283.48 347.322 283.613 347.434C284.982 348.591 286.052 350.06 286.734 351.717L279.37 354.88C279.354 354.887 279.339 354.898 279.326 354.911C279.313 354.924 279.303 354.94 279.297 354.957C279.29 354.974 279.287 354.992 279.287 355.01C279.288 355.029 279.292 355.047 279.299 355.063C279.306 355.08 279.317 355.095 279.33 355.108C279.343 355.12 279.359 355.13 279.376 355.137C279.393 355.143 279.411 355.147 279.429 355.146C279.448 355.146 279.466 355.142 279.482 355.135L286.841 351.977C286.918 352.171 287.009 352.354 287.076 352.553C287.142 352.751 287.391 352.614 287.33 352.44C287.269 352.267 287.172 352.059 287.096 351.865L304.034 344.588C304.068 344.573 304.095 344.546 304.109 344.512C304.123 344.479 304.122 344.441 304.108 344.407C304.094 344.373 304.067 344.346 304.033 344.332C303.999 344.319 303.961 344.319 303.927 344.333ZM290.834 342.077C290.854 342.064 290.87 342.046 290.88 342.024C290.89 342.002 290.894 341.978 290.89 341.955C290.63 340.279 286.434 336.424 284.998 338.868C284.489 339.699 285.028 340.849 285.67 341.522C285.645 342.352 286.602 343.05 287.32 343.253C287.884 343.387 288.476 343.339 289.011 343.116C289.011 343.138 289.018 343.159 289.032 343.176C289.046 343.193 289.066 343.204 289.087 343.207C289.625 343.364 290.118 343.646 290.527 344.029C290.936 344.412 291.249 344.886 291.44 345.413C291.501 345.581 291.761 345.469 291.695 345.301C291.496 344.759 291.177 344.27 290.761 343.87C290.346 343.471 289.845 343.171 289.296 342.994C289.725 342.79 290.136 342.55 290.523 342.275H290.564C290.564 342.275 290.564 342.306 290.61 342.311C291.216 342.447 291.778 342.736 292.242 343.149C292.707 343.563 293.058 344.087 293.263 344.674C293.324 344.842 293.579 344.73 293.523 344.562C293.31 343.961 292.954 343.42 292.486 342.987C292.017 342.554 291.45 342.241 290.834 342.077ZM285.145 339.846C284.962 337.595 287.498 338.588 288.451 339.337C289.225 339.938 290.213 340.697 290.528 341.68C289.932 340.943 289.096 340.44 288.165 340.259C287.351 340.065 286.037 340.294 285.726 341.216C285.376 340.843 285.17 340.357 285.145 339.846ZM290.401 342.006C289.072 342.087 287.081 342.255 285.965 341.415C286.025 341.212 286.136 341.028 286.287 340.88C286.439 340.733 286.626 340.628 286.831 340.574C287.414 340.388 288.046 340.424 288.603 340.676C289.339 340.897 289.975 341.367 290.401 342.006ZM288.364 343.024C287.544 343.156 286.373 342.78 286.047 341.914V341.817C287.065 342.556 288.695 342.428 289.994 342.326C289.499 342.672 288.937 342.908 288.344 343.019L288.364 343.024Z" fill="#010101"/>
<path d="M200.933 276.534V284.305L204.711 284.438L206.519 276.992L200.933 276.534Z" fill="white"/>
<path d="M205.007 284.83L200.556 284.672V276.121L206.988 276.631L205.007 284.83ZM201.315 283.939L204.416 284.051L206.046 277.333L201.309 276.941L201.315 283.939Z" fill="#010101"/>
<path d="M200.571 282.365C200.571 282.365 183.709 282.365 180.485 290.697L207.278 290.727C207.278 290.727 209.473 284.86 204.823 282.625C204.823 282.645 203.377 284.224 200.571 282.365Z" fill="#010101"/>
<path d="M207.421 289.821H188.99C189.021 287.979 188.607 286.157 187.783 284.509C187.702 284.351 187.462 284.509 187.539 284.652C188.341 286.253 188.743 288.025 188.71 289.816H180.699C180.663 289.816 180.628 289.83 180.602 289.856C180.576 289.882 180.562 289.917 180.562 289.953C180.562 289.989 180.576 290.024 180.602 290.05C180.628 290.076 180.663 290.091 180.699 290.091H188.705V290.717C188.705 290.926 188.965 290.895 188.98 290.717C188.995 290.539 188.98 290.299 188.98 290.091H207.421C207.449 290.081 207.473 290.063 207.491 290.039C207.508 290.014 207.517 289.985 207.517 289.956C207.517 289.926 207.508 289.897 207.491 289.873C207.473 289.848 207.449 289.83 207.421 289.821ZM196.288 282.569C196.313 282.566 196.336 282.556 196.354 282.539C196.372 282.523 196.385 282.501 196.39 282.477C196.818 280.837 194.485 275.637 192.199 277.308C191.419 277.878 191.445 279.146 191.766 280.012C191.414 280.766 192.015 281.795 192.601 282.253C193.063 282.603 193.626 282.794 194.205 282.798C194.198 282.818 194.197 282.84 194.202 282.861C194.208 282.882 194.219 282.901 194.236 282.915C194.669 283.272 195.012 283.725 195.237 284.239C195.462 284.754 195.562 285.314 195.529 285.874C195.529 286.052 195.799 286.052 195.809 285.874C195.837 285.3 195.736 284.727 195.512 284.198C195.288 283.669 194.947 283.197 194.516 282.818C194.99 282.799 195.462 282.741 195.926 282.645H195.967C195.967 282.645 195.967 282.681 195.998 282.691C196.501 283.056 196.903 283.543 197.165 284.106C197.428 284.669 197.543 285.29 197.5 285.909C197.5 286.088 197.765 286.088 197.78 285.909C197.823 285.273 197.71 284.636 197.45 284.053C197.189 283.471 196.791 282.961 196.288 282.569ZM191.954 278.27C192.672 276.131 194.607 278.046 195.193 279.1C195.667 279.956 196.273 281.046 196.176 282.07C195.915 281.16 195.346 280.37 194.567 279.834C193.894 279.325 192.591 279.024 191.944 279.742C191.771 279.266 191.775 278.744 191.954 278.27ZM195.921 282.345C194.669 281.896 192.774 281.265 192.082 280.053C192.215 279.888 192.39 279.761 192.589 279.685C192.787 279.609 193.002 279.587 193.212 279.62C193.821 279.68 194.386 279.965 194.796 280.419C195.383 280.905 195.781 281.581 195.921 282.329V282.345ZM193.635 282.467C192.825 282.263 191.898 281.448 191.944 280.526C191.944 280.486 191.944 280.465 191.969 280.43C192.616 281.514 194.159 282.039 195.392 282.467C194.811 282.579 194.214 282.574 193.635 282.451V282.467ZM198.697 278.214C198.526 278.069 198.386 277.89 198.288 277.688C198.189 277.486 198.134 277.266 198.125 277.041C198.116 276.817 198.153 276.593 198.235 276.384C198.317 276.175 198.441 275.985 198.6 275.826C198.625 275.278 198.76 274.741 198.997 274.247C199.318 273.824 209.641 276.539 209.692 278.097C209.743 279.656 208.633 279.712 208.633 279.712C208.633 279.712 209.499 281.107 208.124 280.97C206.748 280.832 201.671 280.379 198.697 278.214Z" fill="#010101"/>
<path d="M250.999 121.145C251.773 121.115 252.914 122.612 252.119 123.539C251.673 123.928 251.129 124.187 250.546 124.287C250.546 124.343 251.498 125.443 250.235 126.146C249.11 126.773 247.607 125.739 246.405 125.54C242.81 124.944 240.034 125.841 239.927 126.559C239.82 127.277 241.404 127.944 242.229 127.852C242.456 127.818 242.689 127.847 242.9 127.937C243.111 128.027 243.294 128.174 243.426 128.362C243.732 128.871 243.426 129.217 243.095 129.487C242.504 129.945 239.775 130.027 238.659 129.171C234.076 125.668 233.745 131.366 231.3 125.413C230.954 124.562 233.949 121.665 237.921 119.363C241.083 117.916 247.597 116.134 248.285 118.609C250.337 118.064 252.089 119.836 250.999 121.145Z" fill="white"/>
<path d="M241.318 130.195C240.303 130.242 239.298 129.985 238.43 129.457C236.48 127.964 235.4 128.26 234.524 128.494C233.083 128.891 232.258 128.723 230.959 125.54C230.399 124.17 234.524 120.875 237.738 119.022C239.983 118.003 245.3 116.241 247.607 117.321C247.998 117.485 248.321 117.778 248.524 118.151C249.073 118.05 249.638 118.107 250.156 118.316C250.673 118.524 251.121 118.875 251.447 119.327C251.601 119.557 251.696 119.822 251.722 120.098C251.747 120.373 251.704 120.651 251.595 120.906C252.015 121.14 252.356 121.495 252.573 121.924C252.735 122.21 252.808 122.537 252.781 122.865C252.753 123.192 252.628 123.503 252.42 123.758C252.057 124.111 251.613 124.368 251.126 124.506C251.215 124.679 251.268 124.867 251.281 125.061C251.294 125.254 251.267 125.449 251.201 125.631C251.136 125.814 251.033 125.981 250.901 126.122C250.768 126.263 250.607 126.375 250.429 126.452C249.517 126.961 248.458 126.579 247.526 126.238C247.143 126.09 246.75 125.973 246.349 125.887C242.881 125.316 240.472 126.192 240.309 126.584C240.335 126.653 240.377 126.714 240.432 126.762C240.924 127.185 241.55 127.421 242.199 127.43C242.499 127.387 242.804 127.43 243.081 127.553C243.358 127.677 243.594 127.876 243.762 128.127C244.002 128.519 244.124 129.146 243.34 129.742C242.722 130.081 242.021 130.238 241.318 130.195ZM235.716 127.537C236.531 127.537 237.554 127.817 238.914 128.856C239.933 129.63 242.479 129.497 242.881 129.171C243.284 128.845 243.228 128.718 243.121 128.545C243.028 128.418 242.901 128.32 242.756 128.26C242.61 128.201 242.451 128.183 242.296 128.209C241.4 128.244 240.527 127.923 239.866 127.318C239.75 127.216 239.659 127.087 239.604 126.942C239.548 126.797 239.528 126.641 239.545 126.487C239.573 126.358 239.626 126.236 239.703 126.129C239.779 126.021 239.876 125.93 239.989 125.861C240.946 125.168 243.553 124.69 246.456 125.168C246.901 125.261 247.337 125.391 247.76 125.555C248.58 125.851 249.425 126.162 250.042 125.82C250.144 125.774 250.237 125.708 250.314 125.626C250.391 125.544 250.451 125.447 250.49 125.342C250.511 125.062 250.428 124.784 250.255 124.562L250.199 124.476L250.159 124.308V123.931H250.536C251.016 123.84 251.466 123.63 251.844 123.32C251.95 123.173 252.011 122.998 252.019 122.817C252.027 122.636 251.982 122.457 251.89 122.301C251.676 121.858 251.264 121.532 251.024 121.542L250.164 121.578L250.719 120.921C250.863 120.765 250.951 120.565 250.966 120.353C250.982 120.141 250.925 119.93 250.805 119.755C250.529 119.393 250.149 119.125 249.715 118.986C249.282 118.848 248.816 118.846 248.381 118.981L248.025 119.072L247.923 118.716C247.878 118.56 247.797 118.417 247.688 118.298C247.578 118.179 247.443 118.087 247.291 118.028C245.509 117.193 240.793 118.472 238.084 119.714C233.882 122.148 231.555 124.776 231.667 125.28C232.859 128.188 233.358 128.051 234.336 127.786C234.775 127.64 235.233 127.556 235.695 127.537H235.716Z" fill="#010101"/>
<path d="M214.525 173.081C198.641 170.499 203.83 154.614 212.544 143.069C216.582 137.722 221.782 129.828 227.71 126.549C231.759 124.298 231.733 126.381 235.731 128.341C232.314 133.464 229.065 138.893 226.702 144.587C223.585 152.104 224.369 154.589 234.341 151.35C243.121 148.493 259.326 140.299 266.287 150.331C280.053 170.142 223.88 174.726 214.525 173.081Z" fill="#395382"/>
<path d="M233.337 172.536C233.337 172.536 233.679 160.537 247.088 151.727C247.088 151.727 252.623 144.261 262.218 146.049C262.218 146.049 262.529 167.637 251.778 170.259C245.738 171.719 239.551 172.483 233.337 172.536Z" fill="#010101"/>
<path d="M300.704 218.477C295.805 219.348 291.175 220.005 286.79 220.443C286.144 220.519 285.522 220.596 284.896 220.631C279.029 221.21 273.135 221.463 267.24 221.39C266.577 221.39 265.915 221.39 265.274 221.354C256.199 221.105 232.971 206.229 232.971 206.229C233.444 202.583 235.176 189.988 236.082 184.468C236.194 183.806 236.306 183.164 236.403 182.538C237.804 174.466 239.332 167.718 241.338 162.254C241.567 161.647 241.791 161.041 242.036 160.456C246.441 149.72 253.041 144.368 264.744 143.879C272.628 143.533 278.81 146.237 283.633 150.795C284.005 151.136 284.387 151.513 284.743 151.895C288.639 155.969 291.608 161.271 293.859 167.132C294.063 167.698 294.292 168.283 294.48 168.869C296.92 175.693 298.432 183.128 299.359 190.121C299.436 190.722 299.512 191.328 299.604 191.918C300.21 197.113 300.531 202.012 300.683 206.132C300.724 206.794 300.739 207.441 300.76 208.062C300.928 214.357 300.704 218.477 300.704 218.477Z" fill="#395382"/>
<path d="M295.886 219.271L300.714 218.472C300.714 218.472 301.671 183.684 294.139 169.505L287.784 174.68C287.784 174.68 290.977 185.945 292.876 194.394L295.886 219.271Z" fill="#010101"/>
<path d="M277.191 146.4C277.191 146.4 278.352 164.224 289.958 182.191L291.603 189.056C291.603 189.056 289.938 187.192 285.028 179.115C278.408 168.186 276.437 146.084 276.437 146.084L277.191 146.4Z" fill="#010101"/>
<path d="M259.478 144.49C259.478 144.49 262.32 149.547 270.952 144.271C270.952 144.271 269.19 139.688 270.575 134.865L261.765 136.994C261.765 136.994 262.636 140.299 259.478 144.49Z" fill="white"/>
<path d="M264.011 147.057C263.422 147.058 262.835 146.984 262.264 146.838C260.985 146.545 259.869 145.77 259.147 144.674L259.025 144.46L259.173 144.261C262.167 140.284 261.424 137.131 261.419 137.101L261.322 136.729L271.12 134.34L270.932 134.957C269.603 139.576 271.283 144.083 271.298 144.124L271.416 144.414L271.146 144.582C268.472 146.232 266.078 147.057 264.011 147.057ZM259.937 144.511C260.58 145.319 261.477 145.887 262.483 146.125C264.632 146.675 267.331 146.003 270.499 144.124C269.587 141.303 269.432 138.293 270.051 135.395L262.223 137.304C262.351 138.282 262.422 141.068 259.942 144.495L259.937 144.511Z" fill="#010101"/>
<path d="M336.505 182.797C336.607 182.125 336.714 181.448 336.796 180.76C337.145 177.953 337.315 175.126 337.305 172.296L335.711 170.891L334.081 169.465L331.347 167.066C330.081 170.254 328.548 173.329 326.763 176.258C326.432 176.803 326.081 177.358 325.704 177.888C323.366 181.382 322.404 184.509 319.761 183.2C317.627 182.156 315.722 180.333 313.965 178.229C313.563 177.72 313.176 177.246 312.789 176.737C310.833 174.114 300.841 160.578 300.841 160.578C296.09 155.205 290.574 150.367 285.385 148.697C278.54 146.492 275.902 145.855 275.902 145.855C277.13 152.17 277.349 160.624 279.584 165.615C279.903 166.375 280.243 167.115 280.603 167.835C283.855 174.561 288.169 180.719 293.38 186.072C293.92 186.632 294.46 187.165 295 187.671C302.277 194.618 309.473 198.284 313.334 199.446C315.613 200.132 317.959 200.579 320.331 200.78C320.998 200.836 321.64 200.861 322.266 200.866C330.119 200.902 335.39 189.27 336.505 182.797Z" fill="#395382"/>
<path d="M339.831 169.587C336.73 167.744 333.312 166.497 329.753 165.91L327.97 168.691C327.97 168.691 339.21 173.554 339.882 174.13L339.831 169.587ZM236.658 128.565C236.658 128.565 231.275 123.473 228.673 123.849L226.197 126.294L235.044 131.219L236.658 128.565Z" fill="#010101"/>
<path d="M267.545 117.641C272.027 118.635 274.537 124.527 273.147 130.806C271.757 137.085 267.005 141.373 262.524 140.391C258.042 139.408 255.531 133.505 256.922 127.226C258.312 120.947 263.064 116.653 267.545 117.641Z" fill="white"/>
<path d="M263.802 140.905C263.341 140.905 262.882 140.853 262.432 140.752C257.752 139.734 255.109 133.622 256.54 127.139C257.971 120.656 262.936 116.236 267.616 117.27C272.297 118.288 274.94 124.399 273.509 130.882C272.23 136.724 268.054 140.905 263.802 140.905ZM266.231 117.876C262.34 117.876 258.49 121.812 257.278 127.302C255.939 133.368 258.327 139.072 262.595 140.034C266.863 140.997 271.431 136.805 272.78 130.74C274.13 124.674 271.731 118.971 267.464 118.008C267.062 117.921 266.652 117.877 266.241 117.876H266.231Z" fill="#010101"/>
<path d="M259.219 126.885C259.219 126.885 256.199 130.658 255.226 132.869C255.19 132.947 255.172 133.033 255.173 133.119C255.173 133.205 255.192 133.29 255.228 133.368C255.264 133.447 255.317 133.516 255.383 133.572C255.448 133.629 255.525 133.67 255.608 133.694C256.677 134.004 258.837 134.59 259.764 134.529C261.016 134.447 259.219 126.885 259.219 126.885Z" fill="white"/>
<path d="M259.626 134.911C258.226 134.775 256.845 134.488 255.506 134.055C255.371 134.017 255.246 133.95 255.139 133.859C255.032 133.768 254.946 133.656 254.887 133.529C254.827 133.402 254.796 133.263 254.795 133.123C254.793 132.983 254.822 132.844 254.88 132.716C255.862 130.485 258.801 126.803 258.923 126.645L259.407 126.039L259.585 126.798C259.957 128.356 261.113 133.531 260.298 134.615C260.241 134.699 260.165 134.769 260.077 134.819C259.989 134.869 259.89 134.899 259.789 134.906L259.626 134.911ZM259.03 127.745C258.139 128.906 256.28 131.412 255.572 133.021C255.558 133.05 255.55 133.081 255.55 133.113C255.55 133.145 255.558 133.176 255.572 133.205C255.585 133.235 255.605 133.261 255.629 133.282C255.654 133.304 255.683 133.319 255.715 133.327C257.018 133.761 258.369 134.038 259.738 134.152C260.044 133.811 259.728 130.959 259.03 127.745Z" fill="#010101"/>
<path d="M271.823 126.172C271.183 126.146 270.57 125.912 270.075 125.506C269.581 125.1 269.232 124.543 269.083 123.921C268.36 121.614 265.36 121.782 263.186 122.902C261.011 124.023 257.492 124.486 255.037 123.086C253.174 122.016 250.963 118.232 254.411 115.64C257.558 113.287 265.661 112.549 268.192 113.022C272.775 113.888 278.23 119.913 277.277 125.499C276.605 129.441 274.385 135.685 271.166 135.629C272.027 131.509 273.117 128.805 271.823 126.172Z" fill="#010101"/>
<path d="M270.861 128.509C270.861 128.509 272.572 126.661 273.88 128.143C275.189 129.625 273.178 134.325 270.942 132.767C268.706 131.208 270.861 128.509 270.861 128.509Z" fill="white"/>
<path d="M270.738 136.994C271.538 135.654 271.686 134.824 271.757 133.159C270.96 130.561 270.712 127.826 271.029 125.128C271.125 124.369 269.939 124.812 269.939 124.812C269.939 124.812 265.422 139.606 256.957 134.076C256.957 134.076 256.489 138.15 257.619 139.525C260.395 142.911 266.583 141.562 268.472 140.075C269.383 139.172 270.148 138.132 270.738 136.994Z" fill="#010101"/>
<path d="M347.38 91.9849L350.308 92.4455L308.867 355.88L305.939 355.42L347.38 91.9849Z" fill="#010101"/>
<path d="M346.477 149.843C369.869 149.843 388.833 130.879 388.833 107.487C388.833 84.094 369.869 65.1306 346.477 65.1306C323.084 65.1306 304.121 84.094 304.121 107.487C304.121 130.879 323.084 149.843 346.477 149.843Z" fill="#395382"/>
<path d="M346.477 139.357C340.172 139.358 334.009 137.489 328.766 133.987C323.523 130.485 319.437 125.507 317.024 119.682C314.611 113.857 313.979 107.448 315.209 101.264C316.439 95.0805 319.475 89.4004 323.933 84.9423C328.391 80.4842 334.071 77.4482 340.255 76.2185C346.438 74.9887 352.848 75.6204 358.672 78.0336C364.497 80.4468 369.475 84.5331 372.977 89.7757C376.479 95.0184 378.348 101.182 378.347 107.487C378.336 115.936 374.975 124.036 369.001 130.01C363.026 135.985 354.926 139.346 346.477 139.357Z" fill="white"/>
<path d="M346.477 75.9933C352.706 75.9933 358.795 77.8403 363.974 81.3009C369.153 84.7614 373.189 89.68 375.573 95.4346C377.957 101.189 378.58 107.522 377.365 113.631C376.15 119.74 373.15 125.351 368.746 129.756C364.342 134.16 358.73 137.16 352.621 138.375C346.512 139.59 340.18 138.966 334.425 136.583C328.67 134.199 323.752 130.162 320.291 124.983C316.831 119.804 314.984 113.715 314.984 107.487C314.993 99.1369 318.314 91.132 324.218 85.2279C330.122 79.3238 338.127 76.0027 346.477 75.9933ZM346.477 75.2345C340.098 75.2335 333.862 77.1242 328.557 80.6675C323.253 84.2108 319.118 89.2475 316.676 95.1407C314.234 101.034 313.595 107.519 314.839 113.776C316.083 120.032 319.154 125.779 323.664 130.29C328.175 134.801 333.921 137.874 340.178 139.119C346.434 140.363 352.919 139.725 358.813 137.284C364.707 134.843 369.744 130.709 373.288 125.405C376.832 120.101 378.724 113.866 378.724 107.487C378.724 98.9337 375.327 90.731 369.279 84.6827C363.232 78.6344 355.03 75.2358 346.477 75.2345Z" fill="#010101"/>
<path d="M258.353 125.79L259.677 135.104L262.127 134.783L262.198 132.731L262.213 125.571L258.353 125.79ZM342.331 159.437C342.384 159.118 342.335 158.79 342.189 158.5L342.087 158.307C341.68 158.207 341.263 158.149 340.844 158.134C339.047 158.083 338.996 159.239 340.473 159.952C340.865 160.14 341.231 160.339 341.562 160.527C341.765 160.415 341.939 160.259 342.072 160.071C342.205 159.882 342.294 159.665 342.331 159.437ZM341.588 161.108C341.556 161.027 341.515 160.95 341.466 160.878L340.788 160.517C339.953 160.053 338.008 159.498 337.667 160.13C337.01 161.301 339.439 162.422 340.921 163.185C341.102 163.094 341.264 162.968 341.396 162.814C341.529 162.659 341.629 162.48 341.691 162.287C341.753 162.093 341.776 161.889 341.758 161.687C341.741 161.484 341.683 161.287 341.588 161.108ZM341.175 164.892C341.239 164.496 341.162 164.09 340.956 163.746L340.824 163.532C339.933 163.43 338.553 163.022 338.125 163.135C335.762 163.72 338.599 165.238 340.213 166.165C340.465 166.047 340.685 165.87 340.853 165.648C341.021 165.426 341.131 165.166 341.175 164.892ZM340.157 166.618C340.106 166.547 340.07 166.506 340.07 166.506C339.006 166.333 337.717 165.946 338.176 167.193C338.359 167.677 338.914 168.059 339.632 168.4C340.824 167.815 340.361 166.924 340.157 166.618Z" fill="white"/>
<path d="M339.793 169.034L339.63 168.957C338.703 168.524 338.179 168.076 337.975 167.547C337.891 167.375 337.852 167.185 337.861 166.994C337.871 166.804 337.93 166.619 338.031 166.457C338.2 166.312 338.403 166.211 338.621 166.164C338.839 166.117 339.065 166.125 339.279 166.187C337.848 165.347 336.906 164.659 337.008 163.905C337.094 163.264 337.919 163.06 338.189 162.994C338.719 162.948 339.253 163.003 339.763 163.157C338.693 162.581 337.629 161.899 337.384 161.12C337.336 160.965 337.321 160.803 337.339 160.642C337.357 160.482 337.409 160.327 337.491 160.188C337.551 160.086 337.63 159.997 337.724 159.927C337.819 159.857 337.927 159.807 338.041 159.78C338.533 159.683 339.041 159.704 339.523 159.841C339.399 159.713 339.307 159.557 339.255 159.386C339.204 159.215 339.194 159.034 339.228 158.858C339.294 158.589 339.6 157.952 341.005 158.003C341.45 158.02 341.891 158.079 342.324 158.181L342.487 158.222L342.671 158.568C342.853 158.93 342.916 159.34 342.849 159.739C342.808 160.003 342.712 160.255 342.566 160.478C342.42 160.701 342.228 160.89 342.003 161.033C342.033 161.087 342.058 161.143 342.08 161.201C342.306 161.629 342.357 162.128 342.223 162.593C342.089 163.058 341.781 163.454 341.362 163.697L341.418 163.788C341.671 164.21 341.767 164.708 341.688 165.194C341.638 165.506 341.517 165.802 341.334 166.06C341.151 166.318 340.911 166.53 340.634 166.681C340.778 166.866 340.875 167.083 340.918 167.314C340.962 167.544 340.949 167.782 340.882 168.006C340.814 168.231 340.694 168.437 340.532 168.606C340.369 168.774 340.168 168.902 339.946 168.978L339.793 169.034ZM338.602 166.941C338.606 167.06 338.631 167.177 338.678 167.287C338.926 167.71 339.316 168.033 339.778 168.198C339.964 168.104 340.106 167.942 340.175 167.745C340.195 167.628 340.192 167.509 340.164 167.393C340.137 167.278 340.087 167.169 340.017 167.073L339.778 167.027C339.395 166.924 338.996 166.895 338.602 166.941ZM338.464 163.707H338.372C337.802 163.849 337.746 163.997 337.746 163.997C337.69 164.415 339.646 165.525 340.292 165.902L340.374 165.948C340.664 165.76 340.87 165.467 340.948 165.131C341.026 164.794 340.97 164.441 340.791 164.145L340.756 164.089C340.44 164.043 340.084 163.972 339.737 163.9C339.318 163.803 338.893 163.735 338.464 163.697V163.707ZM338.556 160.442C338.451 160.439 338.346 160.451 338.245 160.478C338.207 160.486 338.172 160.503 338.143 160.529C338.111 160.582 338.09 160.641 338.083 160.703C338.076 160.764 338.083 160.827 338.102 160.885C338.311 161.578 339.865 162.372 340.893 162.922L341.056 163.004C341.301 162.844 341.474 162.595 341.537 162.309C341.6 162.023 341.548 161.724 341.392 161.476L341.352 161.384C341.168 161.293 340.97 161.181 340.761 161.069C340.078 160.708 339.326 160.494 338.556 160.442ZM340.873 158.726C340.257 158.726 339.982 158.894 339.956 159.016C339.931 159.139 340.15 159.526 340.786 159.836C341.107 159.994 341.413 160.152 341.703 160.315C341.925 160.135 342.072 159.879 342.115 159.597C342.153 159.356 342.115 159.109 342.009 158.889V158.853C341.673 158.781 341.333 158.739 340.99 158.726H340.873Z" fill="#010101"/>
<path d="M65.9352 269.623C67.9346 269.596 69.8775 268.956 71.5015 267.79C71.5953 271.217 71.317 274.644 70.6714 278.011C68.4867 281.53 62.4212 288.013 62.8337 287.977C64.4982 287.806 66.1341 287.425 67.7024 286.841C66.6666 288.977 65.4248 291.007 63.9949 292.902C61.0513 296.828 56.8651 299.965 55.266 304.752C55.2558 304.8 55.2336 304.844 55.2015 304.881C55.1694 304.917 55.1285 304.945 55.0827 304.961C55.0817 305.027 55.0618 305.092 55.0252 305.147C54.9887 305.203 54.9371 305.246 54.8765 305.273C54.8159 305.3 54.7489 305.309 54.6835 305.299C54.618 305.288 54.5568 305.26 54.5072 305.216C46.5982 297.699 45.1824 286.286 44.0213 275.994C43.9653 275.485 43.9093 275.026 43.8634 274.537C46.0063 276.78 48.4648 278.698 51.1613 280.231C51.5432 280.44 46.2061 271.894 43.5884 267.963C43.6463 265.469 44.1072 263.001 44.9533 260.655C46.807 255.694 49.9798 251.05 53.0609 246.777C53.1882 246.599 53.3308 246.431 53.453 246.268C54.2753 248.482 55.4237 250.56 56.86 252.435C57.1096 252.766 56.2998 246.186 55.7956 243.182C56.5697 242.224 57.3234 241.262 58.1485 240.335C59.2027 239.092 60.5064 236.984 62.4009 237.279C64.2954 237.575 68.4306 245.066 68.9603 247.22C69.1894 248.142 69.3932 249.079 69.5816 250.021C69.6733 250.429 69.7445 250.841 69.8209 251.248C70.4827 255.042 70.9536 258.866 71.2316 262.707C71.0992 262.911 70.9668 263.114 70.8191 263.313C69.2607 265.376 65.5583 269.623 65.9352 269.623Z" fill="#ABB7C2"/>
<path d="M58.7239 265.839C62.63 265.248 65.6144 262.783 68.4815 260.237C68.9093 259.86 68.3746 259.137 67.9468 259.519C65.2579 261.908 62.462 264.286 58.8207 264.907C59.6508 259.096 60.6184 253.301 61.7592 247.536C61.8712 246.971 60.9851 246.833 60.873 247.398C59.3656 255.037 58.1332 262.719 57.1757 270.443C54.9347 267.265 53.1916 263.763 52.0067 260.059C51.8284 259.514 50.9881 259.845 51.1765 260.39C52.4346 264.315 54.3046 268.017 56.7174 271.36C56.7537 271.413 56.8022 271.457 56.8589 271.488C56.9155 271.519 56.9788 271.536 57.0433 271.538C56.8396 273.223 56.6512 274.914 56.4679 276.631C54.8386 274.611 53.5439 272.343 52.6331 269.913C52.4344 269.373 51.6145 269.704 51.8029 270.244C52.8105 272.96 54.2859 275.478 56.1623 277.685C56.2121 277.741 56.2751 277.785 56.3456 277.812C55.7752 283.377 55.3424 288.957 55.047 294.552C55.0157 294.61 54.9983 294.674 54.9961 294.74C54.8738 296.777 54.8076 298.814 54.7822 300.851C54.7363 302.186 54.7007 303.515 54.6752 304.849C54.6697 304.907 54.6784 304.965 54.7006 305.018C54.7229 305.071 54.7579 305.118 54.8025 305.155C55.0317 317.749 56.9007 330.206 59.5489 342.535L60.4198 342.331C57.4253 328.398 55.434 314.322 55.6938 300.021C55.7447 298.517 55.8092 297.012 55.8873 295.504C55.9515 295.53 56.0213 295.539 56.09 295.53C56.1587 295.521 56.224 295.495 56.2794 295.453C57.9026 294.343 59.2878 292.92 60.3536 291.267C60.6642 290.793 59.9665 290.248 59.6508 290.712C58.6636 292.235 57.3928 293.554 55.9077 294.598C56.4067 284.972 57.3268 275.384 58.6679 265.834L58.7239 265.839ZM27.689 291.715C26.0089 292.349 24.1861 292.504 22.4231 292.163C23.3426 294.773 24.5756 297.261 26.095 299.573C28.9775 301.488 36.0156 304.376 35.6489 304.483C34.1934 304.901 32.695 305.152 31.1826 305.231C32.6986 306.511 34.3439 307.629 36.092 308.567C39.7332 310.548 44.2097 311.526 46.9547 314.602C46.98 314.634 47.0126 314.659 47.0498 314.676C47.087 314.693 47.1278 314.701 47.1686 314.698C47.1971 314.748 47.2383 314.789 47.2879 314.818C47.3376 314.847 47.3939 314.862 47.4512 314.862C47.5086 314.862 47.5649 314.847 47.6145 314.818C47.6642 314.789 47.7053 314.748 47.7339 314.698C52.2766 306.453 50.1631 297.383 48.1566 289.296C48.0649 288.909 47.9681 288.532 47.8663 288.15C46.6714 290.578 45.1405 292.826 43.3185 294.827C43.0537 295.107 45.1111 286.933 46.1857 283.114C45.4087 281.247 44.2973 279.539 42.906 278.072C39.8911 274.95 35.8424 272.505 31.9821 270.31C31.8243 270.219 31.6562 270.137 31.4729 270.046C31.4132 272.01 31.0401 273.953 30.3678 275.8C30.2506 276.131 29.0335 270.922 28.5853 268.503C27.6483 268.034 26.7112 267.565 25.7589 267.138C24.4959 266.547 22.7796 265.391 21.2518 266.226C19.724 267.061 18.3897 274.059 18.5629 275.851C18.6342 276.62 18.736 277.379 18.8481 278.158C18.8888 278.494 18.9499 278.831 19.0008 279.177C19.5506 282.239 20.2749 285.267 21.1703 288.247C21.3384 288.359 21.5115 288.466 21.6796 288.568C23.6097 289.622 28.0098 291.588 27.689 291.715Z" fill="#010101"/>
<path d="M53.1271 344.577C51.4006 331.392 48.7779 320.83 44.8769 311.327C44.4423 310.329 44.0009 309.331 43.5528 308.333H43.4815C41.7123 308.055 40.0179 307.42 38.5008 306.469C38.3669 306.385 38.2648 306.258 38.2104 306.11C38.156 305.962 38.1525 305.799 38.2004 305.649C38.2425 305.482 38.3379 305.334 38.4721 305.226C38.6063 305.118 38.772 305.058 38.9439 305.053C39.085 305.051 39.2233 305.092 39.3411 305.17C40.4011 305.843 41.5614 306.344 42.7787 306.652C39.7231 299.96 36.2804 293.34 32.5576 286.913C31.6535 287.116 30.7292 287.217 29.8025 287.213C27.3325 287.213 25.0255 286.571 22.6727 285.858C22.5038 285.809 22.3588 285.699 22.2651 285.55C22.1713 285.401 22.1352 285.223 22.1634 285.049C22.1858 284.865 22.2749 284.695 22.4138 284.572C22.5526 284.449 22.7317 284.381 22.9172 284.382H22.9732L23.1514 284.417C25.489 285.13 27.6024 285.721 29.833 285.721C30.4817 285.724 31.1293 285.67 31.7683 285.558C29.3798 281.484 26.9353 277.588 24.501 273.952C24.4307 273.849 24.3901 273.729 24.3839 273.605C24.3776 273.481 24.4058 273.358 24.4653 273.249C24.5422 273.116 24.6528 273.005 24.7861 272.928C24.9193 272.851 25.0703 272.811 25.2241 272.811C25.3468 272.809 25.468 272.837 25.5766 272.894C25.6853 272.951 25.7777 273.035 25.8455 273.137C29.115 278.026 32.2775 283.185 35.2619 288.481C36.0509 285.708 36.4234 282.833 36.367 279.951C36.3659 279.761 36.439 279.578 36.5707 279.442C36.7272 279.289 36.9378 279.205 37.1564 279.207C37.2538 279.203 37.3512 279.217 37.4429 279.25C37.5347 279.283 37.619 279.334 37.6909 279.4C37.7629 279.466 37.8211 279.545 37.8622 279.634C37.9033 279.722 37.9265 279.818 37.9304 279.915C37.998 283.372 37.4815 286.816 36.4026 290.101C36.3795 290.176 36.3433 290.247 36.2957 290.31C36.7744 291.175 37.2429 292.046 37.7115 292.917C38.3219 291.183 38.6653 289.366 38.73 287.529C38.7346 287.428 38.759 287.329 38.802 287.237C38.8449 287.146 38.9055 287.063 38.9802 286.995C39.0549 286.927 39.1424 286.875 39.2375 286.84C39.3327 286.806 39.4336 286.791 39.5346 286.796C39.746 286.794 39.9492 286.877 40.0999 287.025C40.1638 287.093 40.2134 287.173 40.2457 287.26C40.2781 287.348 40.2926 287.441 40.2884 287.534C40.2063 289.987 39.6729 292.404 38.7147 294.664V294.71C40.7518 298.621 42.7329 302.624 44.551 306.596C44.6053 306.653 44.65 306.718 44.6834 306.789C45.3607 308.261 46.0278 309.794 46.6491 311.342C47.0718 312.325 47.4945 313.313 47.902 314.306C47.9614 314.439 47.974 314.588 47.9376 314.729C50.9932 323.249 53.2391 332.93 54.7364 344.323L54.7822 344.689L53.2544 344.939L53.1271 344.577Z" fill="white"/>
<path d="M25.2242 273.188C25.2843 273.186 25.3438 273.2 25.3973 273.227C25.4507 273.255 25.4963 273.296 25.5297 273.346C29.0335 278.591 32.3149 283.959 35.3739 289.449C36.3466 286.377 36.8111 283.167 36.749 279.946C36.7505 279.893 36.7632 279.842 36.7863 279.794C36.8093 279.747 36.8421 279.705 36.8826 279.671C36.923 279.638 36.9701 279.613 37.0209 279.599C37.0716 279.585 37.1247 279.581 37.1768 279.589C37.2255 279.584 37.2747 279.59 37.3214 279.604C37.3681 279.619 37.4113 279.643 37.4485 279.675C37.4856 279.707 37.5159 279.746 37.5375 279.79C37.559 279.834 37.5715 279.882 37.574 279.931C37.6333 283.347 37.1168 286.749 36.0462 289.994C36.0293 290.048 36.0003 290.098 35.9615 290.139C35.9227 290.181 35.8751 290.213 35.8221 290.233C36.4892 291.435 37.136 292.642 37.7828 293.854C38.5755 291.844 39.0181 289.714 39.0916 287.554C39.0955 287.502 39.1096 287.451 39.1332 287.404C39.1569 287.358 39.1895 287.316 39.2292 287.282C39.269 287.248 39.3151 287.222 39.3649 287.206C39.4147 287.19 39.4672 287.183 39.5194 287.188C39.5671 287.183 39.6153 287.188 39.6609 287.203C39.7065 287.218 39.7485 287.242 39.7841 287.274C39.8196 287.306 39.848 287.346 39.8673 287.39C39.8867 287.433 39.8965 287.481 39.8963 287.529C39.8269 289.944 39.3088 292.326 38.3684 294.552C38.3457 294.615 38.305 294.67 38.2513 294.71C40.3597 298.702 42.3492 302.751 44.22 306.856C44.2643 306.889 44.2994 306.932 44.3218 306.983C45.0195 308.48 45.6714 309.998 46.2825 311.521C46.7103 312.509 47.1296 313.498 47.5404 314.49C47.5623 314.531 47.5737 314.578 47.5737 314.625C47.5737 314.672 47.5623 314.718 47.5404 314.76C50.9983 324.298 53.0354 334.27 54.3646 344.404L53.5651 344.537C52.0373 333.088 49.659 321.838 45.2843 311.195C44.8056 310.084 44.3116 308.974 43.8125 307.864C43.7378 307.929 43.6419 307.966 43.5426 307.966H43.4611C41.7697 307.685 40.152 307.067 38.7046 306.148C38.3634 305.934 38.6129 305.44 38.9388 305.44C39.008 305.441 39.0754 305.462 39.1323 305.501C40.4508 306.331 41.9143 306.905 43.4459 307.192C40.2273 300.116 36.6624 293.212 32.7512 286.48H32.7206C31.7667 286.709 30.7887 286.824 29.8076 286.821C27.3937 286.821 25.0765 286.174 22.8001 285.482C22.7178 285.45 22.649 285.391 22.6052 285.315C22.5614 285.239 22.5453 285.149 22.5597 285.062C22.574 284.976 22.618 284.896 22.6841 284.838C22.7501 284.78 22.8343 284.746 22.9223 284.743C22.9629 284.738 23.0039 284.738 23.0445 284.743C25.2445 285.415 27.4955 286.062 29.8382 286.062C30.6943 286.066 31.5481 285.975 32.3845 285.792C30.0079 281.698 27.4921 277.669 24.8371 273.707C24.6538 273.432 24.9594 273.152 25.2445 273.152L25.2242 273.188ZM25.2242 272.429C25.0014 272.43 24.7829 272.49 24.5907 272.603C24.3984 272.716 24.2393 272.877 24.1292 273.071C24.0386 273.241 23.9963 273.434 24.0071 273.627C24.0179 273.82 24.0812 274.006 24.1904 274.166C26.5177 277.649 28.8604 281.382 31.1572 285.268C30.7177 285.319 30.2756 285.345 29.8331 285.344C27.6585 285.344 25.5705 284.758 23.2635 284.056C23.1513 284.021 23.0345 284.004 22.9172 284.005C22.642 284.006 22.3765 284.107 22.1696 284.288C21.9628 284.47 21.8286 284.72 21.7917 284.993C21.753 285.256 21.8111 285.525 21.9553 285.749C22.0996 285.972 22.3201 286.136 22.576 286.21C24.8524 286.902 27.2816 287.58 29.8025 287.58C30.6573 287.583 31.5103 287.501 32.3489 287.335C35.8679 293.447 39.1374 299.726 42.0708 306.051C41.1747 305.76 40.3191 305.356 39.5245 304.849C39.3458 304.732 39.137 304.671 38.9235 304.671C38.6703 304.683 38.4276 304.776 38.2314 304.936C38.0351 305.097 37.8957 305.316 37.8337 305.562C37.7618 305.793 37.7689 306.04 37.8538 306.266C37.9386 306.492 38.0964 306.684 38.3022 306.81C39.823 307.762 41.5177 308.402 43.288 308.694C43.7005 309.621 44.113 310.548 44.5153 311.48C48.396 320.932 51.0136 331.469 52.74 344.623L52.8419 345.397L53.6109 345.27L53.9216 345.219L54.4308 345.138L55.1591 345.025L55.0623 344.292C53.5702 332.915 51.3548 323.244 48.2839 314.719C48.2995 314.545 48.2733 314.371 48.2075 314.21C47.7933 313.215 47.374 312.222 46.9496 311.23C46.3283 309.703 45.6663 308.149 44.9788 306.647C44.9388 306.561 44.8874 306.48 44.826 306.408C43.0385 302.496 41.1083 298.565 39.0865 294.694C40.0259 292.415 40.5435 289.983 40.6143 287.519C40.6204 287.375 40.5974 287.231 40.5467 287.096C40.4959 286.962 40.4184 286.839 40.3189 286.734C40.1576 286.571 39.9525 286.458 39.7282 286.408C39.504 286.359 39.2702 286.375 39.055 286.455C38.8398 286.535 38.6523 286.676 38.5152 286.86C38.378 287.044 38.297 287.264 38.2819 287.493C38.2391 288.995 38.0011 290.484 37.574 291.924C37.2786 291.374 36.9832 290.829 36.6828 290.284L36.7133 290.192C37.812 286.867 38.3406 283.381 38.2768 279.88C38.2637 279.596 38.1422 279.329 37.9375 279.133C37.7327 278.936 37.4604 278.826 37.1768 278.825C37.0182 278.823 36.8607 278.852 36.7137 278.912C36.5668 278.971 36.4333 279.06 36.3212 279.172C36.2189 279.275 36.1387 279.397 36.0853 279.532C36.0319 279.667 36.0064 279.811 36.0105 279.956C36.0521 282.492 35.7593 285.023 35.1397 287.483C32.2827 282.467 29.2678 277.573 26.1612 272.928C26.06 272.772 25.9212 272.643 25.7575 272.554C25.5938 272.465 25.4105 272.419 25.2242 272.419V272.429Z" fill="#010101"/>
<path d="M25.8404 280.883C23.3742 280.411 21.016 279.489 18.8837 278.163C18.9245 278.5 18.9856 278.836 19.0365 279.182C21.0734 280.347 23.2876 281.169 25.5908 281.616C26.095 281.693 26.3344 280.98 25.8404 280.883Z" fill="#010101"/>
<path d="M101.345 287.59C101.299 290.809 93.8534 292.367 91.4853 293.243C86.2551 295.178 81.1471 297.134 77.2767 301.345C72.6932 306.311 68.782 312.04 64.8454 317.51C64.7458 317.66 64.6045 317.777 64.4389 317.848C64.2732 317.918 64.0906 317.939 63.9134 317.907C63.4878 317.154 63.1266 316.367 62.8338 315.554C61.474 312.213 59.4013 306.097 59.9156 302.608C60.2944 300.169 61.0976 297.814 62.2888 295.652C62.5111 296.75 63.0248 297.769 63.7759 298.6C63.9643 298.789 64.3718 294.2 64.6366 292.117C64.9829 291.695 65.3292 291.287 65.7009 290.89C66.5475 289.969 67.4672 289.117 68.451 288.344C68.6598 288.176 68.8686 288.008 69.0825 287.834C69.8892 287.237 70.7273 286.683 71.5932 286.174C71.8173 286.037 72.0515 285.904 72.296 285.767C73.1006 285.319 73.9409 284.906 74.7965 284.529C75.0362 286.116 75.5027 287.659 76.1817 289.113C76.3243 289.418 76.691 285.487 76.7266 283.75C77.5364 283.445 78.3614 283.19 79.1966 282.951C79.4172 283.976 79.7591 284.971 80.2151 285.915C80.3272 286.144 81.4374 283.48 81.8346 282.309C84.4571 281.773 87.136 281.564 89.8098 281.688C90.039 281.688 90.2681 281.688 90.4871 281.728C91.2052 281.774 91.9131 281.856 92.6057 281.963C95.152 282.365 101.217 284 101.335 287.453C101.347 287.497 101.351 287.544 101.345 287.59Z" fill="#ABB7C2"/>
<path d="M72.6728 296.049C66.3477 302.293 64.3819 313.761 63.9796 317.021C63.3331 318.357 62.8935 319.784 62.6759 321.253C61.9222 326.401 62.1666 331.83 62.2735 337.04C62.3143 338.746 62.3907 340.447 62.4773 342.133L63.3583 341.97C63.3023 340.895 63.2513 339.821 63.2157 338.741C63.0578 334.102 63.0629 329.447 63.2768 324.802C63.3838 322.404 63.6078 319.995 64.5398 317.769C64.6507 317.704 64.7463 317.615 64.8199 317.51C68.7566 312.035 72.6881 306.306 77.2512 301.345C81.1216 297.134 86.2296 295.178 91.4598 293.243C93.8279 292.367 101.273 290.809 101.319 287.59C91.3987 288.756 79.9554 288.863 72.6728 296.049ZM72.4029 292.988C71.9366 290.618 71.8918 288.183 72.2705 285.797C72.0261 285.935 71.7918 286.067 71.5677 286.205C71.2519 288.509 71.319 290.849 71.7663 293.131C71.8478 293.543 72.4793 293.396 72.4029 292.988ZM69.9839 294.272C69.4223 292.18 69.1112 290.03 69.057 287.865C68.8431 288.018 68.6343 288.186 68.4255 288.374C68.5045 290.424 68.8119 292.458 69.3422 294.44C69.4543 294.822 70.0908 294.679 69.9839 294.272Z" fill="#010101"/>
<path d="M43.8686 355.618C40.9901 353.506 38.6497 350.746 37.0367 347.56C35.4238 344.375 34.5837 340.855 34.5846 337.285C34.5842 335.614 34.7704 333.949 35.1397 332.319C35.4109 331.078 35.7892 329.864 36.2702 328.688H78.4276C78.91 329.864 79.29 331.078 79.5633 332.319C80.5259 336.635 80.2084 341.139 78.6498 345.277C77.0912 349.416 74.3592 353.009 70.7886 355.618H43.8686Z" fill="white"/>
<path d="M78.0864 329.162C78.5046 330.221 78.8367 331.313 79.0795 332.426C79.4366 334.019 79.616 335.647 79.6142 337.28C79.621 340.75 78.8136 344.174 77.257 347.276C75.7003 350.378 73.4377 353.071 70.651 355.14H44.0264C40.5797 352.569 37.9501 349.057 36.4546 345.026C34.9591 340.995 34.6616 336.617 35.598 332.421C35.8416 331.31 36.172 330.221 36.586 329.162H78.0864ZM78.7281 328.209H35.9494C35.3978 329.502 34.9698 330.844 34.6711 332.217C33.6797 336.645 34.0076 341.266 35.6141 345.509C37.2207 349.752 40.0355 353.431 43.7106 356.092H70.9617C75.2134 353.003 78.295 348.567 79.7051 343.504C81.1152 338.442 80.7708 333.051 78.7281 328.209Z" fill="#010101"/>
<path d="M80.5665 337.28C80.5693 340.952 79.6999 344.572 78.0301 347.843C76.3603 351.113 73.9377 353.941 70.9617 356.092H43.7106C79.3137 357.859 78.7281 328.209 78.7281 328.209C79.937 331.081 80.562 334.164 80.5665 337.28Z" fill="#010101"/>
<path d="M336.084 107.477L334.931 110.516L319.606 104.702L320.332 102.304L334.738 91.5083L337.821 92.6776L332.345 97.0679L324.528 103.093L336.084 107.477ZM338.683 93.0046L330.614 114.276L326.742 112.807L334.811 91.536L338.683 93.0046ZM354.275 108.996L352.917 112.575C352.296 114.212 351.6 115.546 350.83 116.58C350.059 117.613 349.221 118.382 348.317 118.885C347.417 119.379 346.467 119.637 345.467 119.659C344.471 119.671 343.442 119.476 342.38 119.073C341.533 118.752 340.785 118.345 340.136 117.854C339.49 117.353 338.962 116.763 338.551 116.083C338.154 115.398 337.883 114.615 337.737 113.736C337.602 112.86 337.612 111.878 337.769 110.79C337.935 109.705 338.265 108.51 338.761 107.205L340.118 103.626C340.739 101.99 341.433 100.66 342.2 99.6363C342.977 98.6163 343.815 97.8593 344.716 97.3653C345.616 96.8713 346.563 96.6231 347.555 96.6208C348.551 96.6087 349.58 96.8041 350.642 97.2068C351.499 97.5319 352.247 97.9383 352.886 98.4259C353.536 98.9173 354.061 99.5008 354.462 100.177C354.876 100.846 355.151 101.619 355.287 102.495C355.426 103.361 355.413 104.336 355.246 105.421C355.094 106.499 354.77 107.691 354.275 108.996ZM348.86 111.638L350.623 106.993C350.933 106.174 351.154 105.445 351.286 104.804C351.431 104.157 351.497 103.586 351.484 103.091C351.472 102.596 351.384 102.167 351.22 101.805C351.061 101.432 350.835 101.118 350.542 100.862C350.249 100.606 349.898 100.401 349.489 100.245C348.982 100.053 348.491 99.9838 348.014 100.037C347.541 100.08 347.086 100.264 346.651 100.59C346.216 100.915 345.79 101.405 345.375 102.06C344.972 102.71 344.579 103.541 344.195 104.554L342.432 109.2C342.122 110.018 341.894 110.75 341.749 111.397C341.614 112.048 341.551 112.625 341.56 113.13C341.579 113.639 341.661 114.082 341.807 114.461C341.967 114.833 342.191 115.152 342.48 115.418C342.773 115.674 343.124 115.879 343.533 116.035C344.049 116.23 344.541 116.3 345.008 116.243C345.485 116.19 345.943 115.996 346.382 115.661C346.825 115.317 347.249 114.815 347.655 114.156C348.074 113.49 348.476 112.651 348.86 111.638ZM370.582 105.038L362.491 126.368L358.62 124.899L364.998 108.084L359.228 107.833L360.414 104.707L370.144 104.872L370.582 105.038Z" fill="black"/>
</svg>
