<svg width="338" height="303" viewBox="0 0 338 303" fill="none" xmlns="http://www.w3.org/2000/svg">
<path d="M153 54.5714C235.843 54.5714 303 121.729 303 204.571C303 241.29 289.805 274.926 267.899 301H38.1006C16.1954 274.926 3 241.29 3 204.571C3 121.729 70.1573 54.5714 153 54.5714Z" fill="#E7EBEF"/>
<g opacity="0.15">
<path d="M241.489 210.29C241.489 210.668 241.181 210.976 240.803 210.976C240.425 210.975 240.119 210.668 240.119 210.29V200.166C240.119 199.977 239.963 199.828 239.78 199.781C239.713 199.764 239.646 199.741 239.58 199.713L235.266 197.864C234.695 197.62 234.36 197.021 234.451 196.406L239.272 163.592C239.309 163.34 239.415 163.104 239.579 162.909L240.884 161.357C241.09 161.113 241.489 161.258 241.489 161.578V210.29Z" fill="#9D9FA4"/>
<path d="M241.489 209.605C241.489 209.984 241.181 210.291 240.803 210.291C240.425 210.291 240.119 209.983 240.119 209.605V199.481C240.119 199.292 239.963 199.143 239.78 199.096C239.713 199.079 239.646 199.057 239.58 199.028L235.266 197.18C234.695 196.935 234.36 196.336 234.451 195.721L239.272 162.907C239.309 162.656 239.415 162.419 239.579 162.224L240.884 160.672C241.09 160.428 241.489 160.573 241.489 160.893V209.605Z" fill="#BCBEC4"/>
<path d="M240.826 209.263C241.153 209.074 241.573 209.187 241.762 209.514C241.951 209.842 241.838 210.261 241.511 210.45L232.743 215.512C232.579 215.607 232.528 215.816 232.579 215.998C232.598 216.064 232.612 216.134 232.62 216.205L233.176 220.865C233.249 221.482 232.898 222.071 232.321 222.301L201.492 234.532C201.256 234.626 200.998 234.652 200.748 234.608L198.751 234.253C198.436 234.197 198.363 233.779 198.639 233.62L240.826 209.263Z" fill="#9D9FA4"/>
<path d="M240.483 208.921C240.811 208.732 241.231 208.844 241.42 209.172C241.609 209.499 241.496 209.918 241.168 210.108L232.4 215.17C232.236 215.264 232.185 215.473 232.237 215.655C232.255 215.722 232.269 215.791 232.278 215.863L232.834 220.523C232.907 221.14 232.556 221.729 231.979 221.958L201.15 234.19C200.914 234.284 200.656 234.31 200.405 234.266L198.408 233.911C198.094 233.855 198.02 233.437 198.297 233.277L240.483 208.921Z" fill="#BCBEC4"/>
<path d="M240.712 210.92C240.385 210.731 240.272 210.311 240.461 209.983C240.65 209.656 241.07 209.544 241.397 209.733L250.165 214.796C250.329 214.89 250.536 214.83 250.668 214.695C250.716 214.645 250.769 214.598 250.827 214.555L254.584 211.744C255.082 211.372 255.768 211.381 256.255 211.767L282.262 232.349C282.462 232.507 282.613 232.717 282.7 232.956L283.391 234.863C283.5 235.163 283.175 235.436 282.898 235.276L240.712 210.92Z" fill="#9D9FA4"/>
<path d="M240.712 210.235C240.385 210.046 240.272 209.626 240.461 209.299C240.65 208.971 241.07 208.859 241.397 209.049L250.165 214.111C250.329 214.205 250.536 214.145 250.668 214.01C250.716 213.96 250.769 213.914 250.827 213.87L254.584 211.059C255.082 210.687 255.768 210.696 256.255 211.082L282.262 231.664C282.462 231.822 282.613 232.032 282.7 232.271L283.391 234.178C283.5 234.478 283.175 234.751 282.898 234.591L240.712 210.235Z" fill="#BCBEC4"/>
<path d="M241.488 207.12C243.001 207.12 244.227 208.346 244.227 209.859C244.227 210.99 243.542 211.961 242.563 212.379L247.995 303H234.982L240.412 212.379C239.434 211.96 238.749 210.99 238.749 209.859C238.749 208.346 239.975 207.12 241.488 207.12Z" fill="#9D9FA4"/>
<path d="M240.803 207.12C242.316 207.12 243.542 208.346 243.542 209.859C243.542 210.99 242.857 211.961 241.878 212.379L247.31 303H234.297L239.727 212.379C238.749 211.96 238.064 210.99 238.064 209.859C238.064 208.346 239.29 207.12 240.803 207.12Z" fill="#BCBEC4"/>
</g>
<g opacity="0.6">
<rect x="7" y="177" width="26.7138" height="62.9968" rx="13.3569" fill="#E9EBF2"/>
<rect x="19.7589" y="202.518" width="1.59486" height="98.4823" rx="0.797428" fill="#E1E2E5"/>
<rect x="26.3384" y="206.019" width="1.59486" height="13.443" rx="0.797428" transform="rotate(30 26.3384 206.019)" fill="#E1E2E5"/>
<rect width="1.59486" height="18.9128" rx="0.797428" transform="matrix(0.866025 -0.5 -0.5 -0.866025 20.2009 227.49)" fill="#E1E2E5"/>
</g>
<rect x="42" y="125" width="38.1994" height="90.0821" rx="19.0997" fill="#E9EBF2"/>
<rect x="60.2445" y="161.489" width="2.28056" height="140.825" rx="1.14028" fill="#E1E2E5"/>
<rect x="69.653" y="166.496" width="2.28056" height="19.2228" rx="1.14028" transform="rotate(30 69.653 166.496)" fill="#E1E2E5"/>
<rect width="2.28056" height="27.0444" rx="1.14028" transform="matrix(0.866025 -0.5 -0.5 -0.866025 60.8765 197.198)" fill="#E1E2E5"/>
<path opacity="0.8" d="M80.0674 99C84.4482 99 88 102.552 88 106.933C88 107.002 87.9959 107.071 87.9941 107.14C92.2835 107.245 95.7283 110.753 95.7285 115.067C95.7285 119.38 92.2868 122.886 88 122.994V123H72.1357V122.994C72.0682 122.996 72.0006 123 71.9326 123C67.5518 123 64 119.448 64 115.067C64.0002 110.687 67.5519 107.136 71.9326 107.136C72.0022 107.136 72.0715 107.139 72.1406 107.141C72.1388 107.071 72.1357 107.002 72.1357 106.933C72.1357 102.552 75.6867 99.0002 80.0674 99Z" fill="white"/>
<path opacity="0.6" d="M219.355 123C220.816 123 222 124.184 222 125.645C222 125.668 221.997 125.691 221.996 125.715C223.427 125.749 224.576 126.917 224.576 128.355C224.576 129.793 223.429 130.96 222 130.996V131H216.712V130.996C216.689 130.997 216.667 131 216.645 131C215.184 131 214 129.816 214 128.355C214 126.895 215.184 125.712 216.645 125.712C216.668 125.712 216.691 125.714 216.715 125.715C216.714 125.691 216.712 125.668 216.712 125.645C216.712 124.184 217.895 123 219.355 123Z" fill="white"/>
<path d="M164.028 64C169.287 64.0001 173.804 67.1645 175.785 71.6924C177.06 70.7897 178.617 70.2578 180.298 70.2578C184.251 70.2578 187.518 73.1911 188.044 77H190.98C194.57 77.0003 197.48 79.9103 197.48 83.5C197.48 87.0897 194.57 89.9997 190.98 90H152.5C148.91 90 146 87.0898 146 83.5C146 80.3542 148.235 77.7299 151.203 77.1289C151.201 77.0289 151.2 76.9287 151.2 76.8281C151.2 69.7433 156.944 64 164.028 64Z" fill="white"/>
<path opacity="0.6" d="M115.354 140C117.5 140 119.343 141.292 120.15 143.14C120.671 142.771 121.305 142.553 121.991 142.553C123.604 142.553 124.937 143.749 125.151 145.303H126.349C127.813 145.303 129 146.49 129 147.954C129 149.418 127.813 150.606 126.349 150.606H110.651C109.187 150.606 108 149.418 108 147.954C108 146.67 108.912 145.599 110.124 145.354C110.123 145.314 110.121 145.274 110.121 145.233C110.121 142.343 112.464 140 115.354 140Z" fill="white"/>
<path d="M271.385 157.216C271.385 157.811 270.902 158.293 270.307 158.293C269.713 158.293 269.23 157.811 269.23 157.216V141.296C269.23 140.999 268.986 140.765 268.698 140.691C268.592 140.664 268.487 140.628 268.383 140.583L261.6 137.677C260.702 137.292 260.176 136.351 260.318 135.384L267.899 83.7837C267.957 83.3882 268.124 83.0164 268.382 82.7104L270.434 80.2697C270.757 79.8851 271.385 80.1138 271.385 80.6162V157.216Z" fill="#DCDFE6"/>
<path d="M271.385 156.139C271.385 156.734 270.902 157.217 270.307 157.217C269.713 157.216 269.23 156.734 269.23 156.139V140.219C269.23 139.922 268.986 139.688 268.698 139.614C268.592 139.587 268.487 139.551 268.383 139.507L261.6 136.6C260.702 136.215 260.176 135.274 260.318 134.307L267.899 82.7068C267.957 82.3113 268.124 81.9395 268.382 81.6335L270.434 79.1928C270.757 78.8082 271.385 79.0369 271.385 79.5393V156.139Z" fill="#E9EBF2"/>
<path d="M270.343 155.601C270.858 155.304 271.517 155.48 271.815 155.996C272.112 156.511 271.935 157.17 271.42 157.467L257.633 165.427C257.376 165.576 257.295 165.904 257.375 166.191C257.404 166.296 257.426 166.405 257.44 166.517L258.314 173.844C258.43 174.814 257.877 175.741 256.969 176.101L208.49 195.336C208.119 195.484 207.713 195.525 207.32 195.455L204.18 194.898C203.686 194.81 203.57 194.153 204.005 193.902L270.343 155.601Z" fill="#DCDFE6"/>
<path d="M269.805 155.063C270.32 154.765 270.979 154.942 271.276 155.457C271.573 155.972 271.397 156.631 270.882 156.929L257.095 164.889C256.837 165.037 256.757 165.366 256.837 165.652C256.866 165.757 256.888 165.866 256.901 165.979L257.775 173.306C257.891 174.276 257.339 175.202 256.431 175.563L207.953 194.798C207.581 194.945 207.176 194.986 206.782 194.916L203.642 194.359C203.147 194.272 203.032 193.614 203.467 193.363L269.805 155.063Z" fill="#E9EBF2"/>
<path d="M270.163 158.205C269.648 157.908 269.472 157.249 269.769 156.734C270.067 156.219 270.726 156.042 271.241 156.34L285.028 164.3C285.285 164.448 285.61 164.354 285.818 164.141C285.894 164.063 285.978 163.99 286.069 163.922L291.977 159.501C292.759 158.916 293.838 158.931 294.604 159.538L335.501 191.903C335.814 192.151 336.053 192.482 336.189 192.858L337.277 195.855C337.448 196.328 336.936 196.757 336.501 196.505L270.163 158.205Z" fill="#DCDFE6"/>
<path d="M270.163 157.128C269.648 156.831 269.472 156.172 269.769 155.657C270.067 155.142 270.726 154.965 271.241 155.263L285.028 163.223C285.285 163.371 285.61 163.277 285.818 163.064C285.894 162.986 285.978 162.913 286.069 162.845L291.977 158.425C292.759 157.839 293.838 157.854 294.604 158.461L335.501 190.826C335.814 191.074 336.053 191.405 336.189 191.781L337.277 194.778C337.448 195.251 336.936 195.68 336.501 195.428L270.163 157.128Z" fill="#E9EBF2"/>
<path d="M271.384 152.231C273.763 152.231 275.692 154.159 275.692 156.538C275.692 158.317 274.614 159.844 273.075 160.501L281.616 303H261.154L269.693 160.501C268.155 159.844 267.077 158.317 267.077 156.538C267.077 154.159 269.005 152.231 271.384 152.231Z" fill="#DCDFE6"/>
<path d="M270.307 152.231C272.686 152.231 274.615 154.159 274.615 156.538C274.615 158.317 273.537 159.844 271.998 160.501L280.539 303H260.077L268.616 160.501C267.078 159.844 266 158.317 266 156.538C266 154.159 267.928 152.231 270.307 152.231Z" fill="#E9EBF2"/>
<path d="M291.906 300H280.967C268.293 300 273.761 296.234 276.968 295.503C269.801 292.947 275.082 288.131 278.704 290.14C276.441 281.375 284.174 283.201 285.683 288.131C288.7 283.019 293.981 285.575 290.775 291.053C296.244 288.679 296.244 293.427 293.981 294.887C299.45 295.8 296.394 297.512 293.376 297.512C296.96 299.52 294.319 300 291.906 300Z" fill="#D7D8DE"/>
<path d="M243.906 300H232.967C220.293 300 225.761 296.234 228.968 295.503C221.801 292.947 227.082 288.131 230.704 290.14C228.441 281.375 236.174 283.201 237.683 288.131C240.7 283.019 245.981 285.575 242.775 291.053C248.244 288.679 248.244 293.427 245.981 294.887C251.45 295.8 248.394 297.512 245.376 297.512C248.96 299.52 246.319 300 243.906 300Z" fill="#D7D8DE"/>
<path d="M276.538 301H255.116C230.296 301 241.004 293.938 247.283 292.569C233.248 287.776 243.59 278.746 250.684 282.512C246.252 266.079 261.395 269.503 264.35 278.746C270.259 269.16 280.601 273.953 274.322 284.224C285.033 279.774 285.033 288.675 280.601 291.414C291.312 293.126 285.326 296.335 279.416 296.335C286.434 300.101 281.263 301 276.538 301Z" fill="#E1E1E6"/>
<path d="M233.403 280.831C233.26 279.833 232.842 278.83 231.992 278.143C233.981 278.205 234.738 278.746 235.561 279.553C237.553 281.504 236.486 283.886 235.318 283.504C234.151 283.123 233.552 281.865 233.403 280.831Z" fill="#E5E6ED"/>
<path d="M233.247 278.672C235.329 279.69 236.117 282.384 236.398 283.717L236.133 283.784C235.777 280.991 234.372 279.235 233.247 278.672C233.212 278.654 233.175 278.637 233.139 278.621C233.175 278.636 233.211 278.653 233.247 278.672Z" fill="#0641F3"/>
<path d="M235.141 279.4C235.484 279.829 235.38 280.487 235.306 280.802L235.242 280.789C235.449 280.154 235.325 279.635 235.141 279.4C235.135 279.392 235.129 279.385 235.123 279.378C235.129 279.385 235.135 279.392 235.141 279.4Z" fill="#0641F3"/>
<path d="M234.137 279.774C234.308 280.023 234.65 280.076 234.817 280.089L234.819 280.054C234.474 280.058 234.231 279.908 234.137 279.774C234.134 279.77 234.131 279.765 234.128 279.761C234.131 279.765 234.134 279.77 234.137 279.774Z" fill="#0641F3"/>
<path d="M235.96 280.39C236.181 280.894 235.911 281.503 235.758 281.787L235.7 281.759C236.063 281.198 236.078 280.665 235.96 280.39C235.956 280.382 235.952 280.373 235.948 280.365C235.952 280.373 235.956 280.382 235.96 280.39Z" fill="#0641F3"/>
<path d="M234.24 280.721C234.547 281.177 235.205 281.276 235.528 281.3L235.535 281.235C234.867 281.241 234.409 280.967 234.24 280.721C234.235 280.713 234.23 280.705 234.225 280.697C234.23 280.705 234.235 280.713 234.24 280.721Z" fill="#0641F3"/>
<path d="M234.228 281.768C234.655 282.433 235.542 282.599 235.975 282.644L235.982 282.552C235.087 282.536 234.463 282.127 234.228 281.768C234.221 281.757 234.213 281.745 234.206 281.734C234.213 281.745 234.22 281.757 234.228 281.768Z" fill="#0641F3"/>
<path d="M292.01 283.284C292.591 282.46 293.419 281.757 294.489 281.531C292.69 280.682 291.769 280.821 290.669 281.165C288.009 281.997 287.876 284.604 289.089 284.795C290.303 284.986 291.408 284.137 292.01 283.284Z" fill="#E5E6ED"/>
<path d="M293.13 281.432C290.814 281.393 288.887 283.434 288.031 284.494L288.236 284.674C289.823 282.348 291.872 281.422 293.13 281.432C293.17 281.432 293.211 281.434 293.251 281.436C293.211 281.433 293.171 281.432 293.13 281.432Z" fill="#0641F3"/>
<path d="M291.113 281.22C290.612 281.446 290.405 282.079 290.329 282.393L290.392 282.411C290.496 281.751 290.842 281.345 291.113 281.22C291.122 281.216 291.13 281.212 291.139 281.208C291.131 281.212 291.122 281.215 291.113 281.22Z" fill="#0641F3"/>
<path d="M291.838 282.01C291.572 282.154 291.243 282.046 291.089 281.981L291.103 281.949C291.408 282.109 291.693 282.087 291.838 282.01C291.842 282.007 291.847 282.004 291.851 282.002C291.847 282.004 291.842 282.007 291.838 282.01Z" fill="#0641F3"/>
<path d="M289.933 281.73C289.507 282.078 289.471 282.743 289.478 283.066L289.543 283.067C289.474 282.402 289.704 281.921 289.933 281.73C289.941 281.724 289.948 281.718 289.956 281.712C289.948 281.718 289.941 281.724 289.933 281.73Z" fill="#0641F3"/>
<path d="M291.315 282.805C290.834 283.073 290.203 282.862 289.905 282.736L289.928 282.675C290.52 282.984 291.053 282.948 291.315 282.805C291.323 282.801 291.331 282.796 291.339 282.791C291.332 282.796 291.323 282.801 291.315 282.805Z" fill="#0641F3"/>
<path d="M290.85 283.744C290.167 284.142 289.302 283.887 288.895 283.73L288.931 283.645C289.736 284.037 290.477 283.957 290.85 283.744C290.861 283.738 290.873 283.73 290.885 283.723C290.874 283.73 290.862 283.737 290.85 283.744Z" fill="#0641F3"/>
<path d="M269.101 266.924C269.171 265.918 269.516 264.888 270.313 264.14C268.334 264.346 267.619 264.942 266.856 265.806C265.012 267.896 266.249 270.195 267.386 269.729C268.522 269.264 269.029 267.965 269.101 266.924Z" fill="#E5E6ED"/>
<path d="M269.1 264.759C267.098 265.926 266.508 268.67 266.324 270.02L266.594 270.067C266.745 267.256 268.019 265.402 269.1 264.759C269.134 264.739 269.169 264.719 269.205 264.7C269.17 264.718 269.135 264.738 269.1 264.759Z" fill="#0641F3"/>
<path d="M267.264 265.623C266.953 266.076 267.105 266.725 267.202 267.033L267.265 267.016C267.012 266.397 267.098 265.87 267.264 265.623C267.27 265.615 267.275 265.607 267.281 265.599C267.275 265.607 267.27 265.615 267.264 265.623Z" fill="#0641F3"/>
<path d="M268.293 265.923C268.141 266.184 267.803 266.262 267.638 266.286L267.633 266.251C267.977 266.23 268.209 266.064 268.293 265.923C268.296 265.918 268.298 265.914 268.301 265.909C268.298 265.914 268.296 265.918 268.293 265.923Z" fill="#0641F3"/>
<path d="M266.519 266.67C266.335 267.188 266.649 267.776 266.822 268.049L266.878 268.016C266.475 267.484 266.422 266.953 266.519 266.67C266.522 266.661 266.526 266.652 266.529 266.644C266.526 266.652 266.522 266.661 266.519 266.67Z" fill="#0641F3"/>
<path d="M268.258 266.875C267.986 267.352 267.336 267.499 267.017 267.546L267.005 267.482C267.671 267.439 268.108 267.133 268.258 266.875C268.263 266.866 268.268 266.858 268.272 266.85C268.268 266.858 268.263 266.866 268.258 266.875Z" fill="#0641F3"/>
<path d="M268.347 267.919C267.969 268.612 267.097 268.842 266.668 268.919L266.654 268.828C267.546 268.746 268.139 268.293 268.347 267.919C268.354 267.907 268.36 267.895 268.366 267.882C268.36 267.894 268.354 267.906 268.347 267.919Z" fill="#0641F3"/>
<path d="M247.5 267.729C247.466 267.137 247.271 266.528 246.807 266.082C247.97 266.218 248.387 266.573 248.829 267.088C249.899 268.331 249.155 269.674 248.489 269.392C247.824 269.11 247.535 268.342 247.5 267.729Z" fill="#E5E6ED"/>
<path d="M247.517 266.455C248.686 267.156 249.013 268.775 249.111 269.571L248.953 269.597C248.884 267.941 248.148 266.842 247.517 266.455C247.497 266.443 247.476 266.431 247.456 266.42C247.476 266.431 247.496 266.443 247.517 266.455Z" fill="#0641F3"/>
<path d="M248.591 266.977C248.77 267.246 248.677 267.626 248.617 267.807L248.58 267.796C248.733 267.434 248.687 267.124 248.591 266.977C248.588 266.972 248.584 266.967 248.581 266.963C248.584 266.967 248.587 266.972 248.591 266.977Z" fill="#0641F3"/>
<path d="M247.983 267.146C248.071 267.3 248.269 267.349 248.366 267.364L248.369 267.344C248.167 267.329 248.031 267.229 247.983 267.146C247.982 267.143 247.98 267.14 247.979 267.138C247.98 267.14 247.982 267.143 247.983 267.146Z" fill="#0641F3"/>
<path d="M249.021 267.598C249.126 267.905 248.937 268.248 248.833 268.407L248.8 268.388C249.041 268.077 249.076 267.765 249.021 267.598C249.019 267.593 249.017 267.588 249.016 267.583C249.017 267.588 249.019 267.593 249.021 267.598Z" fill="#0641F3"/>
<path d="M247.997 267.706C248.153 267.989 248.534 268.08 248.722 268.11L248.73 268.072C248.338 268.042 248.083 267.859 247.997 267.706C247.994 267.701 247.991 267.696 247.989 267.691C247.991 267.696 247.994 267.701 247.997 267.706Z" fill="#0641F3"/>
<path d="M247.937 268.32C248.154 268.73 248.666 268.872 248.917 268.92L248.926 268.867C248.402 268.812 248.057 268.541 247.937 268.32C247.933 268.312 247.929 268.305 247.926 268.298C247.929 268.305 247.933 268.312 247.937 268.32Z" fill="#0641F3"/>
<path d="M25.5896 301H14.9758C2.67843 301 7.98396 297.501 11.0949 296.823C4.14104 294.448 9.26494 289.974 12.7798 291.84C10.5839 283.698 18.0867 285.394 19.5507 289.974C22.4786 285.225 27.6025 287.599 24.4916 292.688C29.7985 290.483 29.7985 294.893 27.6025 296.25C32.9094 297.099 29.9435 298.689 27.0156 298.689C30.4925 300.555 27.9306 301 25.5896 301Z" fill="#E9EBF2"/>
<path d="M31.4763 300.505H26.0565C19.777 300.505 22.4862 298.639 24.0748 298.277C20.5239 297.01 23.1403 294.624 24.9352 295.619C23.8138 291.277 27.6451 292.181 28.3926 294.624C29.8878 292.091 32.5042 293.358 30.9157 296.072C33.6256 294.896 33.6256 297.248 32.5042 297.971C35.2141 298.424 33.6996 299.272 32.2045 299.272C33.98 300.267 32.6717 300.505 31.4763 300.505Z" fill="#DFE0E6"/>
<path d="M7.24651 288.448C6.95871 288.04 6.54825 287.692 6.01831 287.58C6.90987 287.159 7.36591 287.228 7.91116 287.398C9.22907 287.811 9.29497 289.102 8.69376 289.197C8.09255 289.291 7.54469 288.871 7.24651 288.448Z" fill="#E5E6ED"/>
<path d="M6.69145 287.531C7.83938 287.511 8.79387 288.523 9.21809 289.048L9.11621 289.137C8.33031 287.984 7.31473 287.526 6.69145 287.531C6.67163 287.531 6.65176 287.532 6.63184 287.532C6.65128 287.531 6.67115 287.531 6.69145 287.531Z" fill="#0641F3"/>
<path d="M7.69103 287.425C7.93928 287.538 8.04155 287.851 8.07936 288.007L8.04846 288.016C7.99666 287.689 7.82524 287.488 7.69103 287.425C7.68674 287.423 7.68241 287.422 7.67804 287.42C7.68233 287.421 7.68666 287.423 7.69103 287.425Z" fill="#0641F3"/>
<path d="M7.3321 287.817C7.46364 287.888 7.62672 287.835 7.70315 287.802L7.69604 287.787C7.54506 287.866 7.40382 287.855 7.3321 287.817C7.32983 287.816 7.32757 287.814 7.32532 287.813C7.3275 287.814 7.32976 287.815 7.3321 287.817Z" fill="#0641F3"/>
<path d="M8.27556 287.678C8.48655 287.85 8.50457 288.18 8.50102 288.34L8.4689 288.341C8.50304 288.011 8.38924 287.773 8.27556 287.678C8.27192 287.675 8.26822 287.672 8.26447 287.669C8.26816 287.672 8.27186 287.675 8.27556 287.678Z" fill="#0641F3"/>
<path d="M7.59105 288.211C7.82902 288.344 8.14198 288.239 8.28952 288.177L8.2782 288.147C7.98471 288.3 7.7209 288.282 7.59105 288.211C7.58694 288.209 7.58286 288.206 7.5788 288.204C7.58274 288.206 7.58682 288.209 7.59105 288.211Z" fill="#0641F3"/>
<path d="M7.82145 288.676C8.15972 288.873 8.58839 288.747 8.78973 288.669L8.77226 288.627C8.37344 288.821 8.00594 288.782 7.82145 288.676C7.81561 288.673 7.8098 288.669 7.80402 288.666C7.80963 288.669 7.81544 288.673 7.82145 288.676Z" fill="#0641F3"/>
<path d="M31.9787 291.916C32.2664 291.508 32.6769 291.16 33.2068 291.048C32.3153 290.627 31.8592 290.696 31.314 290.867C29.9961 291.279 29.9302 292.571 30.5314 292.665C31.1326 292.759 31.6805 292.339 31.9787 291.916Z" fill="#E5E6ED"/>
<path d="M32.5337 290.999C31.3858 290.979 30.4313 291.991 30.0071 292.516L30.109 292.605C30.8949 291.452 31.9104 290.994 32.5337 290.999C32.5535 290.999 32.5734 291 32.5933 291.001C32.5739 291 32.554 290.999 32.5337 290.999Z" fill="#0641F3"/>
<path d="M31.5341 290.894C31.2859 291.006 31.1836 291.32 31.1458 291.475L31.1767 291.484C31.2285 291.157 31.3999 290.956 31.5341 290.894C31.5384 290.892 31.5427 290.89 31.5471 290.888C31.5428 290.89 31.5385 290.892 31.5341 290.894Z" fill="#0641F3"/>
<path d="M31.8931 291.285C31.7615 291.356 31.5984 291.303 31.522 291.271L31.5291 291.255C31.6801 291.334 31.8213 291.323 31.8931 291.285C31.8953 291.284 31.8976 291.282 31.8998 291.281C31.8977 291.282 31.8954 291.284 31.8931 291.285Z" fill="#0641F3"/>
<path d="M30.9496 291.146C30.7386 291.319 30.7206 291.648 30.7241 291.808L30.7563 291.809C30.7221 291.48 30.8359 291.241 30.9496 291.146C30.9532 291.143 30.9569 291.14 30.9607 291.138C30.957 291.14 30.9533 291.143 30.9496 291.146Z" fill="#0641F3"/>
<path d="M31.6341 291.679C31.3961 291.812 31.0832 291.707 30.9356 291.645L30.947 291.615C31.2404 291.768 31.5043 291.75 31.6341 291.679C31.6382 291.677 31.6423 291.675 31.6464 291.672C31.6424 291.675 31.6383 291.677 31.6341 291.679Z" fill="#0641F3"/>
<path d="M31.4037 292.145C31.0654 292.341 30.6368 292.215 30.4354 292.138L30.4529 292.095C30.8517 292.29 31.2192 292.25 31.4037 292.145C31.4095 292.141 31.4154 292.138 31.4211 292.134C31.4155 292.138 31.4097 292.141 31.4037 292.145Z" fill="#0641F3"/>
<path d="M20.914 286.098C20.9487 285.6 21.1193 285.09 21.5146 284.719C20.5341 284.821 20.1796 285.116 19.8016 285.545C18.888 286.58 19.5008 287.719 20.064 287.488C20.6271 287.258 20.878 286.614 20.914 286.098Z" fill="#E5E6ED"/>
<path d="M20.9133 285.026C19.9214 285.604 19.629 286.964 19.5382 287.632L19.6715 287.656C19.7466 286.263 20.3777 285.345 20.9133 285.026C20.9304 285.016 20.9477 285.006 20.9653 284.997C20.9481 285.006 20.9307 285.015 20.9133 285.026Z" fill="#0641F3"/>
<path d="M20.0038 285.454C19.8496 285.678 19.9247 286 19.973 286.152L20.004 286.144C19.8789 285.837 19.9212 285.576 20.0038 285.454C20.0065 285.45 20.0092 285.446 20.012 285.442C20.0093 285.446 20.0065 285.45 20.0038 285.454Z" fill="#0641F3"/>
<path d="M20.5136 285.603C20.4381 285.732 20.2709 285.77 20.1889 285.783L20.1867 285.765C20.3569 285.755 20.4721 285.672 20.5136 285.603C20.5149 285.6 20.5162 285.598 20.5175 285.596C20.5163 285.598 20.515 285.6 20.5136 285.603Z" fill="#0641F3"/>
<path d="M19.6348 285.973C19.5437 286.23 19.699 286.521 19.785 286.656L19.8127 286.64C19.6129 286.376 19.5866 286.113 19.6348 285.973C19.6364 285.968 19.638 285.964 19.6398 285.96C19.638 285.964 19.6364 285.968 19.6348 285.973Z" fill="#0641F3"/>
<path d="M20.4964 286.074C20.3616 286.311 20.0397 286.383 19.8812 286.407L19.8753 286.375C20.2056 286.354 20.422 286.202 20.4964 286.074C20.4987 286.07 20.501 286.066 20.5032 286.062C20.5011 286.066 20.4988 286.07 20.4964 286.074Z" fill="#0641F3"/>
<path d="M20.5404 286.591C20.353 286.935 19.9209 287.049 19.7086 287.087L19.7017 287.042C20.1435 287.001 20.4371 286.777 20.5404 286.591C20.5436 286.585 20.5468 286.579 20.5499 286.573C20.5469 286.579 20.5437 286.585 20.5404 286.591Z" fill="#0641F3"/>
<path d="M10.4658 286.002C10.449 285.708 10.3523 285.407 10.1225 285.186C10.6986 285.253 10.905 285.429 11.1243 285.684C11.6543 286.3 11.2854 286.966 10.9557 286.826C10.6261 286.686 10.4832 286.306 10.4658 286.002Z" fill="#E5E6ED"/>
<path d="M10.474 285.371C11.0533 285.718 11.2154 286.52 11.264 286.914L11.1854 286.927C11.1514 286.107 10.7868 285.562 10.474 285.371C10.464 285.365 10.4539 285.359 10.4436 285.353C10.4537 285.359 10.4638 285.364 10.474 285.371Z" fill="#0641F3"/>
<path d="M11.006 285.629C11.095 285.762 11.0485 285.951 11.019 286.04L11.0008 286.035C11.0767 285.856 11.0537 285.702 11.006 285.629C11.0044 285.627 11.0028 285.625 11.0012 285.622C11.0028 285.625 11.0044 285.627 11.006 285.629Z" fill="#0641F3"/>
<path d="M10.7049 285.713C10.7484 285.79 10.8465 285.814 10.8947 285.821L10.8961 285.811C10.796 285.804 10.7288 285.754 10.7049 285.713C10.7041 285.712 10.7034 285.71 10.7027 285.709C10.7034 285.71 10.7041 285.712 10.7049 285.713Z" fill="#0641F3"/>
<path d="M11.2193 285.937C11.2711 286.089 11.1776 286.259 11.126 286.338L11.1098 286.328C11.2292 286.174 11.2466 286.02 11.2193 285.937C11.2184 285.935 11.2175 285.932 11.2165 285.929C11.2175 285.932 11.2184 285.935 11.2193 285.937Z" fill="#0641F3"/>
<path d="M10.7116 285.991C10.7892 286.131 10.9781 286.176 11.0712 286.191L11.0749 286.172C10.8807 286.157 10.7544 286.066 10.7116 285.991C10.7103 285.988 10.709 285.986 10.7077 285.983C10.7089 285.986 10.7102 285.988 10.7116 285.991Z" fill="#0641F3"/>
<path d="M10.682 286.295C10.7897 286.498 11.0431 286.568 11.1677 286.592L11.1721 286.566C10.9125 286.539 10.7414 286.404 10.682 286.295C10.6801 286.291 10.6783 286.287 10.6765 286.284C10.6782 286.287 10.68 286.291 10.682 286.295Z" fill="#0641F3"/>
<path d="M28.7594 289.47C28.7762 289.177 28.8728 288.875 29.1027 288.654C28.5266 288.721 28.3202 288.898 28.1009 289.152C27.5709 289.768 27.9398 290.434 28.2694 290.294C28.5991 290.154 28.742 289.774 28.7594 289.47Z" fill="#E5E6ED"/>
<path d="M28.7512 288.839C28.1718 289.186 28.0097 289.988 27.9612 290.383L28.0398 290.395C28.0738 289.575 28.4384 289.03 28.7512 288.839C28.7612 288.833 28.7713 288.827 28.7816 288.821C28.7715 288.827 28.7614 288.833 28.7512 288.839Z" fill="#0641F3"/>
<path d="M28.2192 289.097C28.1301 289.231 28.1766 289.419 28.2062 289.509L28.2243 289.503C28.1485 289.324 28.1715 289.17 28.2192 289.097C28.2207 289.095 28.2223 289.093 28.2239 289.091C28.2223 289.093 28.2208 289.095 28.2192 289.097Z" fill="#0641F3"/>
<path d="M28.5203 289.181C28.4768 289.258 28.3787 289.282 28.3305 289.289L28.3291 289.279C28.4292 289.272 28.4963 289.223 28.5203 289.181C28.521 289.18 28.5217 289.179 28.5225 289.177C28.5218 289.179 28.521 289.18 28.5203 289.181Z" fill="#0641F3"/>
<path d="M28.0059 289.405C27.9541 289.557 28.0476 289.727 28.0992 289.806L28.1154 289.796C27.9959 289.643 27.9785 289.488 28.0059 289.405C28.0067 289.403 28.0077 289.4 28.0087 289.398C28.0077 289.4 28.0067 289.403 28.0059 289.405Z" fill="#0641F3"/>
<path d="M28.5135 289.459C28.4359 289.599 28.2471 289.644 28.154 289.659L28.1503 289.64C28.3445 289.625 28.4707 289.534 28.5135 289.459C28.5149 289.456 28.5162 289.454 28.5175 289.451C28.5162 289.454 28.5149 289.456 28.5135 289.459Z" fill="#0641F3"/>
<path d="M28.5432 289.763C28.4355 289.966 28.1821 290.037 28.0574 290.06L28.053 290.034C28.3127 290.007 28.4838 289.873 28.5432 289.763C28.5451 289.759 28.5469 289.756 28.5486 289.752C28.5469 289.756 28.5451 289.759 28.5432 289.763Z" fill="#0641F3"/>
<path d="M72.5896 301H61.9758C49.6784 301 54.984 297.501 58.0949 296.823C51.141 294.448 56.2649 289.974 59.7798 291.84C57.5839 283.698 65.0867 285.394 66.5507 289.974C69.4786 285.225 74.6025 287.599 71.4916 292.688C76.7985 290.483 76.7985 294.893 74.6025 296.25C79.9094 297.099 76.9435 298.689 74.0156 298.689C77.4925 300.555 74.9306 301 72.5896 301Z" fill="#E9EBF2"/>
<path d="M78.4763 300.505H73.0565C66.777 300.505 69.4862 298.639 71.0748 298.277C67.5239 297.01 70.1403 294.624 71.9352 295.619C70.8138 291.277 74.6451 292.181 75.3926 294.624C76.8878 292.091 79.5042 293.358 77.9157 296.072C80.6256 294.896 80.6256 297.248 79.5042 297.971C82.2141 298.424 80.6996 299.272 79.2045 299.272C80.98 300.267 79.6717 300.505 78.4763 300.505Z" fill="#DFE0E6"/>
<path d="M54.2465 288.448C53.9587 288.04 53.5483 287.692 53.0183 287.58C53.9099 287.159 54.3659 287.228 54.9112 287.398C56.2291 287.811 56.295 289.102 55.6938 289.197C55.0925 289.291 54.5447 288.871 54.2465 288.448Z" fill="#E5E6ED"/>
<path d="M53.6914 287.531C54.8394 287.511 55.7939 288.523 56.2181 289.048L56.1162 289.137C55.3303 287.984 54.3147 287.526 53.6914 287.531C53.6716 287.531 53.6518 287.532 53.6318 287.532C53.6513 287.531 53.6712 287.531 53.6914 287.531Z" fill="#0641F3"/>
<path d="M54.691 287.425C54.9393 287.538 55.0416 287.851 55.0794 288.007L55.0485 288.016C54.9967 287.689 54.8252 287.488 54.691 287.425C54.6867 287.423 54.6824 287.422 54.678 287.42C54.6823 287.421 54.6867 287.423 54.691 287.425Z" fill="#0641F3"/>
<path d="M54.3321 287.817C54.4636 287.888 54.6267 287.835 54.7031 287.802L54.696 287.787C54.5451 287.866 54.4038 287.855 54.3321 287.817C54.3298 287.816 54.3276 287.814 54.3253 287.813C54.3275 287.814 54.3298 287.815 54.3321 287.817Z" fill="#0641F3"/>
<path d="M55.2756 287.678C55.4866 287.85 55.5046 288.18 55.501 288.34L55.4689 288.341C55.503 288.011 55.3892 287.773 55.2756 287.678C55.2719 287.675 55.2682 287.672 55.2645 287.669C55.2682 287.672 55.2719 287.675 55.2756 287.678Z" fill="#0641F3"/>
<path d="M54.5911 288.211C54.829 288.344 55.142 288.239 55.2895 288.177L55.2782 288.147C54.9847 288.3 54.7209 288.282 54.5911 288.211C54.5869 288.209 54.5829 288.206 54.5788 288.204C54.5827 288.206 54.5868 288.209 54.5911 288.211Z" fill="#0641F3"/>
<path d="M54.8214 288.676C55.1597 288.873 55.5884 288.747 55.7897 288.669L55.7723 288.627C55.3734 288.821 55.0059 288.782 54.8214 288.676C54.8156 288.673 54.8098 288.669 54.804 288.666C54.8096 288.669 54.8154 288.673 54.8214 288.676Z" fill="#0641F3"/>
<path d="M78.9787 291.916C79.2664 291.508 79.6769 291.16 80.2068 291.048C79.3153 290.627 78.8592 290.696 78.314 290.867C76.9961 291.279 76.9302 292.571 77.5314 292.665C78.1326 292.759 78.6805 292.339 78.9787 291.916Z" fill="#E5E6ED"/>
<path d="M79.5337 290.999C78.3858 290.979 77.4313 291.991 77.0071 292.516L77.109 292.605C77.8949 291.452 78.9104 290.994 79.5337 290.999C79.5535 290.999 79.5734 291 79.5933 291.001C79.5739 291 79.554 290.999 79.5337 290.999Z" fill="#0641F3"/>
<path d="M78.5341 290.894C78.2859 291.006 78.1836 291.32 78.1458 291.475L78.1767 291.484C78.2285 291.157 78.3999 290.956 78.5341 290.894C78.5384 290.892 78.5427 290.89 78.5471 290.888C78.5428 290.89 78.5385 290.892 78.5341 290.894Z" fill="#0641F3"/>
<path d="M78.8931 291.285C78.7615 291.356 78.5984 291.303 78.522 291.271L78.5291 291.255C78.6801 291.334 78.8213 291.323 78.8931 291.285C78.8953 291.284 78.8976 291.282 78.8998 291.281C78.8977 291.282 78.8954 291.284 78.8931 291.285Z" fill="#0641F3"/>
<path d="M77.9496 291.146C77.7386 291.319 77.7206 291.648 77.7241 291.808L77.7563 291.809C77.7221 291.48 77.8359 291.241 77.9496 291.146C77.9532 291.143 77.9569 291.14 77.9607 291.138C77.957 291.14 77.9533 291.143 77.9496 291.146Z" fill="#0641F3"/>
<path d="M78.6341 291.679C78.3961 291.812 78.0832 291.707 77.9356 291.645L77.947 291.615C78.2404 291.768 78.5043 291.75 78.6341 291.679C78.6382 291.677 78.6423 291.675 78.6464 291.672C78.6424 291.675 78.6383 291.677 78.6341 291.679Z" fill="#0641F3"/>
<path d="M78.4037 292.145C78.0654 292.341 77.6368 292.215 77.4354 292.138L77.4529 292.095C77.8517 292.29 78.2192 292.25 78.4037 292.145C78.4095 292.141 78.4154 292.138 78.4211 292.134C78.4155 292.138 78.4097 292.141 78.4037 292.145Z" fill="#0641F3"/>
<path d="M67.914 286.098C67.9487 285.6 68.1193 285.09 68.5146 284.719C67.5341 284.821 67.1796 285.116 66.8016 285.545C65.888 286.58 66.5008 287.719 67.064 287.488C67.6271 287.258 67.878 286.614 67.914 286.098Z" fill="#E5E6ED"/>
<path d="M67.9133 285.026C66.9214 285.604 66.629 286.964 66.5382 287.632L66.6715 287.656C66.7466 286.263 67.3777 285.345 67.9133 285.026C67.9304 285.016 67.9477 285.006 67.9653 284.997C67.9481 285.006 67.9307 285.015 67.9133 285.026Z" fill="#0641F3"/>
<path d="M67.0038 285.454C66.8496 285.678 66.9247 286 66.973 286.152L67.004 286.144C66.8789 285.837 66.9212 285.576 67.0038 285.454C67.0065 285.45 67.0092 285.446 67.012 285.442C67.0093 285.446 67.0065 285.45 67.0038 285.454Z" fill="#0641F3"/>
<path d="M67.5136 285.603C67.4381 285.732 67.2709 285.77 67.1889 285.783L67.1867 285.765C67.3569 285.755 67.4721 285.672 67.5136 285.603C67.5149 285.6 67.5162 285.598 67.5175 285.596C67.5163 285.598 67.515 285.6 67.5136 285.603Z" fill="#0641F3"/>
<path d="M66.6348 285.973C66.5437 286.23 66.699 286.521 66.785 286.656L66.8127 286.64C66.6129 286.376 66.5866 286.113 66.6348 285.973C66.6364 285.968 66.638 285.964 66.6398 285.96C66.638 285.964 66.6364 285.968 66.6348 285.973Z" fill="#0641F3"/>
<path d="M67.4964 286.074C67.3616 286.311 67.0397 286.383 66.8812 286.407L66.8753 286.375C67.2056 286.354 67.422 286.202 67.4964 286.074C67.4987 286.07 67.501 286.066 67.5032 286.062C67.5011 286.066 67.4988 286.07 67.4964 286.074Z" fill="#0641F3"/>
<path d="M67.5404 286.591C67.353 286.935 66.9209 287.049 66.7086 287.087L66.7017 287.042C67.1435 287.001 67.4371 286.777 67.5404 286.591C67.5436 286.585 67.5468 286.579 67.5499 286.573C67.5469 286.579 67.5437 286.585 67.5404 286.591Z" fill="#0641F3"/>
<path d="M57.4658 286.002C57.449 285.708 57.3523 285.407 57.1225 285.186C57.6986 285.253 57.905 285.429 58.1243 285.684C58.6543 286.3 58.2854 286.966 57.9557 286.826C57.6261 286.686 57.4832 286.306 57.4658 286.002Z" fill="#E5E6ED"/>
<path d="M57.474 285.371C58.0533 285.718 58.2154 286.52 58.264 286.914L58.1854 286.927C58.1514 286.107 57.7868 285.562 57.474 285.371C57.464 285.365 57.4539 285.359 57.4436 285.353C57.4537 285.359 57.4638 285.364 57.474 285.371Z" fill="#0641F3"/>
<path d="M58.006 285.629C58.095 285.762 58.0485 285.951 58.019 286.04L58.0008 286.035C58.0767 285.856 58.0537 285.702 58.006 285.629C58.0044 285.627 58.0028 285.625 58.0012 285.622C58.0028 285.625 58.0044 285.627 58.006 285.629Z" fill="#0641F3"/>
<path d="M57.7049 285.713C57.7484 285.79 57.8465 285.814 57.8947 285.821L57.8961 285.811C57.796 285.804 57.7288 285.754 57.7049 285.713C57.7041 285.712 57.7034 285.71 57.7027 285.709C57.7034 285.71 57.7041 285.712 57.7049 285.713Z" fill="#0641F3"/>
<path d="M58.2193 285.937C58.2711 286.089 58.1776 286.259 58.126 286.338L58.1098 286.328C58.2292 286.174 58.2466 286.02 58.2193 285.937C58.2184 285.935 58.2175 285.932 58.2165 285.929C58.2175 285.932 58.2184 285.935 58.2193 285.937Z" fill="#0641F3"/>
<path d="M57.7116 285.991C57.7892 286.131 57.9781 286.176 58.0712 286.191L58.0749 286.172C57.8807 286.157 57.7544 286.066 57.7116 285.991C57.7103 285.988 57.709 285.986 57.7077 285.983C57.7089 285.986 57.7102 285.988 57.7116 285.991Z" fill="#0641F3"/>
<path d="M57.682 286.295C57.7897 286.498 58.0431 286.568 58.1677 286.592L58.1721 286.566C57.9125 286.539 57.7414 286.404 57.682 286.295C57.6801 286.291 57.6783 286.287 57.6765 286.284C57.6782 286.287 57.68 286.291 57.682 286.295Z" fill="#0641F3"/>
<path d="M75.7594 289.47C75.7762 289.177 75.8728 288.875 76.1027 288.654C75.5266 288.721 75.3202 288.898 75.1009 289.152C74.5709 289.768 74.9398 290.434 75.2694 290.294C75.5991 290.154 75.742 289.774 75.7594 289.47Z" fill="#E5E6ED"/>
<path d="M75.7512 288.839C75.1718 289.186 75.0097 289.988 74.9612 290.383L75.0398 290.395C75.0738 289.575 75.4384 289.03 75.7512 288.839C75.7612 288.833 75.7713 288.827 75.7816 288.821C75.7715 288.827 75.7614 288.833 75.7512 288.839Z" fill="#0641F3"/>
<path d="M75.2192 289.097C75.1301 289.231 75.1766 289.419 75.2062 289.509L75.2243 289.503C75.1485 289.324 75.1715 289.17 75.2192 289.097C75.2207 289.095 75.2223 289.093 75.2239 289.091C75.2223 289.093 75.2208 289.095 75.2192 289.097Z" fill="#0641F3"/>
<path d="M75.5203 289.181C75.4768 289.258 75.3787 289.282 75.3305 289.289L75.3291 289.279C75.4292 289.272 75.4963 289.223 75.5203 289.181C75.521 289.18 75.5217 289.179 75.5225 289.177C75.5218 289.179 75.521 289.18 75.5203 289.181Z" fill="#0641F3"/>
<path d="M75.0059 289.405C74.9541 289.557 75.0476 289.727 75.0992 289.806L75.1154 289.796C74.9959 289.643 74.9785 289.488 75.0059 289.405C75.0067 289.403 75.0077 289.4 75.0087 289.398C75.0077 289.4 75.0067 289.403 75.0059 289.405Z" fill="#0641F3"/>
<path d="M75.5135 289.459C75.4359 289.599 75.2471 289.644 75.154 289.659L75.1503 289.64C75.3445 289.625 75.4707 289.534 75.5135 289.459C75.5149 289.456 75.5162 289.454 75.5175 289.451C75.5162 289.454 75.5149 289.456 75.5135 289.459Z" fill="#0641F3"/>
<path d="M75.5432 289.763C75.4355 289.966 75.1821 290.037 75.0574 290.06L75.053 290.034C75.3127 290.007 75.4838 289.873 75.5432 289.763C75.5451 289.759 75.5469 289.756 75.5486 289.752C75.5469 289.756 75.5451 289.759 75.5432 289.763Z" fill="#0641F3"/>
<path d="M52.7049 252H58.8716L72.887 295.728H38.6895L52.7049 252Z" fill="white"/>
<path d="M72.8868 295.728H38.6895L41.7442 286.197H69.8321L72.8868 295.728ZM68.2149 281.152H43.3614L45.4278 274.705H66.1485L68.2149 281.152ZM64.5313 269.659H47.045L52.7051 252H58.8712L64.5313 269.659Z" fill="#334680"/>
<rect x="30" y="295.728" width="51.5765" height="3.9243" fill="#334680"/>
<path d="M72.8868 295.727H38.6895L40.0372 291.523H71.5391L72.8868 295.727Z" fill="black" fill-opacity="0.2"/>
<mask id="mask0_118_1489" style="mask-type:alpha" maskUnits="userSpaceOnUse" x="30" y="252" width="52" height="48">
<path d="M72.8868 295.728H38.6895L41.7442 286.197H69.8321L72.8868 295.728ZM68.2149 281.152H43.3614L45.4278 274.705H66.1485L68.2149 281.152ZM64.5313 269.659H47.045L52.7051 252H58.8712L64.5313 269.659Z" fill="#2F63FF"/>
<rect x="30" y="295.728" width="51.5765" height="3.9243" fill="#2F63FF"/>
<path d="M72.8868 295.727H38.6895L40.0372 291.523H71.5391L72.8868 295.727Z" fill="black" fill-opacity="0.2"/>
</mask>
<g mask="url(#mask0_118_1489)">
<circle cx="23.2726" cy="241.348" r="52.4174" fill="white" fill-opacity="0.2"/>
</g>
<rect x="99.2143" y="165" width="5.64286" height="134" fill="#20242E"/>
<rect x="94" y="165" width="8" height="134" fill="#334680"/>
<rect x="207.143" y="165" width="5.64286" height="134" fill="#20242E"/>
<rect x="202" y="165" width="8" height="134" fill="#334680"/>
<rect x="74" y="176" width="158" height="22.5714" fill="#334680"/>
<path d="M75.1885 198.571H74V176H84.0977L75.1885 198.571ZM105.096 198.571H88.167L97.0762 176H114.005L105.096 198.571ZM135.003 198.571H118.074L126.983 176H143.912L135.003 198.571ZM164.909 198.571H147.981L156.891 176H173.819L164.909 198.571ZM194.816 198.571H177.889L186.798 176H203.727L194.816 198.571ZM232 180.137L224.724 198.571H207.795L216.705 176H232V180.137Z" fill="white"/>
<path opacity="0.2" d="M184.223 198.571H136.22L149.252 176H171.191L184.223 198.571Z" fill="#20242E"/>
<rect opacity="0.2" x="74" y="176" width="158" height="2.39" fill="#20242E"/>
<rect x="74" y="217" width="158" height="22.5714" fill="#334680"/>
<path d="M75.1885 239.571H74V217H84.0977L75.1885 239.571ZM105.096 239.571H88.167L97.0762 217H114.005L105.096 239.571ZM135.003 239.571H118.074L126.983 217H143.912L135.003 239.571ZM164.909 239.571H147.981L156.891 217H173.819L164.909 239.571ZM194.816 239.571H177.889L186.798 217H203.727L194.816 239.571ZM232 221.137L224.724 239.571H207.795L216.705 217H232V221.137Z" fill="white"/>
<path opacity="0.2" d="M199.064 224.009C202.226 229.486 198.273 236.332 191.949 236.332H126.493C120.169 236.332 116.217 229.486 119.379 224.009L123.426 217H195.017L199.064 224.009Z" fill="#20242E"/>
<rect opacity="0.2" x="74" y="217" width="158" height="2.39" fill="#20242E"/>
<path d="M146.656 163.872C149.818 158.395 157.723 158.395 160.885 163.872L193.613 220.558C196.775 226.035 192.822 232.881 186.498 232.881H121.043C114.719 232.881 110.766 226.035 113.928 220.558L146.656 163.872Z" fill="#395382"/>
<path d="M146.643 163.21C149.122 158.916 155.321 158.916 157.8 163.21L190.527 219.896C193.007 224.19 189.907 229.557 184.949 229.558H119.494C114.536 229.558 111.436 224.19 113.915 219.896L146.643 163.21Z" fill="white" stroke="#334680" stroke-width="3.54812"/>
<path d="M143.73 217.7V214.25H142.05V209.39H138.12V214.25H134.13L140.04 200.3H136.11L130.2 214.25V217.7H138.12V221H142.05V217.7H143.73ZM147.795 219.56C148.815 220.76 150.375 221.33 152.475 221.33C154.575 221.33 156.105 220.73 157.125 219.53C158.145 218.33 158.655 216.56 158.655 214.19V206.87C158.655 204.59 158.145 202.88 157.125 201.71C156.105 200.57 154.575 199.97 152.475 199.97C150.435 199.97 148.905 200.57 147.855 201.74C146.805 202.91 146.295 204.62 146.295 206.87V214.19C146.295 216.59 146.775 218.36 147.795 219.56ZM154.245 217.01C153.945 217.61 153.345 217.91 152.475 217.91C151.605 217.91 151.005 217.61 150.705 217.01C150.405 216.41 150.255 215.36 150.255 213.86V207.44C150.255 205.97 150.405 204.92 150.705 204.32C151.005 203.72 151.575 203.42 152.475 203.42C153.345 203.42 153.945 203.72 154.245 204.32C154.545 204.92 154.725 205.97 154.725 207.44V213.86C154.725 215.36 154.545 216.41 154.245 217.01ZM163.087 219.95C164.167 220.88 165.667 221.33 167.617 221.33C168.787 221.33 169.837 221.09 170.797 220.61C171.727 220.13 172.447 219.41 172.987 218.51C173.497 217.61 173.767 216.56 173.767 215.33V214.76C173.767 213.62 173.527 212.63 173.047 211.79C172.567 210.98 171.907 210.38 171.007 209.99C171.787 209.57 172.387 209.03 172.807 208.31C173.227 207.59 173.437 206.78 173.437 205.88V205.43C173.437 203.78 172.897 202.46 171.877 201.47C170.827 200.48 169.387 199.97 167.587 199.97C165.727 199.97 164.257 200.48 163.207 201.44C162.157 202.4 161.647 203.75 161.647 205.49V206H165.247V205.49C165.247 204.83 165.427 204.29 165.817 203.9C166.177 203.51 166.717 203.3 167.437 203.3C168.097 203.3 168.637 203.54 169.027 203.96C169.417 204.38 169.627 204.98 169.627 205.73V206.18C169.627 206.96 169.417 207.59 168.997 208.01C168.577 208.46 167.977 208.67 167.227 208.67H166.207V212H167.257C168.127 212 168.787 212.24 169.267 212.72C169.717 213.2 169.957 213.89 169.957 214.79V215.33C169.957 216.17 169.717 216.8 169.297 217.28C168.877 217.76 168.277 218 167.557 218C166.777 218 166.177 217.82 165.757 217.46C165.337 217.1 165.157 216.53 165.157 215.81V215.36H161.497V215.99C161.497 217.7 162.007 219.02 163.087 219.95Z" fill="#334680"/>
<path d="M150.92 186.902H153.66L154.352 177.801L154.485 173.836H150.095L150.228 177.801L150.92 186.902ZM152.303 194.007C153.634 194.007 154.645 193.022 154.645 191.638C154.645 190.255 153.634 189.297 152.303 189.297C150.946 189.297 149.935 190.255 149.935 191.638C149.935 193.022 150.92 194.007 152.303 194.007Z" fill="#334680"/>
<path d="M8 299H295.702V301.185H8V299Z" fill="#010101"/>
</svg>
