<svg width="408" height="408" viewBox="0 0 408 408" fill="none" xmlns="http://www.w3.org/2000/svg">
<g clip-path="url(#clip0_1_1779)">
<path d="M48.5233 359.519H336.225V361.704H48.5233V359.519Z" fill="#010101"/>
<path d="M39.3972 183.918C28.7992 239.306 68.1964 286.556 152.603 286.21C237.009 285.864 183.439 354.885 253.917 359.198C324.395 363.512 358.755 320.367 350.016 224.588C341.277 128.81 339.729 16.4443 194.485 52.0118C102.873 74.4502 49.3279 132.033 39.3972 183.918Z" fill="#E7EBEF"/>
<path d="M98.0549 300.857C124.221 294.496 175.658 289.143 192.127 313.588C208.597 338.033 192.219 346.986 162.59 335.181C132.96 323.376 61.9222 309.636 98.0549 300.857Z" fill="#E7EBEF"/>
<path d="M122.042 131.529V119.775H141.531V63.6079H146.904V119.775H167.901V131.529H179.151V367.041H98.0396V131.529H122.042Z" fill="#C6D0DB"/>
<path d="M98.0447 131.529H109.289V343.381H98.0447V131.529Z" fill="#ABB7C2"/>
<path d="M138.598 187.63H219.704V367.041H138.598V187.63Z" fill="#C6D0DB"/>
<path d="M138.598 187.63H149.843V367.041H138.598V187.63ZM196.746 195.275H208.383V200.102H196.746V195.275ZM177.155 195.275H188.792V200.102H177.155V195.275ZM196.746 212.86H208.383V217.688H196.746V212.86ZM177.155 212.86H188.792V217.688H177.155V212.86ZM157.558 212.86H169.195V217.688H157.558V212.86ZM196.746 230.45H208.383V235.278H196.746V230.45ZM157.558 230.45H169.195V235.278H157.558V230.45ZM177.155 239.245H188.792V244.073H177.155V239.245ZM196.746 248.035H208.383V252.863H196.746V248.035ZM177.155 256.83H188.792V261.663H177.155V256.83ZM196.746 265.625H208.383V270.453H196.746V265.625ZM157.558 265.625H169.195V270.453H157.558V265.625ZM196.746 281.876H208.383V286.704H196.746V281.876ZM177.155 281.876H188.792V286.704H177.155V281.876ZM196.746 299.466H208.383V304.294H196.746V299.466ZM177.155 299.466H188.792V304.294H177.155V299.466ZM157.558 299.466H169.195V304.294H157.558V299.466ZM196.746 317.056H208.383V321.884H196.746V317.056ZM157.558 317.056H169.195V321.884H157.558V317.056ZM177.155 325.846H188.792V330.674H177.155V325.846ZM157.558 325.846H169.195V330.674H157.558V325.846ZM196.746 334.641H208.383V339.469H196.746V334.641ZM177.155 343.437H188.792V348.264H177.155V343.437ZM196.746 352.232H208.383V357.065H196.746V352.232ZM157.558 352.232H169.195V357.065H157.558V352.232Z" fill="#ABB7C2"/>
<path d="M332.66 187.63H413.767V367.041H332.66V187.63Z" fill="#C6D0DB"/>
<path d="M332.66 187.63H343.905V367.041H332.66V187.63Z" fill="#ABB7C2"/>
<path d="M217.443 102.297H326.269V367.041H217.443V102.297Z" fill="#C6D0DB"/>
<path d="M217.443 102.297H228.688V367.041H217.443V102.297ZM297.811 114.973H314.805V122.026H297.811V114.973ZM269.195 114.973H286.19V122.026H269.195V114.973ZM297.811 140.66H314.805V147.714H297.811V140.66ZM269.195 140.66H286.19V147.714H269.195V140.66ZM240.579 140.66H257.574V147.714H240.579V140.66ZM297.811 166.343H314.805V173.396H297.811V166.343ZM240.579 166.343H257.574V173.396H240.579V166.343ZM269.195 179.182H286.19V186.235H269.195V179.182ZM297.811 192.025H314.805V199.079H297.811V192.025ZM269.195 204.864H286.19V211.918H269.195V204.864ZM297.811 217.708H314.805V224.761H297.811V217.708ZM240.579 217.708H257.574V224.761H240.579V217.708ZM297.811 241.445H314.805V248.498H297.811V241.445ZM269.195 241.445H286.19V248.498H269.195V241.445ZM297.811 267.128H314.805V274.181H297.811V267.128ZM269.195 267.128H286.19V274.181H269.195V267.128ZM240.579 267.128H257.574V274.181H240.579V267.128ZM297.811 292.81H314.805V299.863H297.811V292.81ZM240.579 292.81H257.574V299.863H240.579V292.81ZM269.195 305.649H286.19V312.702H269.195V305.649ZM240.579 305.649H257.574V312.702H240.579V305.649ZM297.811 318.493H314.805V325.546H297.811V318.493ZM269.195 331.331H286.19V338.385H269.195V331.331ZM297.811 344.175H314.805V351.228H297.811V344.175ZM240.579 344.175H257.574V351.228H240.579V344.175Z" fill="#ABB7C2"/>
<path d="M388.538 122.026H495.194V367.041H388.538V122.026Z" fill="#C6D0DB"/>
<path d="M388.538 122.026H399.558V367.041H388.538V122.026Z" fill="#ABB7C2"/>
<path d="M43.8482 199.924H112.544V367.041H43.8482V199.924Z" fill="#C6D0DB"/>
<path d="M43.8482 199.924H50.9474V367.041H43.8482V199.924ZM94.5766 207.93H105.307V212.381H94.5766V207.93ZM76.5128 207.93H87.2431V212.381H76.5128V207.93ZM94.5766 224.14H105.307V228.591H94.5766V224.14ZM76.5128 224.14H87.2431V228.591H76.5128V224.14ZM58.449 224.14H69.1793V228.591H58.449V224.14ZM94.5766 240.355H105.307V244.806H94.5766V240.355ZM58.449 240.355H69.1793V244.806H58.449V240.355ZM76.5128 248.458H87.2431V252.909H76.5128V248.458ZM94.5766 256.565H105.307V261.016H94.5766V256.565ZM76.5128 264.673H87.2431V269.124H76.5128V264.673ZM94.5766 272.775H105.307V277.226H94.5766V272.775ZM58.449 272.775H69.1793V277.226H58.449V272.775ZM94.5766 287.758H105.307V292.209H94.5766V287.758ZM76.5128 287.758H87.2431V292.209H76.5128V287.758ZM94.5766 303.968H105.307V308.419H94.5766V303.968ZM76.5128 303.968H87.2431V308.419H76.5128V303.968ZM58.449 303.968H69.1793V308.419H58.449V303.968ZM94.5766 320.183H105.307V324.634H94.5766V320.183ZM58.449 320.183H69.1793V324.634H58.449V320.183ZM76.5128 328.291H87.2431V332.742H76.5128V328.291ZM58.449 328.291H69.1793V332.742H58.449V328.291ZM94.5766 336.393H105.307V340.844H94.5766V336.393ZM76.5128 344.501H87.2431V348.952H76.5128V344.501ZM94.5766 352.609H105.307V357.06H94.5766V352.609ZM58.449 352.609H69.1793V357.06H58.449V352.609Z" fill="#ABB7C2"/>
<path opacity="0.35" d="M0.804626 21.0634H291.924V352.985H0.804626V21.0634Z" fill="white"/>
<path opacity="0.5" d="M101.029 346.996H78.4327L199.552 24.8626H222.149L101.029 346.996ZM61.1328 346.996H49.8372L170.957 24.8626H182.253L61.1328 346.996ZM196.023 346.996H184.728L288.568 59.4471V82.6138L196.023 346.996Z" fill="white"/>
<path opacity="0.35" d="M293.452 14.4938H584.571V346.421H293.452V14.4938Z" fill="white"/>
<path opacity="0.5" d="M341.598 346.996H319.007L440.127 24.8626H462.718L341.598 346.996ZM301.702 346.996H290.406L411.526 24.8626H422.822L301.702 346.996Z" fill="white"/>
<path d="M596.712 80.9332V77.1392H586.257V17.2693H-2.3783V24.8626H3.96212V27.5413H191.7V77.1392H-2.3783V80.9332H191.7V178.413H-2.3783V182.207H191.7V279.681H-2.3783V283.48H191.7V346.996H4.02323V349.191H-2.3783V357.976H586.252V283.48H596.707V279.681H586.252V182.207H596.707V178.413H586.252V80.9332H596.712ZM295.137 182.207H385.788V279.681H295.137V182.207ZM295.137 178.413V80.9332H385.788V178.413H295.137ZM295.137 77.1392V27.5413H385.788V77.1392H295.137ZM295.137 283.48H385.788V346.996H295.137V349.191H295.107L295.137 283.48ZM392.174 346.996V283.48H482.824V346.996H392.174ZM392.174 279.681V182.207H482.824V279.681H392.174ZM392.174 178.413V80.9332H482.824V178.413H392.174ZM392.174 77.1392V27.5413H482.824V77.1392H392.174ZM489.215 27.5413H579.865V77.1392H489.215V27.5413ZM198.07 27.5413H288.756V77.1392H198.106L198.07 27.5413ZM198.07 80.9332H288.756V178.413H198.106L198.07 80.9332ZM198.07 182.207H288.756V279.681H198.106L198.07 182.207ZM198.07 283.48H288.756V349.176H288.721V346.981H198.07V283.48ZM579.886 349.176H579.85V346.981H489.2V283.48H579.85L579.886 349.176ZM579.886 279.666H489.236V182.207H579.886V279.666ZM579.886 178.397H489.236V80.9332H579.886V178.397Z" fill="white"/>
<path d="M103.762 86.8192L248.445 86.5414L248.94 344.42L104.257 344.698L103.762 86.8192Z" fill="white"/>
<path d="M129.064 114.998C129.064 111.498 130.003 108.758 131.881 106.779C132.815 105.797 133.946 105.025 135.201 104.513C136.455 104.002 137.804 103.762 139.158 103.81C141.007 103.783 142.827 104.266 144.419 105.205C145.965 106.122 147.205 107.476 147.984 109.096C148.828 110.861 149.249 112.798 149.216 114.754C149.252 116.742 148.809 118.709 147.923 120.488C147.123 122.113 145.843 123.452 144.256 124.323C142.696 125.181 140.943 125.627 139.163 125.622C137.29 125.652 135.445 125.154 133.841 124.186C132.294 123.254 131.055 121.889 130.276 120.259C129.474 118.622 129.06 116.822 129.064 114.998ZM131.937 115.039C131.937 117.582 132.616 119.583 133.974 121.043C134.64 121.742 135.44 122.298 136.328 122.678C137.215 123.058 138.17 123.254 139.135 123.254C140.1 123.254 141.056 123.058 141.943 122.678C142.83 122.298 143.631 121.742 144.297 121.043C145.655 119.566 146.334 117.472 146.334 114.759C146.37 113.217 146.075 111.685 145.468 110.267C144.936 109.042 144.049 108.004 142.922 107.288C141.797 106.581 140.492 106.213 139.163 106.229C138.222 106.215 137.287 106.388 136.413 106.738C135.539 107.088 134.743 107.607 134.071 108.266C132.648 109.607 131.937 111.865 131.937 115.039Z" fill="white"/>
<path d="M151.523 117.641C151.523 114.813 152.309 112.72 153.881 111.362C155.216 110.219 156.927 109.613 158.684 109.661C159.636 109.624 160.586 109.786 161.473 110.137C162.359 110.488 163.163 111.02 163.832 111.698C165.163 113.08 165.829 114.981 165.829 117.402C165.829 119.368 165.538 120.911 164.948 122.042C164.37 123.154 163.472 124.067 162.371 124.664C161.242 125.287 159.972 125.608 158.684 125.596C157.725 125.638 156.768 125.478 155.875 125.127C154.983 124.776 154.173 124.242 153.499 123.559C152.178 122.188 151.52 120.215 151.523 117.641ZM154.182 117.641C154.182 119.597 154.609 121.062 155.465 122.036C155.865 122.496 156.358 122.865 156.913 123.118C157.467 123.37 158.069 123.501 158.678 123.501C159.288 123.501 159.89 123.37 160.444 123.118C160.999 122.865 161.492 122.496 161.892 122.036C162.741 121.059 163.167 119.567 163.17 117.56C163.17 115.676 162.741 114.246 161.882 113.272C161.482 112.815 160.988 112.448 160.435 112.197C159.882 111.946 159.281 111.816 158.673 111.816C158.066 111.816 157.465 111.946 156.912 112.197C156.358 112.448 155.865 112.815 155.465 113.272C154.609 114.219 154.182 115.676 154.182 117.641Z" fill="white"/>
<path d="M167.901 117.641C167.901 114.813 168.687 112.72 170.259 111.362C171.594 110.219 173.305 109.613 175.062 109.661C176.014 109.624 176.964 109.786 177.851 110.137C178.737 110.488 179.541 111.02 180.21 111.698C181.545 113.08 182.21 114.981 182.207 117.402C182.207 119.368 181.916 120.911 181.326 122.042C180.749 123.155 179.852 124.069 178.749 124.664C177.62 125.287 176.35 125.608 175.062 125.596C174.103 125.638 173.147 125.478 172.254 125.127C171.361 124.776 170.551 124.242 169.877 123.559C168.56 122.188 167.901 120.215 167.901 117.641ZM170.56 117.641C170.56 119.597 170.987 121.062 171.843 122.036C172.243 122.496 172.736 122.865 173.291 123.118C173.845 123.37 174.447 123.501 175.057 123.501C175.666 123.501 176.268 123.37 176.822 123.118C177.377 122.865 177.87 122.496 178.27 122.036C179.122 121.059 179.548 119.567 179.548 117.56C179.548 115.676 179.119 114.246 178.26 113.272C177.86 112.815 177.367 112.448 176.813 112.197C176.26 111.946 175.659 111.816 175.051 111.816C174.444 111.816 173.843 111.946 173.29 112.197C172.736 112.448 172.243 112.815 171.843 113.272C170.987 114.219 170.56 115.676 170.56 117.641Z" fill="white"/>
<path d="M185.242 131.117V110.002H187.6V111.989C188.089 111.272 188.733 110.675 189.484 110.242C190.268 109.83 191.145 109.628 192.031 109.656C193.258 109.636 194.463 109.992 195.483 110.675C196.501 111.377 197.287 112.366 197.739 113.516C198.255 114.793 198.513 116.158 198.498 117.534C198.521 118.984 198.235 120.421 197.658 121.751C197.155 122.937 196.302 123.94 195.213 124.629C194.21 125.284 193.04 125.637 191.842 125.647C191.035 125.662 190.237 125.474 189.52 125.102C188.867 124.764 188.291 124.294 187.829 123.722V131.157L185.242 131.117ZM187.585 117.713C187.585 119.679 187.984 121.132 188.781 122.072C189.124 122.511 189.562 122.867 190.062 123.111C190.563 123.356 191.112 123.483 191.669 123.483C192.241 123.48 192.805 123.347 193.317 123.094C193.83 122.841 194.278 122.474 194.628 122.021C195.443 121.048 195.855 119.541 195.855 117.499C195.855 115.553 195.455 114.097 194.653 113.129C194.32 112.682 193.888 112.318 193.39 112.065C192.893 111.813 192.344 111.678 191.786 111.673C191.214 111.686 190.652 111.831 190.144 112.096C189.636 112.361 189.196 112.739 188.858 113.201C188.012 114.25 187.585 115.747 187.585 117.713Z" fill="white"/>
<path d="M200.586 120.697L203.133 120.295C203.22 121.205 203.65 122.047 204.335 122.653C205.128 123.242 206.103 123.533 207.09 123.473C208.029 123.545 208.963 123.287 209.733 122.744C209.997 122.545 210.213 122.287 210.363 121.991C210.513 121.696 210.593 121.37 210.599 121.038C210.604 120.761 210.536 120.488 210.402 120.246C210.268 120.003 210.072 119.801 209.835 119.658C208.993 119.259 208.105 118.965 207.192 118.782C205.842 118.483 204.522 118.067 203.245 117.54C202.558 117.23 201.977 116.725 201.574 116.088C201.199 115.475 201.002 114.77 201.004 114.051C201 113.392 201.161 112.743 201.472 112.162C201.78 111.588 202.216 111.093 202.746 110.715C203.248 110.374 203.804 110.12 204.391 109.962C205.119 109.752 205.873 109.647 206.631 109.651C207.704 109.627 208.773 109.8 209.784 110.16C210.573 110.425 211.27 110.911 211.79 111.561C212.268 112.27 212.573 113.081 212.681 113.929L210.135 114.27C210.051 113.547 209.685 112.886 209.117 112.432C208.435 111.952 207.611 111.719 206.779 111.77C205.591 111.77 204.742 111.966 204.233 112.36C204.006 112.514 203.819 112.719 203.687 112.959C203.555 113.199 203.482 113.467 203.474 113.74C203.47 114.07 203.582 114.391 203.79 114.647C204.05 114.964 204.394 115.202 204.783 115.334C205.042 115.431 205.801 115.655 207.069 115.996C208.37 116.317 209.649 116.718 210.899 117.198C211.586 117.479 212.178 117.951 212.605 118.558C213.034 119.215 213.25 119.989 213.221 120.773C213.22 121.642 212.958 122.49 212.468 123.208C211.931 124 211.173 124.616 210.288 124.98C209.27 125.407 208.174 125.619 207.069 125.601C205.083 125.601 203.571 125.191 202.532 124.369C201.448 123.43 200.754 122.121 200.586 120.697Z" fill="white"/>
<path d="M217.076 125.28V122.332H220.005V125.28H217.076Z" fill="white"/>
<path d="M225.26 125.28V122.332H228.209V125.28H225.26Z" fill="white"/>
<path d="M233.444 125.28V122.332H236.388V125.28H233.444Z" fill="white"/>
<path d="M143.879 315.498V305.674H123.89V297.719L144.964 266.944H152.46V297.923H158.521V305.674H152.46V315.498H143.879ZM131.962 297.923H143.879V280.211L131.962 297.923Z" fill="white"/>
<path d="M179.049 316.333C176.873 316.39 174.715 315.931 172.75 314.995C170.785 314.059 169.07 312.671 167.743 310.945C164.881 307.355 163.43 300.831 163.43 291.557C163.43 282.462 165.029 275.831 168.176 271.848C170.758 268.594 174.415 266.944 179.049 266.944C183.684 266.944 187.35 268.62 189.953 271.915C193.08 275.851 194.663 282.492 194.663 291.654C194.663 300.816 193.069 307.441 189.917 311.429C187.335 314.683 183.679 316.333 179.049 316.333V316.333ZM179.049 274.227C177.888 274.218 176.76 274.62 175.866 275.362C174.939 276.116 174.216 277.461 173.717 279.37C173.076 281.795 172.744 285.93 172.744 291.654C172.744 297.378 173.04 301.376 173.62 303.525C174.201 305.674 174.955 307.182 175.882 307.93C176.779 308.66 177.9 309.059 179.057 309.059C180.214 309.059 181.335 308.66 182.232 307.93C183.154 307.182 183.877 305.832 184.376 303.922C185.023 301.519 185.349 297.393 185.349 291.669C185.349 285.945 185.054 281.952 184.473 279.798C183.892 277.644 183.139 276.142 182.217 275.378C181.331 274.63 180.208 274.222 179.049 274.227V274.227Z" fill="white"/>
<path d="M219.76 315.498V305.674H199.771V297.719L220.845 266.944H228.347V297.923H234.407V305.674H228.347V315.498H219.76ZM207.849 297.923H219.76V280.211L207.849 297.923Z" fill="white"/>
<path d="M97.897 95.2641L97.9429 340.656C97.9414 345.327 99.7148 349.824 102.904 353.236C106.093 356.649 110.46 358.722 115.121 359.036C115.533 359.071 115.956 359.081 116.373 359.081L245.01 359.056C246.576 359.056 248.127 358.747 249.573 358.148C251.02 357.548 252.335 356.67 253.442 355.562C254.549 354.455 255.427 353.14 256.026 351.693C256.625 350.246 256.933 348.695 256.932 347.129L256.891 88.7404C256.889 85.5766 255.631 82.5431 253.393 80.306C251.156 78.0689 248.123 76.8109 244.959 76.8082H116.338C115.91 76.8082 115.482 76.8082 115.065 76.8489C110.402 77.1716 106.036 79.2525 102.849 82.671C99.6624 86.0895 97.8923 90.5905 97.897 95.2641ZM108.984 100.387C108.983 98.82 109.291 97.2678 109.891 95.8196C110.49 94.3713 111.369 93.0553 112.477 91.9467C113.585 90.8382 114.901 89.9588 116.349 89.3589C117.797 88.7589 119.349 88.4501 120.916 88.4501H233.867C237.031 88.4514 240.066 89.709 242.303 91.9464C244.54 94.1839 245.798 97.2181 245.799 100.382L245.835 323.443C245.836 325.009 245.529 326.561 244.93 328.009C244.332 329.457 243.454 330.773 242.347 331.881C241.24 332.99 239.925 333.869 238.478 334.47C237.031 335.07 235.48 335.379 233.913 335.38H120.967C117.8 335.38 114.763 334.123 112.522 331.884C110.282 329.646 109.022 326.61 109.02 323.443L108.984 100.387Z" fill="#ABB7C2"/>
<path d="M162.345 352.756L193.008 352.695C193.739 352.694 194.463 352.548 195.138 352.267C195.813 351.986 196.425 351.575 196.941 351.058C197.457 350.54 197.866 349.925 198.145 349.249C198.423 348.574 198.566 347.85 198.565 347.119C198.562 345.647 197.976 344.236 196.936 343.195C195.896 342.153 194.485 341.566 193.013 341.562L162.345 341.624C161.612 341.626 160.887 341.772 160.211 342.055C159.535 342.338 158.921 342.751 158.405 343.272C157.889 343.792 157.48 344.409 157.203 345.088C156.926 345.766 156.785 346.493 156.789 347.226C156.8 348.693 157.389 350.098 158.43 351.133C159.47 352.169 160.877 352.752 162.345 352.756Z" fill="#010101"/>
<path d="M137.228 168.38V145.855H144.526C147.291 145.855 149.109 145.972 149.934 146.196C151.235 146.538 152.378 147.317 153.173 148.401C154.09 149.674 154.551 151.219 154.482 152.786C154.522 153.993 154.263 155.192 153.728 156.275C153.278 157.157 152.623 157.918 151.819 158.495C151.109 159.002 150.306 159.364 149.456 159.559C147.897 159.811 146.318 159.92 144.74 159.885H141.776V168.38H137.228ZM141.776 149.669V156.056H144.266C146.059 156.056 147.257 155.939 147.862 155.704C148.437 155.49 148.933 155.105 149.282 154.599C149.627 154.081 149.804 153.469 149.792 152.847C149.823 152.1 149.564 151.37 149.068 150.81C148.594 150.271 147.948 149.912 147.24 149.792C146.156 149.66 145.063 149.609 143.971 149.639L141.776 149.669Z" fill="white"/>
<path d="M176.208 168.38H171.263L169.297 163.262H160.272L158.414 168.38H153.591L162.36 145.855H167.173L176.208 168.38ZM167.835 159.468L164.734 151.111L161.678 159.468H167.835Z" fill="white"/>
<path d="M189.077 160.099V156.305H198.88V165.274C197.674 166.352 196.267 167.181 194.74 167.713C192.991 168.4 191.129 168.756 189.25 168.762C187.102 168.813 184.978 168.302 183.088 167.28C181.358 166.319 179.977 164.836 179.141 163.043C178.251 161.169 177.799 159.118 177.817 157.044C177.777 154.868 178.284 152.718 179.294 150.79C180.263 148.978 181.77 147.512 183.607 146.593C185.29 145.794 187.139 145.41 189 145.473C191.798 145.473 193.983 146.06 195.555 147.235C197.143 148.417 198.233 150.15 198.61 152.094L194.093 152.939C193.81 151.888 193.178 150.965 192.3 150.321C191.34 149.653 190.189 149.316 189.021 149.359C188.142 149.318 187.265 149.465 186.448 149.791C185.631 150.117 184.893 150.614 184.285 151.248C183.11 152.511 182.522 154.379 182.522 156.85C182.522 159.526 183.117 161.53 184.305 162.865C184.887 163.524 185.607 164.045 186.415 164.392C187.222 164.739 188.097 164.903 188.975 164.871C189.957 164.865 190.93 164.675 191.842 164.311C192.717 163.983 193.541 163.53 194.287 162.967V160.11L189.077 160.099Z" fill="white"/>
<path d="M203.077 168.38V145.855H219.776V149.669H207.619V154.66H218.93V158.454H207.619V164.566H220.203V168.36L203.077 168.38Z" fill="white"/>
<path d="M147.485 203.657V181.137H151.91L161.128 196.176V181.137H165.35V203.657H160.766L151.686 188.97V203.657H147.485Z" fill="white"/>
<path d="M169.236 192.535C169.175 190.56 169.522 188.594 170.254 186.76C170.767 185.615 171.477 184.571 172.352 183.673C173.175 182.804 174.166 182.111 175.265 181.636C176.807 181.017 178.458 180.714 180.119 180.745C183.439 180.745 186.094 181.776 188.084 183.836C190.073 185.897 191.07 188.759 191.073 192.423C191.073 196.059 190.085 198.904 188.109 200.958C186.133 203.012 183.49 204.039 180.18 204.039C176.836 204.039 174.172 203.021 172.189 200.983C170.207 198.946 169.222 196.13 169.236 192.535ZM173.921 192.382C173.921 194.932 174.51 196.865 175.688 198.183C176.258 198.801 176.95 199.295 177.721 199.633C178.491 199.971 179.323 200.145 180.165 200.145C181.006 200.145 181.838 199.971 182.609 199.633C183.379 199.295 184.071 198.801 184.641 198.183C185.802 196.875 186.383 194.916 186.383 192.306C186.383 189.695 185.817 187.77 184.687 186.53C184.1 185.925 183.397 185.443 182.62 185.115C181.843 184.786 181.008 184.616 180.165 184.616C179.321 184.616 178.486 184.786 177.709 185.115C176.932 185.443 176.23 185.925 175.642 186.53C174.498 187.844 173.924 189.795 173.921 192.382Z" fill="white"/>
<path d="M199.7 203.657V184.947H193.013V181.137H210.909V184.947H204.248V203.657H199.7Z" fill="white"/>
<path d="M129.115 238.934V216.44H144.556V220.249H133.663V225.556H143.069V229.365H133.663V238.934H129.115Z" fill="white"/>
<path d="M172.75 216.44H177.292V228.611C177.256 229.869 177.314 231.127 177.465 232.375C177.636 233.262 178.132 234.054 178.856 234.595C179.735 235.2 180.79 235.496 181.855 235.436C182.892 235.51 183.922 235.23 184.779 234.641C185.401 234.165 185.823 233.473 185.96 232.701C186.122 231.433 186.188 230.154 186.159 228.876V216.44H190.706V228.27C190.764 230.187 190.642 232.106 190.34 234C190.127 235.039 189.66 236.01 188.98 236.826C188.253 237.639 187.344 238.269 186.327 238.664C184.94 239.165 183.471 239.397 181.998 239.347C179.842 239.347 178.211 239.099 177.104 238.603C176.085 238.172 175.181 237.508 174.466 236.663C173.857 235.939 173.421 235.086 173.193 234.168C172.846 232.284 172.698 230.368 172.75 228.454V216.44Z" fill="white"/>
<path d="M195.56 238.934V216.44H199.985L209.203 231.479V216.44H213.43V238.96H208.847L199.766 224.272V238.96L195.56 238.934Z" fill="white"/>
<path d="M218.207 216.44H226.518C227.959 216.391 229.4 216.537 230.801 216.873C232.1 217.245 233.273 217.961 234.198 218.946C235.171 219.99 235.905 221.235 236.347 222.592C236.881 224.314 237.131 226.111 237.086 227.914C237.12 229.54 236.887 231.16 236.398 232.711C235.918 234.209 235.091 235.571 233.984 236.688C233.074 237.528 231.981 238.143 230.791 238.486C229.479 238.841 228.121 239 226.763 238.96H218.207V216.44ZM222.755 220.249V235.166H226.147C227.07 235.196 227.994 235.125 228.902 234.952C229.581 234.797 230.212 234.475 230.735 234.015C231.315 233.406 231.726 232.657 231.927 231.84C232.273 230.494 232.427 229.105 232.385 227.715C232.434 226.364 232.279 225.013 231.927 223.707C231.684 222.884 231.239 222.135 230.633 221.527C230.045 220.985 229.316 220.618 228.53 220.468C227.295 220.279 226.045 220.206 224.797 220.249H222.755Z" fill="white"/>
<path d="M241.637 272.684L248.361 274.041L230.582 362.135L223.858 360.778L241.637 272.684Z" fill="#010101"/>
<path d="M272.434 360.777L265.71 362.134L247.931 274.039L254.655 272.682L272.434 360.777Z" fill="#010101"/>
<path d="M115.563 272.683L122.287 274.04L104.508 362.135L97.7838 360.778L115.563 272.683Z" fill="#010101"/>
<path d="M146.358 360.782L139.633 362.139L121.854 274.044L128.579 272.687L146.358 360.782Z" fill="#010101"/>
<path d="M260.808 251.238H261.062V266.73H260.808V251.238ZM105.567 249.155H258.317V274.492H105.567V249.155Z" fill="#010101"/>
<path d="M260.935 251.238H108.184V274.705H260.935V251.238Z" fill="white"/>
<path d="M261.062 274.833H108.057V251.111H260.935V251.366H108.312V274.578H260.807V266.73H261.062V274.833Z" fill="#010101"/>
<path d="M208.786 251.233L197.958 274.705H183.067L193.894 251.233H208.786ZM179.136 251.233L168.309 274.705H153.423L164.25 251.233H179.136ZM149.491 251.233L138.664 274.705H123.778L134.605 251.233H149.491ZM119.841 251.233L109.014 274.705H108.189V251.233H119.841ZM260.935 251.238H253.184L242.362 274.705H257.248L260.935 266.73V251.238ZM238.43 251.233L227.603 274.705H212.712L223.544 251.233H238.43ZM103.005 356.387H57.5883L58.342 353.591L61.7999 340.758L65.0032 328.846L68.0741 317.459L71.4659 304.849L73.8442 296.018L75.4891 289.912H85.15L86.7847 296.018L89.1579 304.849L92.5497 317.459L95.6053 328.846L98.8086 340.758L102.256 353.591L103.005 356.387Z" fill="#395382"/>
<path d="M75.4891 289.851H85.15V289.973H75.4891V289.851ZM50.596 353.591H109.666V359.514H50.596V353.591Z" fill="#010101"/>
<path d="M71.4659 304.763L73.9257 296.039L86.7847 296.1L89.051 304.763H71.4659Z" fill="white"/>
<path d="M86.6574 296.187L88.9389 304.676H71.69L73.9766 296.187H86.6574ZM86.7847 296.018H73.8442L71.4659 304.849H89.1579L86.7847 296.018Z" fill="#010101"/>
<path d="M65.0033 328.765L68.1556 317.479L92.5497 317.54L95.4984 328.765H65.0033Z" fill="white"/>
<path d="M92.4173 317.627L95.3863 328.678H65.2274L68.2015 317.627H92.4173ZM92.5497 317.459H68.0742L65.0186 328.846H95.6206L92.565 317.459H92.5497Z" fill="#010101"/>
<path d="M58.4795 353.49L61.8967 340.783L98.8086 340.86L102.124 353.49H58.4795Z" fill="white"/>
<path d="M98.6508 340.962L101.986 353.388H58.612L61.9579 340.962H98.6508ZM98.8087 340.758H61.8L58.342 353.591H102.256L98.7985 340.758H98.8087ZM85.0482 289.994C85.0482 290.61 82.9296 291.109 80.312 291.109C77.6943 291.109 75.5757 290.6 75.5757 289.994C75.5757 289.388 77.6943 288.884 80.312 288.884C82.9296 288.884 85.0482 289.383 85.0482 289.994Z" fill="#010101"/>
<path d="M331.764 349.594C331.741 349.595 331.719 349.59 331.697 349.582C331.676 349.573 331.657 349.56 331.642 349.543C331.403 349.278 330.756 348.697 329.936 347.964C328.143 346.355 324.415 343.009 324.451 342.27C324.487 341.374 330.71 337.407 331.627 337.407C332.89 338.685 336.251 342.871 336.108 343.732C335.95 344.7 332.864 349.594 331.764 349.594Z" fill="white"/>
<path d="M331.535 337.672C332.986 339.149 335.971 342.943 335.899 343.691C335.741 344.644 332.66 349.359 331.825 349.38C331.576 349.11 330.959 348.555 330.104 347.786C328.52 346.365 324.807 343.029 324.69 342.296C324.899 341.45 330.221 338.028 331.515 337.672H331.535ZM331.652 337.162C330.817 337.162 324.283 341.089 324.237 342.255C324.191 343.421 330.633 348.758 331.494 349.701C331.531 349.742 331.577 349.775 331.628 349.798C331.679 349.821 331.734 349.833 331.79 349.833C333.078 349.833 336.21 344.74 336.373 343.763C336.551 342.683 332.808 338.252 331.723 337.183H331.652V337.162Z" fill="#010101"/>
<path d="M335.772 342.006C335.772 342.006 342.031 344.134 342.362 349.171C342.362 349.171 329.523 358.664 324.166 361.439C324.166 361.439 318.055 359.356 321.793 355.837C325.531 352.318 328.922 348.667 328.922 348.667C328.922 348.667 335.156 347.445 335.772 342.006Z" fill="#395382"/>
<path d="M263.293 351.722C261.133 351.722 256.672 350.826 255.791 349.879C255.724 349.813 255.679 349.727 255.664 349.634C255.756 347.806 256.29 342.938 257.003 342.286C257.003 342.286 257.171 342.163 257.762 342.163C260.023 342.163 265.146 343.589 265.508 343.976C265.508 345.774 264.871 351.106 264.159 351.616C263.883 351.722 263.586 351.759 263.293 351.722Z" fill="white"/>
<path d="M257.737 342.403C259.774 342.403 264.311 343.61 265.213 344.083C265.182 346.156 264.576 350.943 264.011 351.407C263.772 351.48 263.521 351.506 263.272 351.483C260.665 351.483 256.102 350.337 255.883 349.645C255.99 347.419 256.555 343.024 257.125 342.474C257.322 342.41 257.53 342.386 257.737 342.403ZM257.737 341.924C257.419 341.887 257.097 341.953 256.82 342.113C255.954 342.897 255.465 348.351 255.404 349.624C255.343 350.897 260.879 351.962 263.272 351.962C263.619 351.994 263.969 351.941 264.291 351.809C265.182 351.177 265.717 345.407 265.707 343.875C265.707 343.457 260.105 341.924 257.752 341.924H257.737Z" fill="#010101"/>
<path d="M265.126 350.159C265.126 350.159 268.009 356.107 264.658 359.881C264.658 359.881 248.87 357.421 243.146 355.557C243.146 355.557 240.32 349.731 245.458 349.955C250.597 350.179 255.587 350.001 255.587 350.001C255.587 350.001 260.823 353.546 265.126 350.159Z" fill="#395382"/>
<path d="M254.248 344.267L259.911 344.842L267.367 345.586C267.379 345.518 267.405 345.454 267.443 345.397C267.443 345.397 267.443 345.397 267.479 345.362C268.131 343.895 267.423 331.667 267.347 321.507C267.291 308.852 272.796 291.038 273.702 278.612C273.794 277.593 273.87 276.605 273.947 275.714C274.456 269.47 279.37 257.451 283.383 247.139C283.959 245.636 284.534 244.17 285.054 242.779C287.656 235.848 289.403 230.348 288.308 229.105C285.446 225.851 269.317 202.15 259.606 213.089C248.524 225.607 246.685 258.348 246.685 275.994C246.685 293.64 251.432 326.6 254.248 344.267Z" fill="#010101"/>
<path d="M259.911 344.827L267.367 345.586C267.379 345.518 267.405 345.454 267.443 345.397C267.443 345.397 267.443 345.397 267.479 345.362C268.263 344.043 267.815 335.915 269.516 320.112C270.876 307.518 272.633 291.038 273.707 278.612C273.799 277.593 273.875 276.605 273.952 275.714C274.461 269.47 279.375 257.451 283.389 247.139C283.964 245.636 284.539 244.17 285.059 242.779C284.967 242.703 284.855 242.647 284.764 242.571C284.634 242.483 284.484 242.43 284.327 242.417C284.171 242.405 284.014 242.433 283.872 242.499C281.382 239.169 276.014 235.919 273.178 240.752C271.579 243.462 273.397 246.66 273.565 249.466C273.921 255.129 270.336 260.222 268.121 265.182C260.247 282.864 266.639 302.359 264.484 320.856C263.389 330.516 259.147 334.942 259.911 344.827Z" fill="#010101"/>
<path d="M285.105 288.069C287.091 305.608 313.115 337.814 326.554 345.586C326.554 345.586 335.079 340.396 334.743 339.474C332.589 333.623 326.901 326.707 323.417 315.442C317.199 295.336 311.541 289.103 311.485 277.45C311.352 254.024 317.316 242.311 311.444 225.118C311.037 223.911 310.573 222.704 310.054 221.441C308.806 218.477 303.525 213.629 301.488 210.211C301.187 209.728 283.857 212.366 277.552 219.114C276.875 219.816 282.019 260.838 285.105 288.069Z" fill="#010101"/>
<path d="M307.508 269.216C307.416 270.402 307.34 271.594 307.304 272.78C307.1 284.356 311.093 293.976 316.298 304.106C321.502 314.235 329.391 341.231 331.117 342.642C333.047 341.624 335.079 340.396 334.743 339.485C332.589 333.633 311.541 289.113 311.485 277.461C311.353 254.034 317.316 242.321 311.444 225.128C309.107 227.603 308.419 233.623 308.119 236.016C306.767 247.032 306.562 258.158 307.508 269.216ZM312.269 152.45C310.319 152.689 305.863 153.876 303.978 150.153C303.27 148.758 303.179 146.313 303.041 144.663C302.838 142.316 302.822 139.942 302.338 137.63C301.743 134.778 300.566 131.718 298.112 129.945C294.231 127.129 286.872 129.243 284.799 133.449C284.713 133.617 284.687 133.809 284.724 133.994C284.76 134.179 284.859 134.346 285.003 134.468C285.029 134.547 285.068 134.621 285.12 134.687C287.488 137.462 290.213 137.549 291.14 142.056C291.603 144.373 290.997 146.807 291.048 149.15C291.14 153.428 292.764 158.179 296.431 160.71C302.313 164.785 312.218 159.962 313.695 153.367C313.889 152.532 312.931 152.119 312.269 152.45Z" fill="#010101"/>
<path d="M260.568 206.127C250.001 211.546 230.475 209.967 230.475 209.967L228.948 202.888C229.33 202.685 254.263 189.281 256.509 186.923C257.497 185.904 258.582 163.328 274.043 159.794C277.354 159.035 276.59 159.661 277.715 162.875C279.941 169.388 278.342 184.697 273.198 193.589C267.138 204.065 270.555 201.004 260.568 206.127Z" fill="#395382"/>
<path d="M312.575 218.64C309.423 220.351 306.028 221.567 302.507 222.246C281.627 226.422 254.335 216.318 254.335 216.318C254.335 216.318 260.314 207.273 265.33 197.724C265.839 196.848 266.262 195.977 266.705 195.086C268.915 190.701 268.431 187.819 267.092 185.257C265.274 181.728 261.836 178.83 261.617 173.457C261.24 164.189 280.97 156.443 280.97 156.443C310.584 154.681 303.581 172.047 300.755 186.113C300.495 187.391 300.271 188.659 300.123 189.846C300.088 190.106 300.067 190.386 300.047 190.645C300.011 190.997 299.991 191.333 299.976 191.664C299.476 205.526 312.575 218.64 312.575 218.64Z" fill="#395382"/>
<path d="M300.016 191.684C300.016 191.44 300.047 191.206 300.067 190.971C300.067 190.594 300.113 190.212 300.159 189.836C300.306 188.629 300.531 187.386 300.79 186.103C299.991 184.6 300.093 180.582 298.05 178.688C292.662 173.595 293.34 160.583 293.34 160.583C292.112 166.827 291.129 179.1 293.212 182.93C293.666 183.745 295.249 186.907 295.336 187.06C296.864 191.761 295.743 196.476 295.983 201.289C296.207 205.526 297.694 209.437 299.217 213.364C300.031 215.426 300.928 219.923 302.486 222.246C306.014 221.569 309.417 220.353 312.575 218.64C312.575 218.64 299.476 205.526 300.016 191.684Z" fill="#010101"/>
<path d="M278.505 160.349C278.334 160.347 278.163 160.33 277.995 160.298C277.917 160.288 277.842 160.259 277.778 160.213C277.714 160.166 277.663 160.105 277.629 160.033C277.364 159.468 277.919 158.215 278.138 157.782L278.163 152.588L285.252 149.649V156.224C284.743 156.764 281.178 160.349 278.5 160.349H278.505Z" fill="white"/>
<path d="M285.018 150.011V156.122C284.331 156.83 281.015 160.099 278.505 160.099C278.344 160.102 278.184 160.088 278.026 160.059C277.883 160.028 277.848 159.977 277.827 159.926C277.644 159.534 278.031 158.48 278.337 157.889L278.393 157.782V152.74L285.013 150.006L285.018 150.011ZM285.497 149.293L277.929 152.425V157.665C277.929 157.665 276.518 160.252 277.929 160.532C278.119 160.567 278.312 160.584 278.505 160.583C281.56 160.583 285.497 156.321 285.497 156.321V149.293Z" fill="#010101"/>
<path d="M279.172 153.514C278.192 153.509 277.225 153.299 276.331 152.896C275.438 152.493 274.64 151.908 273.987 151.177C273.59 150.771 273.281 150.286 273.082 149.754C272.883 149.221 272.798 148.653 272.831 148.086C273.453 143.385 275.785 138.308 276.223 137.391L288.334 138.369C288.512 139.576 289.306 146.604 284.351 151.284C282.981 152.67 281.126 153.469 279.177 153.514H279.172Z" fill="white"/>
<path d="M276.366 137.64L288.12 138.593C288.328 140.177 288.848 146.7 284.178 151.111C282.853 152.453 281.058 153.229 279.172 153.275C278.226 153.271 277.291 153.068 276.429 152.68C275.566 152.291 274.795 151.725 274.166 151.019C273.79 150.639 273.498 150.184 273.308 149.684C273.119 149.184 273.036 148.65 273.066 148.116C273.651 143.665 275.795 138.858 276.366 137.64ZM276.075 137.131C276.075 137.131 273.285 142.784 272.592 148.05C272.251 150.596 275.373 153.749 279.172 153.749C281.183 153.711 283.099 152.886 284.509 151.452C290.08 146.191 288.537 138.14 288.537 138.14L276.075 137.121V137.131Z" fill="#010101"/>
<path d="M273.386 136.943C273.763 136.703 274.257 136.693 274.624 136.434C275.76 135.705 275.286 135.359 275.948 134.636C276.452 134.038 277.104 133.582 277.837 133.312C279.875 132.553 282.212 132.848 284.264 133.347C284.393 133.37 284.514 133.424 284.615 133.505C284.717 133.586 284.797 133.692 284.848 133.812C284.899 133.932 284.919 134.063 284.906 134.193C284.893 134.322 284.847 134.447 284.774 134.554C286.811 134.962 289.006 136.892 289.866 138.206C291.583 140.813 291.802 145.183 290.055 147.851C288.685 149.944 286.103 151.656 284.723 148.87C283.663 146.751 283.837 144.796 284.005 142.514C284.084 141.792 284.084 141.062 284.005 140.34C282.91 138.842 281.418 137.793 279.737 137.793C279.314 138.216 278.958 138.847 278.561 139.27C277.971 139.906 277.252 140.408 276.452 140.742C275.21 141.251 273.488 141.368 272.633 140.116C272.463 139.861 272.348 139.574 272.295 139.273C272.241 138.972 272.25 138.663 272.32 138.365C272.391 138.068 272.522 137.788 272.705 137.543C272.889 137.299 273.121 137.094 273.386 136.943Z" fill="#010101"/>
<path d="M284.422 146.227C284.334 146.227 284.246 146.214 284.163 146.186C284.012 146.092 283.884 145.968 283.785 145.822C283.685 145.675 283.618 145.51 283.587 145.336C283.347 144.664 283.363 143.928 283.633 143.268C283.998 143.15 284.376 143.078 284.758 143.054C285.024 143.027 285.289 143.103 285.5 143.266C285.712 143.429 285.853 143.667 285.894 143.93C285.978 144.21 285.994 144.507 285.941 144.794C285.888 145.082 285.767 145.353 285.589 145.585C285.452 145.77 285.278 145.924 285.076 146.034C284.875 146.145 284.652 146.211 284.422 146.227Z" fill="white"/>
<path d="M284.764 143.293C284.975 143.267 285.189 143.325 285.358 143.455C285.528 143.584 285.64 143.775 285.67 143.986C285.743 144.232 285.757 144.491 285.711 144.743C285.665 144.996 285.56 145.233 285.405 145.437C285.291 145.595 285.144 145.725 284.974 145.82C284.805 145.915 284.616 145.972 284.422 145.987C284.364 145.988 284.305 145.979 284.249 145.962C284.132 145.916 283.949 145.707 283.811 145.264C283.625 144.691 283.615 144.076 283.781 143.497C284.094 143.373 284.427 143.304 284.764 143.293ZM284.764 142.815C284.308 142.831 283.86 142.934 283.445 143.12C282.935 143.874 283.215 146.079 284.076 146.405C284.187 146.446 284.304 146.467 284.422 146.466C284.718 146.437 285.004 146.342 285.259 146.188C285.514 146.034 285.731 145.825 285.895 145.577C286.059 145.329 286.165 145.047 286.206 144.752C286.248 144.458 286.223 144.158 286.134 143.874C286.079 143.558 285.908 143.274 285.654 143.078C285.401 142.882 285.083 142.788 284.764 142.815Z" fill="#010101"/>
<path d="M289.826 136.943C288.985 134.697 286.918 133.546 284.769 132.777C283.648 132.38 282.864 134.065 283.995 134.468C285.64 135.058 287.422 135.812 288.069 137.569C288.502 138.69 290.254 138.063 289.826 136.943Z" fill="#395382"/>
<path d="M276.85 187.447C273.692 186.24 270.229 186.704 267.112 185.257C268.452 187.804 268.935 190.701 266.725 195.086C266.282 195.977 265.834 196.848 265.35 197.724C268.024 196.196 270.219 194.358 273.132 193.171C274.548 192.596 278.225 191.644 278.688 189.861C279.039 188.562 277.873 187.839 276.85 187.447Z" fill="#010101"/>
<path d="M188.954 182.846L204.907 156.053L325.289 227.73L309.336 254.523L188.954 182.846Z" fill="#ABB7C2"/>
<path d="M155.572 178.647C156.223 179.809 157.168 180.779 158.312 181.46C159.456 182.141 160.759 182.509 162.091 182.528L188.929 182.884L204.9 156.056L191.796 132.629C191.147 131.467 190.202 130.496 189.058 129.815C187.913 129.133 186.609 128.766 185.278 128.749L162.182 128.438C161.955 128.43 161.732 128.499 161.548 128.632C161.365 128.766 161.231 128.957 161.168 129.175C161.106 129.393 161.118 129.626 161.203 129.837C161.288 130.048 161.441 130.224 161.637 130.338L165.655 132.792L180.827 142.086C181.278 142.363 181.652 142.75 181.911 143.212L188.124 154.309C188.392 154.781 188.53 155.315 188.522 155.858C188.515 156.4 188.364 156.931 188.084 157.395L182.074 167.489C181.8 167.958 181.406 168.347 180.933 168.615C180.46 168.883 179.924 169.022 179.38 169.017L166.649 168.849C166.111 168.848 165.584 168.703 165.121 168.431L149.751 159.503L145.677 157.14C145.483 157.02 145.253 156.968 145.026 156.993C144.799 157.018 144.586 157.119 144.424 157.28C144.261 157.44 144.157 157.651 144.128 157.878C144.099 158.105 144.148 158.335 144.266 158.531L155.572 178.647ZM351.687 281.942C351.915 281.952 352.141 281.885 352.327 281.751C352.512 281.617 352.647 281.425 352.71 281.205C352.773 280.985 352.76 280.75 352.674 280.538C352.587 280.326 352.431 280.15 352.232 280.038L348.214 277.583L333.063 268.324C332.608 268.05 332.232 267.662 331.973 267.199L325.765 256.092C325.497 255.62 325.36 255.085 325.367 254.543C325.374 254.001 325.526 253.47 325.806 253.005L331.795 242.922C332.067 242.45 332.46 242.06 332.934 241.791C333.407 241.523 333.944 241.386 334.489 241.394L347.22 241.562C347.758 241.565 348.285 241.709 348.748 241.98L364.123 250.902L368.197 253.265C368.391 253.386 368.621 253.438 368.848 253.413C369.075 253.388 369.288 253.286 369.45 253.126C369.613 252.965 369.718 252.755 369.746 252.528C369.775 252.301 369.726 252.071 369.608 251.875L358.292 231.718C357.643 230.556 356.699 229.586 355.555 228.904C354.412 228.223 353.109 227.855 351.778 227.837L324.94 227.481L308.969 254.33L322.073 277.756C322.723 278.918 323.668 279.889 324.812 280.571C325.956 281.253 327.26 281.622 328.591 281.642L351.687 281.942Z" fill="#ABB7C2"/>
<path d="M316.221 240.467C316.949 239.236 317.16 237.766 316.808 236.38C316.456 234.993 315.569 233.802 314.342 233.068L205.414 168.217C204.183 167.489 202.715 167.278 201.329 167.631C199.943 167.983 198.753 168.869 198.02 170.096C197.29 171.326 197.078 172.795 197.429 174.181C197.78 175.567 198.666 176.757 199.894 177.491L308.821 242.346C310.053 243.073 311.522 243.283 312.908 242.931C314.295 242.579 315.485 241.694 316.221 240.467Z" fill="#010101"/>
<path d="M285.568 230.847C285.378 230.851 285.191 230.806 285.023 230.717C284.856 230.628 284.714 230.497 284.611 230.338C284.504 230.191 284.443 230.016 284.436 229.835C284.429 229.653 284.475 229.474 284.57 229.319L284.723 228.958L284.331 228.988H284C283.786 229.012 283.571 228.989 283.367 228.92C283.164 228.852 282.978 228.739 282.823 228.591C282.451 228.148 282.508 227.771 283.042 227.089C283.127 226.986 283.219 226.889 283.317 226.798L283.485 226.641L283.333 226.467C283.263 226.405 283.217 226.32 283.201 226.228C283.185 226.135 283.201 226.04 283.246 225.958C283.781 224.884 284.876 224.15 285.955 223.488C289.276 221.451 290.147 219.786 290.539 218.701L290.666 218.314L289.866 218.462C289.031 218.604 288.69 218.66 288.13 219.241C287.933 219.455 287.661 219.586 287.371 219.608C287.307 219.608 287.243 219.598 287.183 219.577C286.943 219.495 286.831 219.348 286.979 218.828C287.127 218.309 287.865 217.402 288.349 216.832L288.619 216.506C288.77 216.323 288.956 216.173 289.167 216.064C289.378 215.955 289.609 215.891 289.846 215.875C291.506 215.701 292.683 215.62 293.548 215.62C294.203 215.611 294.857 215.683 295.494 215.834C295.825 215.905 296.181 215.982 296.68 216.043C297.18 216.104 299.563 219.45 299.894 220.249C299.69 220.422 299.278 220.799 298.463 221.558C296.105 223.753 290.579 228.886 289.174 228.886L289.026 228.81L288.802 228.907C287.463 230.19 286.352 230.847 285.568 230.847Z" fill="white"/>
<path d="M293.523 215.931C294.161 215.92 294.797 215.99 295.417 216.139C295.743 216.211 296.11 216.287 296.599 216.348C297.169 216.552 299.089 219.333 299.573 220.264C299.339 220.468 298.957 220.82 298.28 221.451C296.141 223.442 290.462 228.718 289.159 228.729L288.858 228.571L288.609 228.805C287.361 229.986 286.281 230.633 285.553 230.633C285.4 230.636 285.25 230.599 285.116 230.525C284.982 230.452 284.869 230.345 284.789 230.216C284.713 230.104 284.673 229.971 284.673 229.836C284.673 229.701 284.713 229.569 284.789 229.457L285.1 228.729L284.31 228.79H284.005C283.822 228.814 283.636 228.799 283.46 228.745C283.285 228.69 283.123 228.598 282.986 228.474C282.721 228.163 282.696 227.929 283.215 227.277C283.288 227.182 283.37 227.093 283.46 227.012L283.796 226.702L283.495 226.355L283.445 226.304H283.419C283.398 226.254 283.398 226.197 283.419 226.147C283.928 225.128 284.993 224.415 286.037 223.768C289.423 221.701 290.32 219.974 290.702 218.854L290.961 218.085L290.162 218.227L289.765 218.299C288.899 218.446 288.507 218.518 287.89 219.154C287.737 219.319 287.529 219.422 287.305 219.445C287.268 219.45 287.23 219.45 287.193 219.445C287.101 219.414 287.03 219.389 287.142 218.986C287.48 218.284 287.927 217.639 288.466 217.076L288.736 216.751C288.868 216.592 289.031 216.462 289.215 216.369C289.399 216.275 289.599 216.22 289.805 216.206C291.46 216.032 292.627 215.951 293.482 215.951L293.523 215.931ZM293.523 215.452C292.723 215.452 291.583 215.523 289.795 215.712C289.527 215.73 289.266 215.804 289.028 215.927C288.79 216.051 288.58 216.222 288.41 216.43C287.901 217.036 286.923 218.115 286.719 218.839C286.607 219.256 286.566 219.704 287.081 219.857C287.166 219.886 287.256 219.9 287.346 219.898C287.699 219.877 288.031 219.72 288.272 219.46C288.853 218.859 289.128 218.884 290.309 218.676C289.892 219.908 288.929 221.456 285.853 223.335C284.835 223.972 283.638 224.741 283.057 225.907C283.001 226.006 282.971 226.117 282.971 226.231C282.971 226.344 283.001 226.456 283.057 226.554C283.089 226.593 283.125 226.629 283.164 226.661C283.056 226.758 282.956 226.864 282.864 226.977C282.355 227.608 282.12 228.153 282.65 228.779C282.829 228.954 283.043 229.088 283.279 229.172C283.515 229.255 283.766 229.287 284.015 229.263H284.361C284.256 229.454 284.207 229.669 284.219 229.886C284.23 230.103 284.303 230.313 284.427 230.491C284.551 230.682 284.722 230.839 284.923 230.947C285.125 231.055 285.35 231.11 285.578 231.107C286.597 231.107 287.824 230.211 288.95 229.146C289.014 229.181 289.086 229.197 289.159 229.192C291.134 229.192 299.68 220.667 300.143 220.417C300.332 220.32 297.531 215.976 296.696 215.875C295.377 215.707 295.086 215.447 293.533 215.447L293.523 215.452Z" fill="#010101"/>
<path d="M324.293 200.815C329.732 189.27 316.318 176.37 312.58 171.619C304.798 161.76 289.352 153.168 289.663 159.748C289.663 160.089 289.714 160.43 289.754 160.792C289.841 161.327 289.933 161.866 290.06 162.457C290.388 163.797 290.794 165.117 291.277 166.409C295.509 177.868 306.678 193.446 306.937 195.876C307.248 198.845 295.224 212.259 295.845 215.014C295.845 215.014 299.013 222.719 300.821 222.322C300.79 222.342 313.711 223.259 324.293 200.815Z" fill="#395382"/>
<path d="M283.979 142.596L283.933 143.344L284.152 146.079C284.152 146.079 283.888 146.161 283.984 146.655C284.081 147.149 283.404 147.963 283.404 147.963L281.616 147.581C281.616 147.581 280.985 145.132 281.148 144.623C281.307 144.07 281.503 143.529 281.733 143.003C282.03 142.704 282.375 142.457 282.752 142.27C282.937 142.195 283.128 142.135 283.322 142.091L283.979 142.596Z" fill="white"/>
<path d="M299.206 160.451C296.521 158.095 293.067 156.8 289.495 156.809L289.108 164.087L291.71 168.37C291.71 168.37 292.021 167.932 292.291 168.344C292.56 168.757 293.818 165.599 293.864 165.518C293.91 165.436 294.969 162.396 294.969 162.396C294.969 162.396 298.534 163.415 298.376 163.048C298.218 162.681 299.206 160.451 299.206 160.451Z" fill="#395382"/>
<path d="M232.619 210.583C232.433 210.574 232.252 210.519 232.092 210.424C231.931 210.329 231.796 210.197 231.698 210.038L231.759 209.529L231.316 209.743C231.15 209.873 230.954 209.958 230.745 209.987C230.333 209.845 230.236 209.407 230.144 209.055L230.088 208.587L229.737 208.847C229.451 209.171 229.056 209.379 228.627 209.432C228.461 209.431 228.3 209.376 228.168 209.274C227.618 208.867 227.517 208.765 227.705 208.22L227.954 207.461L227.328 207.971C227.171 208.095 226.978 208.166 226.778 208.174C226.713 208.174 226.648 208.165 226.585 208.149C225.785 207.93 225.495 207.36 225.734 206.453L225.785 206.27L225.866 206.219V206.132C226.206 205.443 226.632 204.799 227.135 204.217L227.272 204.06C227.546 203.673 227.916 203.366 228.347 203.168H228.464C228.514 203.161 228.565 203.166 228.613 203.183C228.661 203.2 228.704 203.228 228.739 203.265C228.993 203.731 229.081 204.27 228.988 204.793L228.922 205.786L229.431 204.935C229.706 204.482 229.941 204.253 230.19 204.253C230.392 204.279 230.575 204.383 230.699 204.543C230.889 204.746 231.033 204.988 231.121 205.252C231.209 205.515 231.239 205.795 231.209 206.071L231.158 206.759L231.626 206.249C231.823 206.017 232.078 205.842 232.365 205.74H232.482C232.533 205.735 232.585 205.741 232.634 205.759C232.682 205.776 232.726 205.805 232.762 205.842C233.006 206.212 233.116 206.654 233.073 207.095V207.298C233.079 207.42 233.055 207.541 233.001 207.65L232.838 208.083L233.281 207.971L233.439 208.047C233.643 208.083 233.74 208.663 233.668 209.427C233.668 209.714 233.56 209.991 233.366 210.202C233.172 210.413 232.905 210.544 232.619 210.568V210.583Z" fill="white"/>
<path d="M228.484 203.403C228.498 203.401 228.513 203.403 228.526 203.409C228.539 203.414 228.551 203.422 228.561 203.433C228.683 203.56 228.8 203.993 228.744 204.793L228.606 206.769L229.625 205.073C229.941 204.564 230.134 204.508 230.18 204.508C230.315 204.538 230.434 204.616 230.516 204.727C230.686 204.907 230.815 205.122 230.893 205.356C230.971 205.591 230.997 205.84 230.969 206.086L230.868 207.467L231.805 206.448C231.984 206.225 232.227 206.063 232.502 205.985C232.502 205.985 232.543 205.985 232.584 206.025C232.784 206.346 232.871 206.724 232.833 207.1V207.319C232.84 207.41 232.823 207.502 232.782 207.584L232.441 208.449L233.225 208.251C233.256 208.266 233.289 208.276 233.322 208.281C233.462 208.647 233.494 209.044 233.414 209.427C233.363 209.972 233.027 210.354 232.604 210.354C232.467 210.345 232.335 210.304 232.216 210.237C232.097 210.169 231.994 210.075 231.917 209.962L232.029 208.943L231.163 209.549C231.037 209.659 230.881 209.728 230.715 209.748H230.699C230.537 209.682 230.44 209.239 230.379 208.979L230.267 208.032L229.574 208.684C229.327 208.959 228.992 209.139 228.627 209.193C228.512 209.192 228.401 209.153 228.311 209.081C227.802 208.699 227.802 208.699 227.929 208.297L228.438 206.769L227.18 207.787C227.066 207.879 226.925 207.933 226.778 207.94C226.736 207.948 226.693 207.948 226.651 207.94C226.228 207.828 225.698 207.558 225.984 206.473L226.04 206.443L226.085 206.26C226.417 205.61 226.827 205.005 227.308 204.457L227.45 204.294C227.725 203.978 228.097 203.545 228.398 203.474H228.484V203.403ZM228.484 202.924C228.417 202.925 228.351 202.934 228.286 202.949C227.776 203.072 227.298 203.683 226.951 204.075C226.445 204.654 226.012 205.294 225.663 205.979C225.65 206.005 225.639 206.033 225.632 206.061C225.556 206.112 225.541 206.224 225.5 206.366C225.25 207.334 225.546 208.083 226.518 208.353C226.601 208.377 226.687 208.389 226.773 208.388C227.028 208.381 227.273 208.29 227.471 208.129C227.236 208.831 227.445 209.025 228.021 209.453C228.194 209.583 228.405 209.654 228.622 209.656C229.112 209.603 229.566 209.373 229.9 209.01V209.066C229.997 209.468 230.114 209.998 230.511 210.166C230.584 210.196 230.662 210.211 230.74 210.211C230.999 210.186 231.246 210.085 231.448 209.921C231.432 210.009 231.451 210.1 231.499 210.176C231.619 210.365 231.784 210.522 231.978 210.633C232.172 210.745 232.39 210.808 232.614 210.818C232.96 210.796 233.285 210.644 233.524 210.393C233.763 210.142 233.898 209.809 233.903 209.463C233.949 209.005 233.989 207.935 233.47 207.823C233.409 207.823 233.302 207.752 233.236 207.752C233.316 207.553 233.349 207.339 233.332 207.125C233.368 206.499 233.164 205.501 232.523 205.501C232.452 205.502 232.382 205.512 232.314 205.531C231.985 205.651 231.694 205.854 231.468 206.122C231.502 205.809 231.467 205.492 231.366 205.194C231.265 204.896 231.1 204.624 230.883 204.396C230.8 204.291 230.697 204.204 230.58 204.141C230.462 204.078 230.333 204.04 230.2 204.029C229.813 204.029 229.498 204.391 229.233 204.823C229.284 204.065 229.233 202.924 228.494 202.924H228.484Z" fill="#010101"/>
</g>
<defs>
<clipPath id="clip0_1_1779">
<rect width="407.416" height="407.416" fill="white"/>
</clipPath>
</defs>
</svg>
