<svg width="148" height="128" viewBox="0 0 148 128" fill="none" xmlns="http://www.w3.org/2000/svg">
<mask id="mask0_345_645" style="mask-type:alpha" maskUnits="userSpaceOnUse" x="29" y="1" width="110" height="126">
<path d="M79.8518 2.35829C82.3452 0.901339 85.4304 0.901341 87.9238 2.35829L134.689 29.6838C137.144 31.1182 138.653 33.7478 138.653 36.5911V91.4089C138.653 94.2522 137.144 96.8818 134.689 98.3162L87.9238 125.642C85.4304 127.099 82.3452 127.099 79.8518 125.642L33.0866 98.3162C30.6317 96.8818 29.1226 94.2522 29.1226 91.4089V36.5911C29.1226 33.7478 30.6317 31.1182 33.0866 29.6838L79.8518 2.35829Z" fill="#0CAF60"/>
</mask>
<g mask="url(#mask0_345_645)">
<path d="M79.8518 2.35829C82.3452 0.901339 85.4304 0.901341 87.9238 2.35829L134.689 29.6838C137.144 31.1182 138.653 33.7478 138.653 36.5911V91.4089C138.653 94.2522 137.144 96.8818 134.689 98.3162L87.9238 125.642C85.4304 127.099 82.3452 127.099 79.8518 125.642L33.0866 98.3162C30.6317 96.8818 29.1226 94.2522 29.1226 91.4089V36.5911C29.1226 33.7478 30.6317 31.1182 33.0866 29.6838L79.8518 2.35829Z" fill="#274160"/>
<path d="M171.758 25H70.8633C68.2842 25 66.1934 27.116 66.1934 29.7263V99.1131C66.1934 101.723 68.2842 103.839 70.8633 103.839H171.758C174.337 103.839 176.428 101.723 176.428 99.1131V29.7263C176.428 27.116 174.337 25 171.758 25Z" fill="white"/>
<path d="M168.384 27.6802H74.2716C71.8866 27.6802 69.9531 29.6369 69.9531 32.0508V95.6689C69.9531 98.0827 71.8866 100.039 74.2716 100.039H168.384C170.769 100.039 172.703 98.0827 172.703 95.6689V32.0508C172.703 29.6369 170.769 27.6802 168.384 27.6802Z" fill="#274160"/>
<path d="M178.613 103.096H61.5578C59.2477 103.096 57.375 104.991 57.375 107.329V107.787C57.375 110.125 59.2477 112.02 61.5578 112.02H178.613C180.923 112.02 182.796 110.125 182.796 107.787V107.329C182.796 104.991 180.923 103.096 178.613 103.096Z" fill="white"/>
<path d="M178.613 103.096H61.5578C59.2477 103.096 57.375 104.991 57.375 107.329V107.787C57.375 110.125 59.2477 112.02 61.5578 112.02H178.613C180.923 112.02 182.796 110.125 182.796 107.787V107.329C182.796 104.991 180.923 103.096 178.613 103.096Z" fill="#274160"/>
<path d="M133.119 103.177H107.674V105.822H133.119V103.177Z" fill="#274160"/>
</g>
<g filter="url(#filter0_d_345_645)">
<path d="M103 40.2138V79.7748C103 81.158 102.487 82.4848 101.575 83.4642C100.662 84.4437 99.4237 84.996 98.1311 85H22.8725C22.2317 85 21.5973 84.8648 21.0054 84.602C20.4136 84.3393 19.876 83.9542 19.4234 83.4689C18.9708 82.9835 18.6121 82.4074 18.3679 81.7735C18.1236 81.1397 17.9986 80.4605 18 79.7748V40.2138C18 38.831 18.5134 37.5049 19.4271 36.5271C20.3409 35.5493 21.5802 35 22.8725 35H98.1311C99.4221 35.003 100.659 35.5534 101.572 36.5306C102.485 37.5079 102.998 38.8323 103 40.2138Z" fill="white"/>
<path d="M81 81.3195L96.8094 91.8V79L81 81.3195Z" fill="white"/>
</g>
<path d="M21.0442 31.2737C20.6786 31.2735 20.321 31.1654 20.0152 30.9627C19.7094 30.7599 19.4686 30.4713 19.3224 30.1322L15.2622 20.6659C15.1634 20.4366 15.1103 20.1898 15.1058 19.9397C15.1013 19.6896 15.1455 19.441 15.2359 19.2082C15.3263 18.9753 15.4612 18.7628 15.6327 18.5827C15.8043 18.4026 16.0093 18.2585 16.2359 18.1586C16.4625 18.0587 16.7063 18.0049 16.9534 18.0003C17.2006 17.9958 17.4462 18.0405 17.6763 18.132C17.9063 18.2235 18.1163 18.36 18.2942 18.5336C18.4722 18.7073 18.6146 18.9147 18.7133 19.144L22.7698 28.6141C22.8947 28.9038 22.9463 29.2205 22.92 29.5355C22.8937 29.8505 22.7902 30.1539 22.6189 30.4182C22.4476 30.6826 22.214 30.8996 21.939 31.0496C21.6641 31.1996 21.3565 31.2779 21.0442 31.2775V31.2737Z" fill="#274160"/>
<path d="M2.81778 44.2516C2.31924 44.2683 1.83459 44.0838 1.47044 43.7388C1.1063 43.3938 0.892476 42.9166 0.876024 42.412C0.859573 41.9075 1.04184 41.417 1.38272 41.0484C1.7236 40.6799 2.19518 40.4635 2.69371 40.4468L12.863 39.7582C13.3615 39.7244 13.8529 39.8924 14.2291 40.2252C14.6052 40.5581 14.8353 41.0286 14.8687 41.5331C14.9021 42.0376 14.7361 42.535 14.4072 42.9156C14.0783 43.2963 13.6134 43.5291 13.1149 43.563L2.94184 44.2478L2.81778 44.2516Z" fill="#274160"/>
<path d="M13.6344 34.8885C13.2628 34.8873 12.9 34.7733 12.5931 34.5613L4.1456 28.7628C3.74155 28.4758 3.46527 28.0395 3.37641 27.548C3.28756 27.0566 3.39328 26.5496 3.67073 26.1364C3.94818 25.7232 4.37509 25.437 4.85926 25.3397C5.34343 25.2424 5.846 25.3417 6.25841 25.6162L14.6908 31.4147C15.0224 31.6437 15.2729 31.9741 15.4055 32.3576C15.5381 32.741 15.5459 33.1574 15.4279 33.5457C15.3098 33.934 15.072 34.2738 14.7493 34.5155C14.4265 34.7571 14.0359 34.8878 13.6344 34.8885Z" fill="#274160"/>
<path d="M61.2295 68.4127C61.4045 64.3439 64.8024 60.9606 68.8711 60.7856C69.8191 60.7418 70.738 60.8585 71.5838 61.121C71.8755 61.2085 72.167 61.0189 72.167 60.7127V54.2085C72.167 51.2918 70.7087 49.8335 67.792 49.8335H50.292C47.3753 49.8335 45.917 51.2918 45.917 54.2085V67.3335C45.917 70.2502 47.3753 71.7085 50.292 71.7085H61.1711C61.4628 71.7085 61.667 71.4168 61.5649 71.1397C61.3024 70.2793 61.1857 69.3752 61.2295 68.4127ZM60.5427 61.7612C60.0935 62.0879 59.567 62.2512 59.042 62.2512C58.517 62.2512 57.989 62.0879 57.5413 61.7627L50.3782 56.552C49.8896 56.1977 49.7816 55.5123 50.1375 55.0237C50.4918 54.5366 51.1727 54.4258 51.6656 54.7831L58.8291 59.9923C58.9574 60.0841 59.128 60.0856 59.2563 59.9923L66.4198 54.7831C66.9113 54.4258 67.5936 54.5366 67.9479 55.0237C68.3038 55.5123 68.1958 56.1962 67.7073 56.552L60.5427 61.7612ZM69.2503 62.9585C66.0289 62.9585 63.417 65.5704 63.417 68.7918C63.417 72.0133 66.0289 74.6252 69.2503 74.6252C72.4718 74.6252 75.0837 72.0133 75.0837 68.7918C75.0837 65.5704 72.4718 62.9585 69.2503 62.9585ZM71.5895 68.0918L69.1585 70.5229C69.0214 70.6599 68.8362 70.7358 68.6422 70.7358C68.4483 70.7358 68.263 70.6585 68.126 70.5229L66.9112 69.3081C66.6268 69.0237 66.6268 68.5614 66.9112 68.277C67.1955 67.9927 67.6579 67.9927 67.9422 68.277L68.6408 68.977L70.5556 67.0622C70.8399 66.7779 71.3023 66.7779 71.5866 67.0622C71.871 67.3466 71.8739 67.8075 71.5895 68.0918Z" fill="#274160"/>
<defs>
<filter id="filter0_d_345_645" x="6" y="27" width="117" height="88.7998" filterUnits="userSpaceOnUse" color-interpolation-filters="sRGB">
<feFlood flood-opacity="0" result="BackgroundImageFix"/>
<feColorMatrix in="SourceAlpha" type="matrix" values="0 0 0 0 0 0 0 0 0 0 0 0 0 0 0 0 0 0 127 0" result="hardAlpha"/>
<feOffset dx="4" dy="8"/>
<feGaussianBlur stdDeviation="8"/>
<feColorMatrix type="matrix" values="0 0 0 0 0.0666667 0 0 0 0 0.0941176 0 0 0 0 0.152941 0 0 0 0.08 0"/>
<feBlend mode="normal" in2="BackgroundImageFix" result="effect1_dropShadow_345_645"/>
<feBlend mode="normal" in="SourceGraphic" in2="effect1_dropShadow_345_645" result="shape"/>
</filter>
</defs>
</svg>
