<svg width="638" height="292" viewBox="0 0 638 292" fill="none" xmlns="http://www.w3.org/2000/svg">
<path d="M366.425 288.339L265.753 288.323L268.94 261.031L269.03 260.257L271.449 239.539C271.483 239.251 271.616 239.046 271.766 239.046H361.09C361.245 239.046 361.379 239.259 361.409 239.555L363.54 260.273V260.277L363.619 261.031L366.425 288.339Z" fill="#191E3A"/>
<g style="mix-blend-mode:multiply" opacity="0.5">
<path d="M363.618 261.031H268.939L269.03 260.257L271.448 239.539C271.483 239.251 271.615 239.046 271.766 239.046H361.089C361.244 239.046 361.379 239.259 361.409 239.555L363.54 260.273V260.277L363.618 261.031Z" fill="#211F44"/>
</g>
<path d="M511.614 14.1644V227.384C511.614 234.929 505.206 241.043 497.302 241.043H134.875C126.971 241.043 120.563 234.929 120.563 227.384V14.1644C120.563 6.62138 126.971 0.505859 134.875 0.505859H497.302C505.206 0.505859 511.614 6.62138 511.614 14.1644Z" fill="#262F5F"/>
<g style="mix-blend-mode:multiply" opacity="0.3">
<path d="M511.614 14.1647V227.385C511.614 234.928 505.207 241.043 497.303 241.043H274.7C454.42 240.78 464.616 0.506348 464.616 0.506348H497.303C505.207 0.506348 511.614 6.62153 511.614 14.1647Z" fill="#262F5F"/>
</g>
<path d="M499.459 16.5591V199.369C498.401 200.612 497.085 201.609 495.601 202.29C494.118 202.971 492.503 203.319 490.871 203.31H141.936C140.208 203.321 138.501 202.931 136.949 202.17C135.398 201.408 134.044 200.297 132.995 198.923V17.0585C134.944 14.126 138.377 12.1755 142.28 12.1755H490.528C492.254 12.1647 493.959 12.555 495.509 13.3156C497.059 14.0763 498.411 15.1866 499.459 16.5591Z" fill="white"/>
<path d="M499.459 16.5591V199.369C498.401 200.612 497.084 201.609 495.601 202.29C494.117 202.971 492.503 203.319 490.871 203.31H355.706C356.195 202.697 356.691 202.091 357.194 201.492C357.618 200.984 358.049 200.48 358.485 199.982C362.724 195.111 367.443 190.68 372.57 186.756C373.953 185.698 375.365 184.681 376.808 183.705C379.427 181.93 382.139 180.296 384.932 178.809C388.538 176.892 392.252 175.206 396.009 173.602C397.023 173.169 398.039 172.741 399.058 172.319C404.839 169.91 410.667 167.599 416.285 164.839C426.558 159.792 436.437 152.887 441.969 142.864C447.502 132.839 447.616 119.188 439.837 110.791C432.286 102.636 419.931 101.433 408.827 101.834C397.725 102.235 386.04 103.6 375.984 98.8742C375.143 98.4797 374.331 98.0531 373.549 97.5942C372.726 97.1151 371.934 96.6043 371.171 96.062C356.642 85.7609 351.858 64.5442 339.104 51.1735C329.352 40.947 315.452 35.898 301.856 32.0682C288.257 28.2383 274.155 25.1788 262.12 17.7764C260.966 17.067 259.835 16.3068 258.727 15.4958C257.908 14.8964 257.105 14.271 256.317 13.6198C255.751 13.1525 255.193 12.671 254.646 12.1755H490.528C492.254 12.1647 493.959 12.555 495.509 13.3156C497.059 14.0763 498.411 15.1866 499.459 16.5591Z" fill="#C7DDF3"/>
<path d="M213.64 162.131C213.594 162.062 213.523 162.012 213.442 161.991C213.344 161.969 213.244 161.959 213.143 161.96H212.182C212.082 161.955 211.984 161.987 211.908 162.052C211.875 162.08 211.849 162.116 211.831 162.156C211.814 162.195 211.805 162.239 211.806 162.282C211.802 162.33 211.811 162.377 211.832 162.42C211.853 162.463 211.886 162.499 211.926 162.524C212.038 162.578 212.161 162.603 212.285 162.595H212.94V163.274C212.774 163.366 212.598 163.439 212.417 163.494C212.238 163.546 212.052 163.572 211.865 163.571C211.688 163.58 211.512 163.549 211.349 163.481C211.185 163.412 211.04 163.307 210.923 163.174C210.698 162.91 210.585 162.533 210.586 162.042C210.584 161.832 210.613 161.624 210.672 161.424C210.723 161.251 210.808 161.09 210.923 160.951C211.031 160.825 211.166 160.724 211.319 160.658C211.485 160.588 211.663 160.554 211.843 160.557C212.004 160.552 212.163 160.58 212.312 160.641C212.423 160.691 212.522 160.763 212.603 160.853C212.699 160.971 212.788 161.095 212.869 161.224C212.906 161.274 212.954 161.315 213.009 161.344C213.064 161.372 213.124 161.387 213.185 161.386C213.291 161.388 213.393 161.348 213.469 161.275C213.507 161.24 213.537 161.198 213.557 161.151C213.577 161.104 213.587 161.053 213.586 161.002C213.581 160.882 213.546 160.765 213.485 160.662C213.406 160.524 213.303 160.401 213.18 160.299C213.023 160.174 212.844 160.078 212.652 160.017C212.412 159.937 212.159 159.899 211.906 159.903C211.593 159.899 211.282 159.95 210.987 160.054C210.73 160.147 210.495 160.294 210.3 160.486C210.108 160.68 209.962 160.915 209.874 161.173C209.678 161.754 209.68 162.384 209.877 162.964C209.97 163.221 210.116 163.454 210.307 163.648C210.498 163.84 210.728 163.986 210.982 164.078C211.263 164.18 211.561 164.231 211.86 164.227C212.118 164.229 212.374 164.198 212.623 164.133C212.877 164.062 213.122 163.961 213.353 163.833C213.43 163.793 213.502 163.743 213.568 163.686C213.62 163.639 213.661 163.579 213.684 163.513C213.707 163.43 213.717 163.344 213.715 163.257V162.456C213.723 162.343 213.697 162.23 213.64 162.131Z" fill="white"/>
<path d="M213.7 162.089C213.643 162.005 213.558 161.945 213.46 161.92C213.356 161.896 213.25 161.884 213.143 161.886H212.182C212.064 161.88 211.949 161.92 211.859 161.996C211.818 162.031 211.785 162.075 211.763 162.125C211.741 162.174 211.731 162.228 211.732 162.282C211.727 162.342 211.74 162.403 211.767 162.457C211.795 162.511 211.837 162.556 211.889 162.587C212.011 162.649 212.148 162.678 212.285 162.67H212.867V163.23C212.717 163.309 212.559 163.374 212.397 163.423C212.224 163.474 212.045 163.499 211.866 163.498C211.699 163.507 211.533 163.479 211.379 163.415C211.226 163.351 211.089 163.252 210.979 163.127C210.767 162.878 210.659 162.512 210.659 162.042C210.657 161.84 210.685 161.639 210.744 161.446C210.791 161.282 210.871 161.13 210.979 160.999C211.08 160.881 211.206 160.787 211.348 160.724C211.505 160.659 211.674 160.627 211.844 160.63C211.993 160.624 212.142 160.651 212.28 160.709C212.382 160.754 212.474 160.819 212.549 160.9C212.644 161.017 212.731 161.14 212.81 161.268C212.854 161.327 212.911 161.376 212.977 161.408C213.042 161.442 213.113 161.459 213.185 161.459C213.247 161.46 213.308 161.449 213.365 161.426C213.423 161.404 213.475 161.37 213.519 161.327C213.564 161.286 213.6 161.236 213.625 161.18C213.649 161.124 213.662 161.063 213.661 161.002C213.655 160.87 213.617 160.741 213.549 160.628C213.467 160.481 213.358 160.351 213.228 160.244C213.063 160.112 212.876 160.012 212.676 159.947C212.428 159.866 212.168 159.826 211.906 159.83C211.585 159.826 211.265 159.878 210.962 159.984C210.695 160.081 210.452 160.234 210.25 160.433C210.05 160.635 209.898 160.879 209.804 161.148C209.702 161.443 209.652 161.753 209.656 162.065C209.651 162.38 209.703 162.693 209.81 162.99C209.906 163.255 210.057 163.497 210.255 163.699C210.454 163.898 210.693 164.051 210.957 164.148C211.246 164.252 211.553 164.304 211.86 164.3C212.124 164.303 212.387 164.27 212.642 164.204C212.902 164.131 213.152 164.028 213.389 163.897C213.471 163.854 213.548 163.801 213.619 163.74C213.68 163.684 213.727 163.613 213.754 163.535C213.78 163.445 213.792 163.351 213.79 163.257V162.456C213.798 162.328 213.766 162.2 213.7 162.089ZM213.642 163.257C213.644 163.336 213.635 163.414 213.615 163.489C213.595 163.544 213.562 163.593 213.519 163.632C213.458 163.685 213.391 163.731 213.319 163.769C213.093 163.894 212.854 163.992 212.605 164.062C212.362 164.124 212.112 164.155 211.86 164.153C211.57 164.157 211.281 164.109 211.008 164.011C210.762 163.921 210.54 163.779 210.357 163.593C210.173 163.408 210.033 163.184 209.947 162.937C209.846 162.658 209.797 162.362 209.801 162.065C209.798 161.77 209.845 161.476 209.942 161.197C210.029 160.949 210.169 160.724 210.353 160.536C210.54 160.352 210.766 160.211 211.013 160.122C211.3 160.021 211.602 159.973 211.906 159.978C212.151 159.973 212.396 160.01 212.629 160.086C212.812 160.145 212.982 160.236 213.133 160.355C213.249 160.451 213.346 160.567 213.421 160.697C213.475 160.79 213.507 160.895 213.514 161.002C213.515 161.043 213.506 161.084 213.49 161.122C213.474 161.159 213.449 161.193 213.419 161.22C213.388 161.251 213.352 161.275 213.312 161.291C213.271 161.307 213.229 161.314 213.185 161.314C213.136 161.313 213.087 161.301 213.043 161.278C212.999 161.256 212.961 161.224 212.93 161.185C212.849 161.052 212.758 160.926 212.659 160.806C212.572 160.707 212.464 160.628 212.343 160.575C212.185 160.51 212.015 160.478 211.844 160.484C211.653 160.481 211.464 160.517 211.288 160.591C211.126 160.662 210.982 160.769 210.867 160.904C210.747 161.05 210.657 161.22 210.603 161.402C210.541 161.609 210.511 161.825 210.513 162.042C210.513 162.548 210.632 162.946 210.867 163.222C210.991 163.363 211.145 163.475 211.318 163.548C211.491 163.621 211.678 163.654 211.866 163.645C212.059 163.646 212.252 163.619 212.437 163.564C212.624 163.507 212.804 163.432 212.976 163.339L213.013 163.318V162.523H212.285C212.175 162.53 212.064 162.509 211.964 162.462C211.934 162.443 211.91 162.416 211.895 162.384C211.88 162.352 211.875 162.317 211.879 162.282C211.878 162.249 211.884 162.216 211.898 162.185C211.911 162.155 211.931 162.128 211.957 162.106C212.02 162.053 212.1 162.027 212.182 162.033H213.143C213.238 162.032 213.332 162.041 213.424 162.062C213.488 162.078 213.543 162.117 213.58 162.172C213.628 162.259 213.65 162.358 213.642 162.456V163.257Z" fill="white"/>
<path d="M218.182 160.917C218.029 160.601 217.782 160.34 217.476 160.167C217.133 159.983 216.749 159.892 216.36 159.903C216.068 159.899 215.778 159.95 215.505 160.054C215.263 160.148 215.045 160.296 214.867 160.486C214.687 160.683 214.55 160.916 214.466 161.17C214.371 161.455 214.324 161.753 214.327 162.053C214.324 162.351 214.369 162.646 214.461 162.929C214.541 163.185 214.674 163.422 214.852 163.623C215.031 163.819 215.253 163.971 215.5 164.068C215.779 164.179 216.077 164.233 216.376 164.227C216.676 164.232 216.973 164.18 217.253 164.073C217.499 163.976 217.719 163.824 217.896 163.628C218.074 163.429 218.208 163.195 218.29 162.941C218.38 162.656 218.424 162.359 218.421 162.06C218.43 161.666 218.348 161.275 218.182 160.917ZM215.529 163.176C215.413 163.035 215.327 162.873 215.275 162.699C215.213 162.489 215.183 162.272 215.185 162.053C215.183 161.838 215.213 161.623 215.275 161.417C215.325 161.247 215.409 161.088 215.52 160.95C215.622 160.831 215.748 160.736 215.891 160.672C216.068 160.598 216.259 160.567 216.45 160.58C216.641 160.594 216.826 160.652 216.991 160.75C217.181 160.872 217.329 161.049 217.416 161.258C217.519 161.51 217.569 161.781 217.563 162.053C217.571 162.341 217.516 162.626 217.402 162.89C217.275 163.161 217.049 163.372 216.769 163.478C216.49 163.585 216.181 163.578 215.906 163.46C215.761 163.395 215.632 163.298 215.529 163.176Z" fill="white"/>
<path d="M217.482 161.229C217.39 161.006 217.232 160.817 217.03 160.687C216.829 160.563 216.596 160.499 216.36 160.503C216.188 160.502 216.019 160.537 215.862 160.606C215.709 160.673 215.573 160.775 215.464 160.902C215.347 161.048 215.259 161.215 215.206 161.395C215.142 161.608 215.11 161.831 215.113 162.054C215.11 162.279 215.142 162.504 215.206 162.721C215.259 162.905 215.351 163.077 215.475 163.223C215.584 163.353 215.721 163.457 215.876 163.527C216.032 163.595 216.201 163.63 216.371 163.628C216.595 163.629 216.815 163.569 217.006 163.454C217.21 163.326 217.371 163.14 217.468 162.92C217.687 162.379 217.691 161.774 217.482 161.229ZM216.371 163.481C216.221 163.482 216.073 163.452 215.935 163.393C215.8 163.332 215.681 163.241 215.585 163.129C215.475 162.996 215.394 162.842 215.346 162.677C215.286 162.474 215.257 162.264 215.26 162.054C215.257 161.845 215.286 161.638 215.346 161.439C215.393 161.278 215.471 161.128 215.576 160.997C215.671 160.886 215.789 160.799 215.921 160.74C216.06 160.679 216.209 160.649 216.36 160.65C216.568 160.646 216.774 160.702 216.952 160.811C217.129 160.926 217.267 161.093 217.348 161.288C217.541 161.794 217.537 162.355 217.336 162.858C217.256 163.046 217.121 163.206 216.949 163.317C216.777 163.428 216.576 163.485 216.371 163.481ZM217.482 161.229C217.39 161.006 217.232 160.817 217.03 160.687C216.829 160.563 216.596 160.499 216.36 160.503C216.188 160.502 216.019 160.537 215.862 160.606C215.709 160.673 215.573 160.775 215.464 160.902C215.347 161.048 215.259 161.215 215.206 161.395C215.142 161.608 215.11 161.831 215.113 162.054C215.11 162.279 215.142 162.504 215.206 162.721C215.259 162.905 215.351 163.077 215.475 163.223C215.584 163.353 215.721 163.457 215.876 163.527C216.032 163.595 216.201 163.63 216.371 163.628C216.595 163.629 216.815 163.569 217.006 163.454C217.21 163.326 217.371 163.14 217.468 162.92C217.687 162.379 217.691 161.774 217.482 161.229ZM216.371 163.481C216.221 163.482 216.073 163.452 215.935 163.393C215.8 163.332 215.681 163.241 215.585 163.129C215.475 162.996 215.394 162.842 215.346 162.677C215.286 162.474 215.257 162.264 215.26 162.054C215.257 161.845 215.286 161.638 215.346 161.439C215.393 161.278 215.471 161.128 215.576 160.997C215.671 160.886 215.789 160.799 215.921 160.74C216.06 160.679 216.209 160.649 216.36 160.65C216.568 160.646 216.774 160.702 216.952 160.811C217.129 160.926 217.267 161.093 217.348 161.288C217.541 161.794 217.537 162.355 217.336 162.858C217.256 163.046 217.121 163.206 216.949 163.317C216.777 163.428 216.576 163.485 216.371 163.481ZM217.482 161.229C217.39 161.006 217.232 160.817 217.03 160.687C216.829 160.563 216.596 160.499 216.36 160.503C216.188 160.502 216.019 160.537 215.862 160.606C215.709 160.673 215.573 160.775 215.464 160.902C215.347 161.048 215.259 161.215 215.206 161.395C215.142 161.608 215.11 161.831 215.113 162.054C215.11 162.279 215.142 162.504 215.206 162.721C215.259 162.905 215.351 163.077 215.475 163.223C215.584 163.353 215.721 163.457 215.876 163.527C216.032 163.595 216.201 163.63 216.371 163.628C216.595 163.629 216.815 163.569 217.006 163.454C217.21 163.326 217.371 163.14 217.468 162.92C217.687 162.379 217.691 161.774 217.482 161.229ZM216.371 163.481C216.221 163.482 216.073 163.452 215.935 163.393C215.8 163.332 215.681 163.241 215.585 163.129C215.475 162.996 215.394 162.842 215.346 162.677C215.286 162.474 215.257 162.264 215.26 162.054C215.257 161.845 215.286 161.638 215.346 161.439C215.393 161.278 215.471 161.128 215.576 160.997C215.671 160.886 215.789 160.799 215.921 160.74C216.06 160.679 216.209 160.649 216.36 160.65C216.568 160.646 216.774 160.702 216.952 160.811C217.129 160.926 217.267 161.093 217.348 161.288C217.541 161.794 217.537 162.355 217.336 162.858C217.256 163.046 217.121 163.206 216.949 163.317C216.777 163.428 216.576 163.485 216.371 163.481ZM217.482 161.229C217.39 161.006 217.232 160.817 217.03 160.687C216.829 160.563 216.596 160.499 216.36 160.503C216.188 160.502 216.019 160.537 215.862 160.606C215.709 160.673 215.573 160.775 215.464 160.902C215.347 161.048 215.259 161.215 215.206 161.395C215.142 161.608 215.11 161.831 215.113 162.054C215.11 162.279 215.142 162.504 215.206 162.721C215.259 162.905 215.351 163.077 215.475 163.223C215.584 163.353 215.721 163.457 215.876 163.527C216.032 163.595 216.201 163.63 216.371 163.628C216.595 163.629 216.815 163.569 217.006 163.454C217.21 163.326 217.371 163.14 217.468 162.92C217.687 162.379 217.691 161.774 217.482 161.229ZM216.371 163.481C216.221 163.482 216.073 163.452 215.935 163.393C215.8 163.332 215.681 163.241 215.585 163.129C215.475 162.996 215.394 162.842 215.346 162.677C215.286 162.474 215.257 162.264 215.26 162.054C215.257 161.845 215.286 161.638 215.346 161.439C215.393 161.278 215.471 161.128 215.576 160.997C215.671 160.886 215.789 160.799 215.921 160.74C216.06 160.679 216.209 160.649 216.36 160.65C216.568 160.646 216.774 160.702 216.952 160.811C217.129 160.926 217.267 161.093 217.348 161.288C217.541 161.794 217.537 162.355 217.336 162.858C217.256 163.046 217.121 163.206 216.949 163.317C216.777 163.428 216.576 163.485 216.371 163.481ZM218.246 160.885C218.088 160.555 217.831 160.282 217.512 160.103C217.158 159.914 216.761 159.82 216.36 159.83C216.059 159.826 215.76 159.878 215.478 159.985C215.225 160.083 214.998 160.237 214.813 160.435C214.626 160.64 214.484 160.882 214.397 161.146C214.299 161.438 214.251 161.745 214.255 162.054C214.252 162.359 214.298 162.662 214.392 162.953C214.475 163.218 214.613 163.464 214.798 163.672C214.984 163.876 215.215 164.034 215.471 164.136C215.76 164.249 216.067 164.305 216.377 164.3C216.685 164.305 216.992 164.251 217.28 164.141C217.536 164.04 217.766 163.881 217.95 163.677C218.134 163.47 218.274 163.228 218.36 162.964C218.452 162.672 218.497 162.367 218.493 162.06C218.503 161.655 218.418 161.253 218.246 160.885ZM216.377 164.153C216.086 164.158 215.798 164.106 215.527 164.001C215.29 163.907 215.078 163.761 214.906 163.574C214.736 163.38 214.608 163.153 214.53 162.907C214.442 162.631 214.399 162.343 214.402 162.054C214.398 161.761 214.443 161.471 214.535 161.193C214.616 160.95 214.747 160.725 214.92 160.535C215.091 160.353 215.3 160.212 215.532 160.122C215.796 160.021 216.077 159.973 216.36 159.978C216.735 159.967 217.108 160.054 217.439 160.232C217.733 160.396 217.969 160.647 218.116 160.95C218.278 161.297 218.357 161.677 218.348 162.06C218.351 162.351 218.308 162.64 218.221 162.917C218.142 163.162 218.013 163.387 217.842 163.579C217.672 163.767 217.46 163.913 217.224 164.006C216.954 164.108 216.666 164.158 216.377 164.153ZM217.03 160.687C216.829 160.563 216.596 160.499 216.36 160.503C216.188 160.502 216.019 160.537 215.862 160.606C215.709 160.673 215.573 160.775 215.464 160.902C215.347 161.048 215.259 161.215 215.206 161.395C215.142 161.608 215.11 161.831 215.113 162.054C215.11 162.279 215.142 162.504 215.206 162.721C215.259 162.905 215.351 163.077 215.475 163.223C215.584 163.353 215.721 163.457 215.876 163.527C216.032 163.595 216.201 163.63 216.371 163.628C216.595 163.629 216.815 163.569 217.006 163.454C217.21 163.326 217.371 163.14 217.468 162.92C217.687 162.379 217.691 161.774 217.482 161.229C217.39 161.006 217.232 160.817 217.03 160.687ZM216.371 163.481C216.221 163.482 216.073 163.452 215.935 163.393C215.8 163.332 215.681 163.241 215.585 163.129C215.475 162.996 215.394 162.842 215.346 162.677C215.286 162.474 215.257 162.264 215.26 162.054C215.257 161.845 215.286 161.638 215.346 161.439C215.393 161.278 215.471 161.128 215.576 160.997C215.671 160.886 215.789 160.799 215.921 160.74C216.06 160.679 216.209 160.649 216.36 160.65C216.568 160.646 216.774 160.702 216.952 160.811C217.129 160.926 217.267 161.093 217.348 161.288C217.541 161.794 217.537 162.355 217.336 162.858C217.256 163.046 217.121 163.206 216.949 163.317C216.777 163.428 216.576 163.485 216.371 163.481ZM217.482 161.229C217.39 161.006 217.232 160.817 217.03 160.687C216.829 160.563 216.596 160.499 216.36 160.503C216.188 160.502 216.019 160.537 215.862 160.606C215.709 160.673 215.573 160.775 215.464 160.902C215.347 161.048 215.259 161.215 215.206 161.395C215.142 161.608 215.11 161.831 215.113 162.054C215.11 162.279 215.142 162.504 215.206 162.721C215.259 162.905 215.351 163.077 215.475 163.223C215.584 163.353 215.721 163.457 215.876 163.527C216.032 163.595 216.201 163.63 216.371 163.628C216.595 163.629 216.815 163.569 217.006 163.454C217.21 163.326 217.371 163.14 217.468 162.92C217.687 162.379 217.691 161.774 217.482 161.229ZM216.371 163.481C216.221 163.482 216.073 163.452 215.935 163.393C215.8 163.332 215.681 163.241 215.585 163.129C215.475 162.996 215.394 162.842 215.346 162.677C215.286 162.474 215.257 162.264 215.26 162.054C215.257 161.845 215.286 161.638 215.346 161.439C215.393 161.278 215.471 161.128 215.576 160.997C215.671 160.886 215.789 160.799 215.921 160.74C216.06 160.679 216.209 160.649 216.36 160.65C216.568 160.646 216.774 160.702 216.952 160.811C217.129 160.926 217.267 161.093 217.348 161.288C217.541 161.794 217.537 162.355 217.336 162.858C217.256 163.046 217.121 163.206 216.949 163.317C216.777 163.428 216.576 163.485 216.371 163.481ZM217.482 161.229C217.39 161.006 217.232 160.817 217.03 160.687C216.829 160.563 216.596 160.499 216.36 160.503C216.188 160.502 216.019 160.537 215.862 160.606C215.709 160.673 215.573 160.775 215.464 160.902C215.347 161.048 215.259 161.215 215.206 161.395C215.142 161.608 215.11 161.831 215.113 162.054C215.11 162.279 215.142 162.504 215.206 162.721C215.259 162.905 215.351 163.077 215.475 163.223C215.584 163.353 215.721 163.457 215.876 163.527C216.032 163.595 216.201 163.63 216.371 163.628C216.595 163.629 216.815 163.569 217.006 163.454C217.21 163.326 217.371 163.14 217.468 162.92C217.687 162.379 217.691 161.774 217.482 161.229ZM216.371 163.481C216.221 163.482 216.073 163.452 215.935 163.393C215.8 163.332 215.681 163.241 215.585 163.129C215.475 162.996 215.394 162.842 215.346 162.677C215.286 162.474 215.257 162.264 215.26 162.054C215.257 161.845 215.286 161.638 215.346 161.439C215.393 161.278 215.471 161.128 215.576 160.997C215.671 160.886 215.789 160.799 215.921 160.74C216.06 160.679 216.209 160.649 216.36 160.65C216.568 160.646 216.774 160.702 216.952 160.811C217.129 160.926 217.267 161.093 217.348 161.288C217.541 161.794 217.537 162.355 217.336 162.858C217.256 163.046 217.121 163.206 216.949 163.317C216.777 163.428 216.576 163.485 216.371 163.481ZM217.482 161.229C217.39 161.006 217.232 160.817 217.03 160.687C216.829 160.563 216.596 160.499 216.36 160.503C216.188 160.502 216.019 160.537 215.862 160.606C215.709 160.673 215.573 160.775 215.464 160.902C215.347 161.048 215.259 161.215 215.206 161.395C215.142 161.608 215.11 161.831 215.113 162.054C215.11 162.279 215.142 162.504 215.206 162.721C215.259 162.905 215.351 163.077 215.475 163.223C215.584 163.353 215.721 163.457 215.876 163.527C216.032 163.595 216.201 163.63 216.371 163.628C216.595 163.629 216.815 163.569 217.006 163.454C217.21 163.326 217.371 163.14 217.468 162.92C217.687 162.379 217.691 161.774 217.482 161.229ZM216.371 163.481C216.221 163.482 216.073 163.452 215.935 163.393C215.8 163.332 215.681 163.241 215.585 163.129C215.475 162.996 215.394 162.842 215.346 162.677C215.286 162.474 215.257 162.264 215.26 162.054C215.257 161.845 215.286 161.638 215.346 161.439C215.393 161.278 215.471 161.128 215.576 160.997C215.671 160.886 215.789 160.799 215.921 160.74C216.06 160.679 216.209 160.649 216.36 160.65C216.568 160.646 216.774 160.702 216.952 160.811C217.129 160.926 217.267 161.093 217.348 161.288C217.541 161.794 217.537 162.355 217.336 162.858C217.256 163.046 217.121 163.206 216.949 163.317C216.777 163.428 216.576 163.485 216.371 163.481ZM217.482 161.229C217.39 161.006 217.232 160.817 217.03 160.687C216.829 160.563 216.596 160.499 216.36 160.503C216.188 160.502 216.019 160.537 215.862 160.606C215.709 160.673 215.573 160.775 215.464 160.902C215.347 161.048 215.259 161.215 215.206 161.395C215.142 161.608 215.11 161.831 215.113 162.054C215.11 162.279 215.142 162.504 215.206 162.721C215.259 162.905 215.351 163.077 215.475 163.223C215.584 163.353 215.721 163.457 215.876 163.527C216.032 163.595 216.201 163.63 216.371 163.628C216.595 163.629 216.815 163.569 217.006 163.454C217.21 163.326 217.371 163.14 217.468 162.92C217.687 162.379 217.691 161.774 217.482 161.229ZM216.371 163.481C216.221 163.482 216.073 163.452 215.935 163.393C215.8 163.332 215.681 163.241 215.585 163.129C215.475 162.996 215.394 162.842 215.346 162.677C215.286 162.474 215.257 162.264 215.26 162.054C215.257 161.845 215.286 161.638 215.346 161.439C215.393 161.278 215.471 161.128 215.576 160.997C215.671 160.886 215.789 160.799 215.921 160.74C216.06 160.679 216.209 160.649 216.36 160.65C216.568 160.646 216.774 160.702 216.952 160.811C217.129 160.926 217.267 161.093 217.348 161.288C217.541 161.794 217.537 162.355 217.336 162.858C217.256 163.046 217.121 163.206 216.949 163.317C216.777 163.428 216.576 163.485 216.371 163.481Z" fill="white"/>
<path d="M224.012 160.03C223.972 159.988 223.924 159.955 223.871 159.933C223.817 159.911 223.76 159.901 223.702 159.903C223.645 159.901 223.589 159.911 223.536 159.934C223.484 159.956 223.437 159.989 223.399 160.032C223.314 160.141 223.273 160.278 223.284 160.416V161.615H221.457V160.416C221.468 160.277 221.425 160.139 221.338 160.03C221.299 159.988 221.251 159.955 221.197 159.933C221.144 159.911 221.086 159.901 221.028 159.903C220.971 159.901 220.914 159.911 220.861 159.933C220.808 159.955 220.76 159.989 220.722 160.032C220.64 160.142 220.6 160.279 220.611 160.416V163.711C220.6 163.849 220.64 163.987 220.724 164.097C220.762 164.14 220.809 164.174 220.862 164.197C220.914 164.219 220.971 164.23 221.028 164.228C221.086 164.229 221.143 164.218 221.196 164.196C221.249 164.174 221.297 164.141 221.336 164.099C221.424 163.989 221.467 163.851 221.457 163.711V162.304H223.284V163.711C223.274 163.849 223.314 163.987 223.398 164.097C223.436 164.14 223.483 164.174 223.535 164.197C223.588 164.219 223.645 164.23 223.702 164.228C223.76 164.229 223.817 164.218 223.87 164.196C223.923 164.174 223.971 164.141 224.01 164.099C224.098 163.989 224.141 163.851 224.13 163.711V160.416C224.142 160.277 224.099 160.139 224.012 160.03Z" fill="white"/>
<path d="M224.066 159.981C224.02 159.932 223.963 159.892 223.9 159.866C223.838 159.84 223.77 159.828 223.702 159.831C223.635 159.828 223.568 159.841 223.507 159.867C223.445 159.893 223.39 159.933 223.345 159.983C223.248 160.106 223.199 160.26 223.21 160.416V161.542H221.529V160.416C221.541 160.259 221.492 160.103 221.392 159.981C221.346 159.932 221.289 159.892 221.227 159.866C221.164 159.84 221.096 159.828 221.029 159.831C220.961 159.827 220.893 159.84 220.831 159.866C220.769 159.892 220.713 159.932 220.668 159.983C220.573 160.106 220.526 160.261 220.536 160.416V163.711C220.526 163.868 220.574 164.022 220.67 164.146C220.714 164.197 220.77 164.237 220.832 164.264C220.894 164.29 220.961 164.303 221.029 164.3C221.096 164.302 221.164 164.29 221.226 164.263C221.289 164.237 221.345 164.198 221.391 164.148C221.491 164.026 221.541 163.869 221.529 163.711V162.379H223.21V163.711C223.2 163.867 223.247 164.022 223.342 164.146C223.387 164.197 223.443 164.237 223.505 164.263C223.567 164.29 223.634 164.303 223.702 164.3C223.77 164.302 223.837 164.29 223.9 164.263C223.962 164.237 224.018 164.198 224.064 164.148C224.164 164.025 224.214 163.869 224.203 163.711V160.416C224.214 160.259 224.165 160.103 224.066 159.981ZM224.058 163.711C224.068 163.832 224.031 163.953 223.956 164.048C223.924 164.083 223.884 164.11 223.841 164.129C223.797 164.147 223.75 164.155 223.702 164.153C223.655 164.156 223.609 164.148 223.566 164.129C223.523 164.111 223.484 164.083 223.453 164.048C223.381 163.951 223.347 163.832 223.357 163.711V162.231H221.384V163.711C221.394 163.832 221.358 163.952 221.284 164.048C221.252 164.083 221.212 164.11 221.168 164.129C221.124 164.147 221.076 164.155 221.029 164.153C220.982 164.156 220.935 164.147 220.892 164.129C220.849 164.111 220.811 164.083 220.78 164.048C220.708 163.951 220.673 163.832 220.683 163.711V160.416C220.674 160.297 220.707 160.178 220.778 160.081C220.809 160.046 220.848 160.018 220.891 160C220.935 159.982 220.982 159.975 221.029 159.978C221.076 159.975 221.124 159.984 221.168 160.001C221.212 160.019 221.251 160.046 221.284 160.081C221.358 160.176 221.394 160.296 221.384 160.416V161.688H223.357V160.416C223.347 160.297 223.381 160.177 223.453 160.081C223.485 160.047 223.523 160.019 223.566 160.002C223.609 159.984 223.656 159.976 223.702 159.978C223.75 159.976 223.797 159.984 223.841 160.002C223.885 160.019 223.925 160.047 223.958 160.081C224.032 160.176 224.068 160.296 224.058 160.416V163.711Z" fill="white"/>
<path d="M228.699 160.917C228.547 160.601 228.301 160.339 227.994 160.167C227.651 159.983 227.267 159.892 226.879 159.903C226.586 159.898 226.296 159.95 226.022 160.054C225.78 160.148 225.562 160.296 225.384 160.486C225.205 160.683 225.068 160.916 224.983 161.17C224.889 161.455 224.843 161.753 224.846 162.053C224.844 162.35 224.888 162.646 224.978 162.929C225.058 163.186 225.192 163.422 225.371 163.623C225.55 163.819 225.771 163.971 226.017 164.068C226.297 164.179 226.595 164.233 226.896 164.227C227.194 164.232 227.491 164.18 227.77 164.073C228.016 163.976 228.236 163.824 228.414 163.628C228.592 163.429 228.726 163.195 228.808 162.941C228.898 162.656 228.942 162.359 228.938 162.06C228.948 161.666 228.866 161.275 228.699 160.917ZM226.048 163.176C225.931 163.036 225.844 162.874 225.794 162.699C225.731 162.489 225.701 162.272 225.704 162.053C225.701 161.838 225.731 161.623 225.794 161.417C225.843 161.246 225.926 161.087 226.039 160.95C226.14 160.831 226.266 160.736 226.408 160.672C226.585 160.598 226.777 160.567 226.968 160.58C227.16 160.594 227.345 160.652 227.51 160.75C227.699 160.873 227.846 161.05 227.933 161.258C228.036 161.51 228.086 161.781 228.08 162.053C228.089 162.341 228.035 162.627 227.919 162.89C227.829 163.097 227.678 163.271 227.486 163.391C227.327 163.484 227.147 163.539 226.963 163.551C226.779 163.563 226.594 163.532 226.423 163.46C226.278 163.396 226.15 163.298 226.048 163.176Z" fill="white"/>
<path d="M227.999 161.229C227.907 161.007 227.75 160.817 227.548 160.687C227.347 160.563 227.115 160.499 226.878 160.503C226.707 160.501 226.536 160.537 226.379 160.606C226.227 160.674 226.091 160.775 225.983 160.902C225.864 161.047 225.776 161.215 225.723 161.395C225.659 161.608 225.627 161.831 225.63 162.053C225.627 162.279 225.659 162.504 225.723 162.721C225.777 162.905 225.868 163.076 225.992 163.223C226.101 163.353 226.238 163.457 226.393 163.527C226.574 163.604 226.77 163.638 226.967 163.626C227.163 163.613 227.354 163.554 227.523 163.454C227.727 163.327 227.888 163.141 227.985 162.92C228.206 162.379 228.211 161.774 227.999 161.229ZM226.889 163.481C226.738 163.482 226.59 163.452 226.452 163.393C226.317 163.332 226.198 163.241 226.102 163.129C225.992 162.996 225.911 162.842 225.863 162.677C225.803 162.474 225.774 162.264 225.777 162.053C225.774 161.845 225.803 161.638 225.863 161.439C225.91 161.278 225.988 161.128 226.093 160.997C226.188 160.887 226.306 160.799 226.438 160.74C226.577 160.679 226.727 160.649 226.878 160.65C227.087 160.646 227.292 160.702 227.471 160.811C227.648 160.926 227.785 161.093 227.865 161.288C228.058 161.794 228.054 162.355 227.853 162.858C227.768 163.052 227.628 163.216 227.449 163.328C227.279 163.43 227.086 163.483 226.889 163.481ZM227.999 161.229C227.907 161.007 227.75 160.817 227.548 160.687C227.347 160.563 227.115 160.499 226.878 160.503C226.707 160.501 226.536 160.537 226.379 160.606C226.227 160.674 226.091 160.775 225.983 160.902C225.864 161.047 225.776 161.215 225.723 161.395C225.659 161.608 225.627 161.831 225.63 162.053C225.627 162.279 225.659 162.504 225.723 162.721C225.777 162.905 225.868 163.076 225.992 163.223C226.101 163.353 226.238 163.457 226.393 163.527C226.574 163.604 226.77 163.638 226.967 163.626C227.163 163.613 227.354 163.554 227.523 163.454C227.727 163.327 227.888 163.141 227.985 162.92C228.206 162.379 228.211 161.774 227.999 161.229ZM226.889 163.481C226.738 163.482 226.59 163.452 226.452 163.393C226.317 163.332 226.198 163.241 226.102 163.129C225.992 162.996 225.911 162.842 225.863 162.677C225.803 162.474 225.774 162.264 225.777 162.053C225.774 161.845 225.803 161.638 225.863 161.439C225.91 161.278 225.988 161.128 226.093 160.997C226.188 160.887 226.306 160.799 226.438 160.74C226.577 160.679 226.727 160.649 226.878 160.65C227.087 160.646 227.292 160.702 227.471 160.811C227.648 160.926 227.785 161.093 227.865 161.288C228.058 161.794 228.054 162.355 227.853 162.858C227.768 163.052 227.628 163.216 227.449 163.328C227.279 163.43 227.086 163.483 226.889 163.481ZM227.999 161.229C227.907 161.007 227.75 160.817 227.548 160.687C227.347 160.563 227.115 160.499 226.878 160.503C226.707 160.501 226.536 160.537 226.379 160.606C226.227 160.674 226.091 160.775 225.983 160.902C225.864 161.047 225.776 161.215 225.723 161.395C225.659 161.608 225.627 161.831 225.63 162.053C225.627 162.279 225.659 162.504 225.723 162.721C225.777 162.905 225.868 163.076 225.992 163.223C226.101 163.353 226.238 163.457 226.393 163.527C226.574 163.604 226.77 163.638 226.967 163.626C227.163 163.613 227.354 163.554 227.523 163.454C227.727 163.327 227.888 163.141 227.985 162.92C228.206 162.379 228.211 161.774 227.999 161.229ZM226.889 163.481C226.738 163.482 226.59 163.452 226.452 163.393C226.317 163.332 226.198 163.241 226.102 163.129C225.992 162.996 225.911 162.842 225.863 162.677C225.803 162.474 225.774 162.264 225.777 162.053C225.774 161.845 225.803 161.638 225.863 161.439C225.91 161.278 225.988 161.128 226.093 160.997C226.188 160.887 226.306 160.799 226.438 160.74C226.577 160.679 226.727 160.649 226.878 160.65C227.087 160.646 227.292 160.702 227.471 160.811C227.648 160.926 227.785 161.093 227.865 161.288C228.058 161.794 228.054 162.355 227.853 162.858C227.768 163.052 227.628 163.216 227.449 163.328C227.279 163.43 227.086 163.483 226.889 163.481ZM227.999 161.229C227.907 161.007 227.75 160.817 227.548 160.687C227.347 160.563 227.115 160.499 226.878 160.503C226.707 160.501 226.536 160.537 226.379 160.606C226.227 160.674 226.091 160.775 225.983 160.902C225.864 161.047 225.776 161.215 225.723 161.395C225.659 161.608 225.627 161.831 225.63 162.053C225.627 162.279 225.659 162.504 225.723 162.721C225.777 162.905 225.868 163.076 225.992 163.223C226.101 163.353 226.238 163.457 226.393 163.527C226.574 163.604 226.77 163.638 226.967 163.626C227.163 163.613 227.354 163.554 227.523 163.454C227.727 163.327 227.888 163.141 227.985 162.92C228.206 162.379 228.211 161.774 227.999 161.229ZM226.889 163.481C226.738 163.482 226.59 163.452 226.452 163.393C226.317 163.332 226.198 163.241 226.102 163.129C225.992 162.996 225.911 162.842 225.863 162.677C225.803 162.474 225.774 162.264 225.777 162.053C225.774 161.845 225.803 161.638 225.863 161.439C225.91 161.278 225.988 161.128 226.093 160.997C226.188 160.887 226.306 160.799 226.438 160.74C226.577 160.679 226.727 160.649 226.878 160.65C227.087 160.646 227.292 160.702 227.471 160.811C227.648 160.926 227.785 161.093 227.865 161.288C228.058 161.794 228.054 162.355 227.853 162.858C227.768 163.052 227.628 163.216 227.449 163.328C227.279 163.43 227.086 163.483 226.889 163.481ZM228.765 160.885C228.606 160.555 228.349 160.282 228.029 160.103C227.676 159.914 227.279 159.82 226.878 159.83C226.577 159.826 226.277 159.878 225.995 159.984C225.743 160.083 225.515 160.237 225.33 160.435C225.144 160.64 225.002 160.883 224.914 161.146C224.817 161.439 224.769 161.745 224.772 162.053C224.769 162.359 224.815 162.662 224.909 162.953C224.993 163.218 225.131 163.463 225.315 163.672C225.502 163.876 225.733 164.035 225.99 164.136C226.278 164.249 226.586 164.305 226.895 164.3C227.203 164.305 227.509 164.251 227.797 164.141C228.053 164.04 228.283 163.881 228.469 163.677C228.653 163.47 228.791 163.228 228.877 162.964C228.97 162.672 229.016 162.367 229.012 162.06C229.021 161.655 228.937 161.253 228.765 160.885ZM226.895 164.153C226.604 164.158 226.315 164.106 226.044 164.001C225.808 163.908 225.596 163.762 225.425 163.574C225.254 163.38 225.125 163.153 225.047 162.907C224.96 162.631 224.917 162.343 224.919 162.053C224.916 161.761 224.961 161.471 225.053 161.193C225.133 160.949 225.265 160.724 225.438 160.535C225.608 160.353 225.817 160.212 226.049 160.122C226.314 160.021 226.595 159.973 226.878 159.978C227.254 159.967 227.626 160.055 227.958 160.232C228.251 160.396 228.487 160.647 228.633 160.95C228.795 161.297 228.874 161.677 228.865 162.06C228.869 162.351 228.826 162.64 228.738 162.917C228.659 163.162 228.53 163.387 228.359 163.579C228.189 163.766 227.978 163.912 227.743 164.006C227.472 164.108 227.185 164.158 226.895 164.153ZM227.548 160.687C227.347 160.563 227.115 160.499 226.878 160.503C226.707 160.501 226.536 160.537 226.379 160.606C226.227 160.674 226.091 160.775 225.983 160.902C225.864 161.047 225.776 161.215 225.723 161.395C225.659 161.608 225.627 161.831 225.63 162.053C225.627 162.279 225.659 162.504 225.723 162.721C225.777 162.905 225.868 163.076 225.992 163.223C226.101 163.353 226.238 163.457 226.393 163.527C226.574 163.604 226.77 163.638 226.967 163.626C227.163 163.613 227.354 163.554 227.523 163.454C227.727 163.327 227.888 163.141 227.985 162.92C228.206 162.379 228.211 161.774 227.999 161.229C227.907 161.007 227.75 160.817 227.548 160.687ZM226.889 163.481C226.738 163.482 226.59 163.452 226.452 163.393C226.317 163.332 226.198 163.241 226.102 163.129C225.992 162.996 225.911 162.842 225.863 162.677C225.803 162.474 225.774 162.264 225.777 162.053C225.774 161.845 225.803 161.638 225.863 161.439C225.91 161.278 225.988 161.128 226.093 160.997C226.188 160.887 226.306 160.799 226.438 160.74C226.577 160.679 226.727 160.649 226.878 160.65C227.087 160.646 227.292 160.702 227.471 160.811C227.648 160.926 227.785 161.093 227.865 161.288C228.058 161.794 228.054 162.355 227.853 162.858C227.768 163.052 227.628 163.216 227.449 163.328C227.279 163.43 227.086 163.483 226.889 163.481ZM227.999 161.229C227.907 161.007 227.75 160.817 227.548 160.687C227.347 160.563 227.115 160.499 226.878 160.503C226.707 160.501 226.536 160.537 226.379 160.606C226.227 160.674 226.091 160.775 225.983 160.902C225.864 161.047 225.776 161.215 225.723 161.395C225.659 161.608 225.627 161.831 225.63 162.053C225.627 162.279 225.659 162.504 225.723 162.721C225.777 162.905 225.868 163.076 225.992 163.223C226.101 163.353 226.238 163.457 226.393 163.527C226.574 163.604 226.77 163.638 226.967 163.626C227.163 163.613 227.354 163.554 227.523 163.454C227.727 163.327 227.888 163.141 227.985 162.92C228.206 162.379 228.211 161.774 227.999 161.229ZM226.889 163.481C226.738 163.482 226.59 163.452 226.452 163.393C226.317 163.332 226.198 163.241 226.102 163.129C225.992 162.996 225.911 162.842 225.863 162.677C225.803 162.474 225.774 162.264 225.777 162.053C225.774 161.845 225.803 161.638 225.863 161.439C225.91 161.278 225.988 161.128 226.093 160.997C226.188 160.887 226.306 160.799 226.438 160.74C226.577 160.679 226.727 160.649 226.878 160.65C227.087 160.646 227.292 160.702 227.471 160.811C227.648 160.926 227.785 161.093 227.865 161.288C228.058 161.794 228.054 162.355 227.853 162.858C227.768 163.052 227.628 163.216 227.449 163.328C227.279 163.43 227.086 163.483 226.889 163.481ZM227.999 161.229C227.907 161.007 227.75 160.817 227.548 160.687C227.347 160.563 227.115 160.499 226.878 160.503C226.707 160.501 226.536 160.537 226.379 160.606C226.227 160.674 226.091 160.775 225.983 160.902C225.864 161.047 225.776 161.215 225.723 161.395C225.659 161.608 225.627 161.831 225.63 162.053C225.627 162.279 225.659 162.504 225.723 162.721C225.777 162.905 225.868 163.076 225.992 163.223C226.101 163.353 226.238 163.457 226.393 163.527C226.574 163.604 226.77 163.638 226.967 163.626C227.163 163.613 227.354 163.554 227.523 163.454C227.727 163.327 227.888 163.141 227.985 162.92C228.206 162.379 228.211 161.774 227.999 161.229ZM226.889 163.481C226.738 163.482 226.59 163.452 226.452 163.393C226.317 163.332 226.198 163.241 226.102 163.129C225.992 162.996 225.911 162.842 225.863 162.677C225.803 162.474 225.774 162.264 225.777 162.053C225.774 161.845 225.803 161.638 225.863 161.439C225.91 161.278 225.988 161.128 226.093 160.997C226.188 160.887 226.306 160.799 226.438 160.74C226.577 160.679 226.727 160.649 226.878 160.65C227.087 160.646 227.292 160.702 227.471 160.811C227.648 160.926 227.785 161.093 227.865 161.288C228.058 161.794 228.054 162.355 227.853 162.858C227.768 163.052 227.628 163.216 227.449 163.328C227.279 163.43 227.086 163.483 226.889 163.481ZM227.999 161.229C227.907 161.007 227.75 160.817 227.548 160.687C227.347 160.563 227.115 160.499 226.878 160.503C226.707 160.501 226.536 160.537 226.379 160.606C226.227 160.674 226.091 160.775 225.983 160.902C225.864 161.047 225.776 161.215 225.723 161.395C225.659 161.608 225.627 161.831 225.63 162.053C225.627 162.279 225.659 162.504 225.723 162.721C225.777 162.905 225.868 163.076 225.992 163.223C226.101 163.353 226.238 163.457 226.393 163.527C226.574 163.604 226.77 163.638 226.967 163.626C227.163 163.613 227.354 163.554 227.523 163.454C227.727 163.327 227.888 163.141 227.985 162.92C228.206 162.379 228.211 161.774 227.999 161.229ZM226.889 163.481C226.738 163.482 226.59 163.452 226.452 163.393C226.317 163.332 226.198 163.241 226.102 163.129C225.992 162.996 225.911 162.842 225.863 162.677C225.803 162.474 225.774 162.264 225.777 162.053C225.774 161.845 225.803 161.638 225.863 161.439C225.91 161.278 225.988 161.128 226.093 160.997C226.188 160.887 226.306 160.799 226.438 160.74C226.577 160.679 226.727 160.649 226.878 160.65C227.087 160.646 227.292 160.702 227.471 160.811C227.648 160.926 227.785 161.093 227.865 161.288C228.058 161.794 228.054 162.355 227.853 162.858C227.768 163.052 227.628 163.216 227.449 163.328C227.279 163.43 227.086 163.483 226.889 163.481ZM227.999 161.229C227.907 161.007 227.75 160.817 227.548 160.687C227.347 160.563 227.115 160.499 226.878 160.503C226.707 160.501 226.536 160.537 226.379 160.606C226.227 160.674 226.091 160.775 225.983 160.902C225.864 161.047 225.776 161.215 225.723 161.395C225.659 161.608 225.627 161.831 225.63 162.053C225.627 162.279 225.659 162.504 225.723 162.721C225.777 162.905 225.868 163.076 225.992 163.223C226.101 163.353 226.238 163.457 226.393 163.527C226.574 163.604 226.77 163.638 226.967 163.626C227.163 163.613 227.354 163.554 227.523 163.454C227.727 163.327 227.888 163.141 227.985 162.92C228.206 162.379 228.211 161.774 227.999 161.229ZM226.889 163.481C226.738 163.482 226.59 163.452 226.452 163.393C226.317 163.332 226.198 163.241 226.102 163.129C225.992 162.996 225.911 162.842 225.863 162.677C225.803 162.474 225.774 162.264 225.777 162.053C225.774 161.845 225.803 161.638 225.863 161.439C225.91 161.278 225.988 161.128 226.093 160.997C226.188 160.887 226.306 160.799 226.438 160.74C226.577 160.679 226.727 160.649 226.878 160.65C227.087 160.646 227.292 160.702 227.471 160.811C227.648 160.926 227.785 161.093 227.865 161.288C228.058 161.794 228.054 162.355 227.853 162.858C227.768 163.052 227.628 163.216 227.449 163.328C227.279 163.43 227.086 163.483 226.889 163.481Z" fill="white"/>
<path d="M233.513 160.071C233.397 160.001 233.263 159.967 233.127 159.974H232.865C232.749 159.969 232.633 159.984 232.522 160.018C232.486 160.032 232.454 160.053 232.427 160.079C232.4 160.106 232.379 160.137 232.364 160.172C232.316 160.289 232.277 160.41 232.248 160.533L231.64 162.824L231.033 160.533C231.004 160.41 230.965 160.289 230.916 160.172C230.901 160.137 230.88 160.106 230.853 160.079C230.826 160.053 230.794 160.032 230.758 160.018C230.647 159.984 230.531 159.969 230.415 159.974H230.153C230.017 159.967 229.883 160.001 229.767 160.071C229.714 160.116 229.674 160.173 229.649 160.237C229.624 160.302 229.616 160.371 229.625 160.44V163.748C229.615 163.878 229.654 164.006 229.733 164.109C229.77 164.147 229.813 164.176 229.862 164.197C229.91 164.217 229.962 164.228 230.015 164.227C230.068 164.227 230.12 164.217 230.168 164.196C230.216 164.175 230.26 164.145 230.296 164.107C230.375 164.005 230.413 163.877 230.403 163.748V160.862L231.073 163.525C231.095 163.613 231.119 163.698 231.141 163.777C231.16 163.855 231.19 163.93 231.231 163.999C231.268 164.066 231.323 164.123 231.39 164.163C231.465 164.208 231.552 164.23 231.64 164.227C231.752 164.234 231.861 164.198 231.948 164.128C232.017 164.068 232.07 163.992 232.1 163.906C232.127 163.826 232.163 163.699 232.207 163.525L232.877 160.862V163.748C232.867 163.877 232.906 164.005 232.985 164.107C233.02 164.146 233.063 164.177 233.111 164.198C233.159 164.219 233.211 164.229 233.263 164.227C233.316 164.23 233.37 164.22 233.419 164.199C233.469 164.178 233.513 164.147 233.549 164.107C233.627 164.005 233.665 163.877 233.655 163.748V160.44C233.664 160.371 233.656 160.302 233.631 160.237C233.607 160.173 233.566 160.116 233.513 160.071Z" fill="white"/>
<path d="M233.554 160.01C233.426 159.932 233.277 159.894 233.128 159.902H232.865C232.74 159.896 232.614 159.912 232.495 159.949C232.407 159.985 232.336 160.053 232.298 160.14C232.248 160.262 232.207 160.387 232.177 160.515L231.64 162.538L231.104 160.516C231.074 160.388 231.034 160.262 230.984 160.14C230.945 160.053 230.874 159.985 230.786 159.949C230.666 159.912 230.54 159.896 230.415 159.902H230.153C230.003 159.894 229.854 159.932 229.726 160.01C229.664 160.061 229.615 160.128 229.584 160.203C229.554 160.278 229.543 160.36 229.552 160.44V163.748C229.542 163.896 229.587 164.042 229.679 164.158C229.723 164.203 229.775 164.239 229.833 164.264C229.89 164.288 229.952 164.301 230.015 164.3C230.078 164.3 230.14 164.287 230.198 164.263C230.255 164.238 230.307 164.202 230.351 164.157C230.441 164.041 230.486 163.895 230.476 163.748V161.454L231.002 163.544C231.026 163.632 231.048 163.716 231.07 163.798C231.091 163.881 231.124 163.96 231.166 164.035C231.211 164.113 231.274 164.179 231.351 164.226C231.438 164.277 231.539 164.303 231.64 164.3C231.77 164.307 231.897 164.264 231.997 164.182C232.075 164.114 232.135 164.027 232.17 163.93C232.199 163.848 232.234 163.718 232.278 163.544L232.804 161.454V163.748C232.794 163.896 232.839 164.041 232.931 164.157C232.973 164.203 233.024 164.24 233.081 164.265C233.139 164.29 233.201 164.302 233.263 164.3C233.327 164.303 233.39 164.291 233.449 164.266C233.508 164.241 233.56 164.204 233.603 164.157C233.694 164.041 233.738 163.895 233.728 163.748V160.44C233.738 160.36 233.727 160.278 233.696 160.203C233.666 160.128 233.617 160.061 233.554 160.01ZM233.583 163.748C233.592 163.859 233.56 163.969 233.493 164.058C233.463 164.088 233.428 164.112 233.389 164.128C233.35 164.145 233.309 164.153 233.266 164.153C233.224 164.153 233.182 164.145 233.143 164.128C233.105 164.112 233.069 164.088 233.04 164.058C232.973 163.969 232.941 163.859 232.95 163.748V160.269L232.136 163.508C232.094 163.677 232.058 163.804 232.031 163.882C232.004 163.956 231.959 164.022 231.899 164.074C231.825 164.131 231.733 164.159 231.64 164.153C231.566 164.156 231.493 164.138 231.429 164.101C231.372 164.067 231.326 164.019 231.293 163.962C231.257 163.898 231.229 163.83 231.21 163.759C231.188 163.679 231.166 163.594 231.144 163.508L230.33 160.269V163.748C230.339 163.859 230.308 163.969 230.242 164.058C230.214 164.09 230.178 164.115 230.138 164.132C230.098 164.148 230.055 164.155 230.012 164.153C229.97 164.155 229.928 164.147 229.89 164.131C229.851 164.115 229.816 164.091 229.787 164.06C229.721 163.97 229.69 163.86 229.699 163.748V160.44C229.691 160.384 229.697 160.326 229.716 160.272C229.735 160.219 229.767 160.17 229.809 160.132C229.913 160.071 230.033 160.042 230.153 160.049H230.415C230.522 160.043 230.629 160.056 230.731 160.086C230.785 160.108 230.827 160.15 230.85 160.203C230.897 160.317 230.934 160.434 230.962 160.554L231.64 163.11L232.319 160.552C232.347 160.433 232.384 160.316 232.43 160.203C232.453 160.15 232.497 160.108 232.551 160.086C232.652 160.055 232.759 160.043 232.865 160.049H233.128C233.248 160.042 233.368 160.071 233.473 160.132C233.515 160.171 233.547 160.219 233.566 160.272C233.585 160.326 233.591 160.384 233.583 160.44V163.748Z" fill="white"/>
<path d="M237.644 163.576C237.559 163.508 237.451 163.474 237.343 163.483H235.371V162.294H237.126C237.231 162.303 237.335 162.27 237.417 162.204C237.448 162.174 237.473 162.138 237.489 162.098C237.506 162.057 237.513 162.014 237.512 161.971C237.514 161.928 237.506 161.885 237.489 161.846C237.472 161.806 237.447 161.771 237.415 161.742C237.333 161.678 237.23 161.646 237.126 161.654H235.371V160.628H237.278C237.386 160.636 237.493 160.604 237.578 160.538C237.609 160.507 237.635 160.471 237.652 160.43C237.669 160.389 237.678 160.345 237.678 160.301C237.678 160.257 237.669 160.213 237.652 160.173C237.635 160.132 237.609 160.095 237.578 160.064C237.493 159.998 237.386 159.966 237.278 159.974H235.043C234.942 159.971 234.842 159.989 234.749 160.027C234.673 160.06 234.613 160.121 234.579 160.196C234.539 160.29 234.521 160.392 234.525 160.494V163.637C234.512 163.779 234.555 163.921 234.645 164.033C234.756 164.125 234.899 164.17 235.043 164.156H237.343C237.451 164.164 237.559 164.131 237.644 164.063C237.677 164.033 237.703 163.996 237.721 163.954C237.739 163.913 237.747 163.868 237.745 163.823C237.748 163.777 237.74 163.731 237.722 163.688C237.704 163.645 237.678 163.607 237.644 163.576Z" fill="white"/>
<path d="M237.693 163.521C237.595 163.441 237.47 163.401 237.343 163.41H235.444V162.367H237.126C237.25 162.376 237.373 162.336 237.468 162.257C237.507 162.22 237.537 162.175 237.557 162.126C237.577 162.077 237.587 162.024 237.585 161.971C237.587 161.918 237.577 161.865 237.557 161.816C237.536 161.767 237.505 161.724 237.467 161.688C237.371 161.611 237.249 161.572 237.126 161.581H235.444V160.701H237.279C237.405 160.71 237.53 160.671 237.629 160.592C237.668 160.554 237.698 160.509 237.719 160.459C237.74 160.409 237.751 160.355 237.751 160.301C237.751 160.247 237.74 160.193 237.719 160.143C237.698 160.093 237.668 160.048 237.629 160.01C237.53 159.932 237.405 159.893 237.279 159.901H235.043C234.932 159.898 234.821 159.918 234.718 159.961C234.628 160.002 234.554 160.074 234.512 160.164C234.469 160.269 234.448 160.381 234.451 160.494V163.637C234.439 163.799 234.49 163.96 234.593 164.085C234.718 164.191 234.88 164.243 235.043 164.229H237.343C237.47 164.238 237.595 164.198 237.693 164.117C237.734 164.08 237.766 164.035 237.788 163.984C237.81 163.933 237.82 163.878 237.819 163.823C237.821 163.767 237.81 163.71 237.789 163.658C237.767 163.606 237.735 163.56 237.693 163.521ZM237.343 164.082H235.043C234.982 164.096 234.918 164.094 234.858 164.076C234.798 164.059 234.743 164.026 234.698 163.982C234.654 163.937 234.621 163.882 234.604 163.822C234.586 163.762 234.584 163.698 234.598 163.637V160.494C234.594 160.403 234.611 160.311 234.646 160.227C234.672 160.167 234.72 160.12 234.779 160.095C234.863 160.061 234.953 160.045 235.043 160.049H237.279C237.368 160.041 237.457 160.066 237.529 160.118C237.554 160.141 237.574 160.169 237.587 160.2C237.6 160.232 237.605 160.266 237.604 160.299C237.606 160.334 237.6 160.368 237.587 160.4C237.574 160.432 237.554 160.461 237.529 160.484C237.457 160.538 237.368 160.563 237.279 160.555H235.299V161.728H237.126C237.212 161.72 237.298 161.745 237.367 161.796C237.391 161.818 237.41 161.845 237.423 161.875C237.435 161.905 237.441 161.938 237.439 161.971C237.441 162.004 237.435 162.037 237.423 162.068C237.41 162.099 237.391 162.127 237.367 162.15C237.299 162.203 237.212 162.228 237.126 162.219H235.299V163.555H237.343C237.433 163.548 237.523 163.574 237.595 163.63C237.622 163.654 237.642 163.684 237.656 163.718C237.669 163.751 237.675 163.787 237.673 163.823C237.675 163.858 237.668 163.892 237.655 163.925C237.641 163.957 237.621 163.986 237.595 164.009C237.523 164.064 237.433 164.09 237.343 164.082Z" fill="white"/>
<path d="M399.058 136.922V174.862C399.055 178.015 397.802 181.039 395.574 183.268C393.345 185.498 390.324 186.753 387.172 186.756H329.767C327.424 186.759 325.178 187.691 323.521 189.349C321.865 191.006 320.933 193.254 320.93 195.598V203.31H317.881V195.598C317.884 192.445 319.138 189.422 321.366 187.193C323.594 184.963 326.615 183.709 329.767 183.705H387.172C389.515 183.702 391.762 182.77 393.418 181.112C395.075 179.454 396.006 177.206 396.009 174.862V136.922H399.058Z" fill="#2C447D"/>
<path d="M402.489 146.328V152.408C402.489 153.106 402.213 153.774 401.72 154.267C401.227 154.76 400.559 155.037 399.862 155.037H395.204C394.824 155.037 394.448 154.955 394.103 154.796C393.758 154.636 393.452 154.403 393.205 154.114V154.113C392.799 153.638 392.577 153.033 392.578 152.408V146.328H402.489Z" fill="#2B3872"/>
<path d="M407.667 132.155V144.3C407.667 145.201 407.309 146.065 406.673 146.702C406.036 147.339 405.173 147.696 404.272 147.696H390.794C389.894 147.696 389.031 147.338 388.394 146.701C387.758 146.065 387.4 145.201 387.4 144.3V132.155H407.667Z" fill="#4656A1"/>
<path d="M408.352 132.155H386.715C386.458 132.155 386.212 132.053 386.031 131.871C385.849 131.69 385.747 131.443 385.747 131.187V130.449C385.747 130.192 385.849 129.946 386.031 129.764C386.212 129.583 386.458 129.481 386.715 129.481H408.352C408.608 129.481 408.854 129.583 409.036 129.764C409.217 129.946 409.319 130.192 409.319 130.449V131.187C409.319 131.443 409.217 131.69 409.036 131.871C408.854 132.053 408.608 132.155 408.352 132.155Z" fill="#38488C"/>
<path d="M394.492 129.481H391.038V121.215C391.038 120.988 391.082 120.764 391.169 120.554C391.256 120.344 391.383 120.154 391.543 119.993C391.704 119.833 391.894 119.706 392.104 119.619C392.313 119.532 392.538 119.487 392.765 119.487C392.991 119.487 393.216 119.532 393.426 119.619C393.635 119.706 393.826 119.833 393.986 119.993C394.146 120.154 394.273 120.344 394.36 120.554C394.447 120.764 394.492 120.988 394.492 121.215V129.481Z" fill="#232851"/>
<path d="M401.906 119.487H402.698C403.051 119.487 403.39 119.628 403.639 119.877C403.889 120.127 404.029 120.466 404.029 120.819V129.481H400.575V120.819C400.575 120.466 400.715 120.127 400.965 119.877C401.215 119.628 401.553 119.487 401.906 119.487Z" fill="#232851"/>
<path d="M407.667 132.155V144.3C407.667 145.201 407.309 146.065 406.673 146.702C406.036 147.339 405.173 147.696 404.272 147.696H390.794C389.894 147.696 389.031 147.338 388.394 146.701C387.758 146.065 387.4 145.201 387.4 144.3C401.953 143.288 403.29 132.155 403.29 132.155H407.667Z" fill="#38488C"/>
<path d="M407.667 132.155H387.4V133.134H407.667V132.155Z" fill="#2B3872"/>
<path d="M407.667 137.289V144.3C407.667 145.201 407.31 146.065 406.673 146.702C406.036 147.339 405.173 147.697 404.272 147.697H394.811C404.365 147.697 407.667 137.289 407.667 137.289Z" fill="#2B3872"/>
<path d="M402.489 147.696H392.578V148.331H402.489V147.696Z" fill="#232851"/>
<path d="M394.492 128.271H391.038V129.481H394.492V128.271Z" fill="#15172D"/>
<path d="M404.029 128.271H400.575V129.481H404.029V128.271Z" fill="#15172D"/>
<path d="M402.489 147.696V152.409C402.489 153.106 402.212 153.774 401.72 154.267C401.227 154.76 400.559 155.037 399.862 155.037H395.204C394.824 155.037 394.448 154.955 394.103 154.796C393.758 154.636 393.451 154.404 393.205 154.114V154.113C400.466 155.004 401.575 147.696 401.575 147.696H402.489Z" fill="#232851"/>
<path d="M499.458 27.4438V30.4953H407.896C405.553 30.4977 403.306 31.4301 401.65 33.0877C399.993 34.7454 399.061 36.9929 399.059 39.3371V79.4332H396.008V39.3371C396.012 36.1838 397.266 33.1607 399.494 30.9311C401.723 28.7014 404.744 27.4473 407.896 27.4438H499.458Z" fill="#2C447D"/>
<path d="M402.489 75.9993V69.919C402.489 69.2219 402.213 68.5534 401.72 68.0604C401.227 67.5675 400.559 67.2906 399.862 67.2905H395.204C394.824 67.2901 394.448 67.3725 394.103 67.5319C393.758 67.6913 393.452 67.924 393.205 68.2138V68.2145C392.799 68.6895 392.577 69.2941 392.578 69.919V75.9993H402.489Z" fill="#2B3872"/>
<path d="M407.667 90.1727V78.0274C407.667 77.5814 407.579 77.1397 407.409 76.7277C407.238 76.3156 406.988 75.9412 406.673 75.6259C406.358 75.3105 405.983 75.0604 405.571 74.8897C405.16 74.7191 404.718 74.6313 404.272 74.6313H390.794C389.894 74.6314 389.031 74.9892 388.394 75.6261C387.758 76.263 387.4 77.1267 387.4 78.0274V90.1727H407.667Z" fill="#4656A1"/>
<path d="M408.352 92.8467H386.715C386.458 92.8467 386.212 92.7447 386.031 92.5631C385.849 92.3815 385.747 92.1352 385.747 91.8785V91.1409C385.747 91.0137 385.772 90.8878 385.821 90.7704C385.87 90.6529 385.941 90.5462 386.031 90.4562C386.121 90.3663 386.227 90.295 386.345 90.2464C386.462 90.1977 386.588 90.1727 386.715 90.1727H408.352C408.608 90.1727 408.854 90.2747 409.036 90.4562C409.217 90.6378 409.319 90.8841 409.319 91.1409V91.8784C409.319 92.1352 409.217 92.3815 409.036 92.5631C408.854 92.7447 408.608 92.8467 408.352 92.8467Z" fill="#38488C"/>
<path d="M407.667 90.1727V78.0274C407.667 77.5814 407.579 77.1397 407.409 76.7277C407.238 76.3156 406.988 75.9412 406.673 75.6259C406.358 75.3105 405.983 75.0604 405.571 74.8897C405.16 74.7191 404.718 74.6313 404.272 74.6313H390.794C389.894 74.6314 389.031 74.9892 388.394 75.6261C387.758 76.263 387.4 77.1267 387.4 78.0274C401.953 79.0391 403.29 90.1727 403.29 90.1727H407.667Z" fill="#38488C"/>
<path d="M407.667 89.1934H387.4V90.1727H407.667V89.1934Z" fill="#2B3872"/>
<path d="M407.667 85.0393V78.0274C407.667 77.5814 407.579 77.1397 407.409 76.7277C407.238 76.3156 406.988 75.9412 406.673 75.6259C406.358 75.3105 405.983 75.0604 405.572 74.8897C405.16 74.7191 404.718 74.6313 404.272 74.6313H394.811C404.365 74.6313 407.667 85.0393 407.667 85.0393Z" fill="#2B3872"/>
<path d="M402.489 73.9971H392.578V74.6318H402.489V73.9971Z" fill="#232851"/>
<path d="M402.489 74.6313V69.919C402.489 69.2219 402.212 68.5534 401.72 68.0604C401.227 67.5675 400.559 67.2906 399.862 67.2905H395.204C394.824 67.2901 394.448 67.3725 394.103 67.5319C393.758 67.6913 393.451 67.924 393.205 68.2138V68.2145C400.466 67.3233 401.575 74.6313 401.575 74.6313H402.489Z" fill="#232851"/>
<path d="M370.95 103.452H364.674C364.445 103.452 364.225 103.361 364.063 103.199C363.901 103.037 363.81 102.817 363.81 102.588C363.81 102.358 363.901 102.138 364.063 101.976C364.225 101.814 364.445 101.723 364.674 101.723H370.95C371.179 101.723 371.398 101.814 371.56 101.976C371.722 102.138 371.813 102.358 371.813 102.588C371.813 102.817 371.722 103.037 371.56 103.199C371.398 103.361 371.179 103.452 370.95 103.452Z" fill="#4656A1"/>
<path d="M378.915 95.4825C378.801 95.4825 378.689 95.4601 378.584 95.4167C378.479 95.3732 378.384 95.3096 378.304 95.2293C378.224 95.149 378.16 95.0538 378.117 94.9489C378.073 94.844 378.051 94.7316 378.051 94.6181L378.051 88.339C378.051 88.1097 378.142 87.8899 378.304 87.7278C378.466 87.5657 378.686 87.4746 378.915 87.4746C379.144 87.4746 379.364 87.5657 379.526 87.7278C379.688 87.8899 379.779 88.1097 379.779 88.339V94.6181C379.779 94.7316 379.756 94.844 379.713 94.9489C379.669 95.0538 379.606 95.149 379.526 95.2293C379.445 95.3096 379.35 95.3732 379.245 95.4167C379.14 95.4601 379.028 95.4825 378.915 95.4825Z" fill="#4656A1"/>
<path d="M373.156 97.6901C373.042 97.6902 372.93 97.6679 372.825 97.6245C372.72 97.581 372.625 97.5173 372.545 97.4369L368.234 93.1235C368.072 92.9614 367.981 92.7416 367.981 92.5123C367.981 92.2831 368.072 92.0632 368.234 91.9011C368.396 91.739 368.616 91.648 368.845 91.6479C369.074 91.6479 369.294 91.739 369.456 91.9011L373.767 96.2145C373.887 96.3354 373.97 96.4894 374.003 96.6571C374.036 96.8248 374.019 96.9986 373.954 97.1565C373.889 97.3144 373.778 97.4494 373.636 97.5444C373.494 97.6394 373.327 97.6901 373.156 97.6901Z" fill="#4656A1"/>
<path d="M424.117 122.898H430.393C430.622 122.898 430.842 122.99 431.004 123.152C431.166 123.314 431.257 123.534 431.257 123.763C431.257 123.992 431.166 124.212 431.004 124.374C430.842 124.536 430.622 124.627 430.393 124.627H424.117C423.888 124.627 423.668 124.536 423.506 124.374C423.344 124.212 423.253 123.992 423.253 123.763C423.253 123.534 423.344 123.314 423.506 123.152C423.668 122.99 423.888 122.898 424.117 122.898Z" fill="#4656A1"/>
<path d="M416.152 130.868C416.266 130.868 416.378 130.89 416.483 130.933C416.588 130.977 416.683 131.041 416.763 131.121C416.844 131.201 416.907 131.296 416.951 131.401C416.994 131.506 417.016 131.619 417.016 131.732V138.011C417.016 138.24 416.925 138.46 416.763 138.622C416.601 138.784 416.382 138.876 416.152 138.876C415.923 138.876 415.704 138.784 415.542 138.622C415.38 138.46 415.289 138.24 415.289 138.011V131.732C415.289 131.503 415.38 131.283 415.542 131.121C415.704 130.959 415.923 130.868 416.152 130.868Z" fill="#4656A1"/>
<path d="M421.911 128.66C422.025 128.66 422.137 128.682 422.242 128.726C422.347 128.769 422.442 128.833 422.522 128.913L426.833 133.227C426.995 133.389 427.086 133.609 427.085 133.838C427.085 134.067 426.994 134.286 426.832 134.448C426.67 134.61 426.451 134.701 426.222 134.702C425.993 134.702 425.773 134.611 425.611 134.449L421.3 130.136C421.18 130.015 421.097 129.861 421.064 129.693C421.031 129.525 421.048 129.352 421.113 129.194C421.179 129.036 421.289 128.901 421.431 128.806C421.573 128.711 421.74 128.66 421.911 128.66Z" fill="#4656A1"/>
<path d="M292.708 216.272H339.64C340.799 216.272 341.911 216.733 342.73 217.553C343.55 218.373 344.01 219.485 344.01 220.645V221.198C344.01 222.358 343.55 223.47 342.73 224.29C341.911 225.11 340.799 225.571 339.64 225.571H292.708C291.549 225.571 290.437 225.11 289.618 224.29C288.798 223.47 288.338 222.358 288.338 221.198V220.645C288.338 219.485 288.798 218.373 289.618 217.553C290.437 216.733 291.549 216.272 292.708 216.272Z" fill="#C7DDF3"/>
<path d="M339.139 226.396H293.21C290.047 226.396 287.474 223.94 287.474 220.922C287.474 217.903 290.047 215.447 293.21 215.447H339.139C342.302 215.447 344.875 217.903 344.875 220.921C344.875 223.94 342.302 226.396 339.139 226.396ZM293.21 217.098C291 217.098 289.203 218.813 289.203 220.921C289.203 223.03 291 224.745 293.21 224.745H339.139C341.349 224.745 343.146 223.03 343.146 220.922C343.146 218.813 341.349 217.098 339.139 217.098H293.21Z" fill="#191E3A"/>
<path d="M499.819 15.1622C498.769 13.7871 497.415 12.6747 495.862 11.9125C494.309 11.1504 492.601 10.7594 490.871 10.7702H141.936C138.027 10.7702 134.587 12.7241 132.634 15.6634C131.519 17.3241 130.924 19.2792 130.925 21.2796V193.277C130.924 195.277 131.519 197.232 132.634 198.893C132.749 199.066 132.869 199.235 132.994 199.401C134.044 200.775 135.397 201.886 136.949 202.647C138.501 203.408 140.208 203.799 141.936 203.788H490.871C492.503 203.797 494.117 203.449 495.601 202.768C497.084 202.087 498.401 201.09 499.459 199.846C499.584 199.699 499.704 199.548 499.819 199.394C501.155 197.635 501.88 195.486 501.882 193.277V21.2796C501.88 19.0699 501.155 16.9217 499.819 15.1622ZM498.396 193.277C498.396 197.237 495.02 200.459 490.871 200.459H141.936C137.788 200.459 134.411 197.237 134.411 193.277V21.2796C134.411 17.3193 137.788 14.0972 141.936 14.0972H490.871C495.02 14.0972 498.396 17.3193 498.396 21.2796V193.277Z" fill="#191E3A"/>
<path d="M129.935 290.703C129.495 290.703 129.06 290.599 128.667 290.401C128.274 290.202 127.932 289.914 127.67 289.559C127.408 289.205 127.233 288.794 127.158 288.36C127.083 287.925 127.111 287.479 127.24 287.058L158.163 186.003C158.271 185.649 158.448 185.32 158.684 185.034C158.919 184.748 159.209 184.512 159.535 184.338C159.862 184.164 160.22 184.056 160.589 184.021C160.957 183.985 161.329 184.023 161.683 184.131C162.037 184.24 162.366 184.417 162.652 184.653C162.937 184.888 163.173 185.178 163.347 185.505C163.52 185.832 163.628 186.191 163.663 186.559C163.698 186.928 163.66 187.3 163.552 187.654L132.628 288.708C132.452 289.285 132.095 289.791 131.61 290.15C131.125 290.509 130.538 290.703 129.935 290.703Z" fill="#9DBDE4"/>
<path d="M151.469 290.703C151.029 290.703 150.594 290.599 150.201 290.4C149.808 290.202 149.466 289.914 149.204 289.559C148.942 289.205 148.767 288.794 148.692 288.359C148.618 287.925 148.646 287.479 148.774 287.058L179.698 186.003C179.806 185.649 179.983 185.32 180.218 185.034C180.454 184.748 180.743 184.512 181.07 184.338C181.397 184.164 181.755 184.057 182.123 184.021C182.492 183.986 182.863 184.023 183.217 184.132C183.571 184.24 183.9 184.417 184.186 184.653C184.471 184.889 184.707 185.178 184.881 185.506C185.054 185.833 185.162 186.191 185.197 186.559C185.232 186.928 185.195 187.3 185.086 187.654L154.162 288.708C153.986 289.285 153.629 289.791 153.144 290.15C152.659 290.509 152.072 290.703 151.469 290.703Z" fill="#9DBDE4"/>
<path d="M178.233 203.241H156.698C155.951 203.241 155.234 202.944 154.706 202.415C154.177 201.887 153.88 201.17 153.88 200.422C153.88 199.674 154.177 198.957 154.706 198.428C155.234 197.9 155.951 197.603 156.698 197.603H178.233C178.98 197.603 179.697 197.9 180.225 198.428C180.754 198.957 181.05 199.674 181.05 200.422C181.05 201.17 180.754 201.887 180.225 202.415C179.697 202.944 178.98 203.241 178.233 203.241Z" fill="#9DBDE4"/>
<path d="M173.014 219.01H152.14C151.407 218.989 150.71 218.683 150.199 218.157C149.687 217.63 149.401 216.925 149.401 216.191C149.401 215.457 149.687 214.751 150.199 214.225C150.71 213.699 151.407 213.392 152.14 213.372H173.014C173.747 213.392 174.444 213.699 174.955 214.225C175.467 214.751 175.753 215.457 175.753 216.191C175.753 216.925 175.467 217.63 174.955 218.157C174.444 218.683 173.747 218.989 173.014 219.01Z" fill="#9DBDE4"/>
<path d="M168.561 234.779H147.353C146.611 234.77 145.904 234.469 145.383 233.941C144.862 233.413 144.57 232.702 144.57 231.96C144.57 231.218 144.862 230.506 145.383 229.979C145.904 229.451 146.611 229.15 147.353 229.141H168.561C169.302 229.15 170.01 229.451 170.531 229.979C171.052 230.506 171.344 231.218 171.344 231.96C171.344 232.702 171.052 233.413 170.531 233.941C170.01 234.469 169.302 234.77 168.561 234.779Z" fill="#9DBDE4"/>
<path d="M163.743 250.549H142.269C141.522 250.549 140.805 250.252 140.277 249.723C139.749 249.194 139.452 248.477 139.452 247.729C139.452 246.982 139.749 246.265 140.277 245.736C140.805 245.207 141.522 244.91 142.269 244.91H163.743C164.491 244.91 165.207 245.207 165.736 245.736C166.264 246.265 166.561 246.982 166.561 247.729C166.561 248.477 166.264 249.194 165.736 249.723C165.207 250.252 164.491 250.549 163.743 250.549Z" fill="#9DBDE4"/>
<path d="M158.857 266.318H137.383C136.636 266.318 135.919 266.021 135.391 265.492C134.862 264.963 134.565 264.246 134.565 263.498C134.565 262.751 134.862 262.034 135.391 261.505C135.919 260.976 136.636 260.679 137.383 260.679H158.857C159.604 260.679 160.321 260.976 160.849 261.505C161.378 262.034 161.675 262.751 161.675 263.498C161.675 264.246 161.378 264.963 160.849 265.492C160.321 266.021 159.604 266.318 158.857 266.318Z" fill="#9DBDE4"/>
<path d="M153.71 282.061H133.184C131.697 282.061 130.491 280.799 130.491 279.242C130.491 277.685 131.697 276.423 133.184 276.423H153.71C155.198 276.423 156.404 277.685 156.404 279.242C156.404 280.799 155.198 282.061 153.71 282.061Z" fill="#9DBDE4"/>
<path d="M635.388 291.661H626.006C625.554 291.661 625.121 291.482 624.802 291.162C624.483 290.843 624.303 290.409 624.303 289.958C624.303 289.506 624.483 289.073 624.802 288.753C625.121 288.434 625.554 288.254 626.006 288.254H635.388C635.84 288.254 636.273 288.434 636.592 288.753C636.911 289.073 637.091 289.506 637.091 289.958C637.091 290.409 636.911 290.843 636.592 291.162C636.273 291.482 635.84 291.661 635.388 291.661Z" fill="#262F5F"/>
<path d="M606.05 291.661H577.221C576.77 291.661 576.337 291.482 576.018 291.162C575.698 290.843 575.519 290.409 575.519 289.958C575.519 289.506 575.698 289.073 576.018 288.753C576.337 288.434 576.77 288.254 577.221 288.254H606.05C606.502 288.254 606.935 288.434 607.254 288.753C607.573 289.073 607.753 289.506 607.753 289.958C607.753 290.409 607.573 290.843 607.254 291.162C606.935 291.482 606.502 291.661 606.05 291.661Z" fill="#262F5F"/>
<path d="M577.382 291.661H27.7873C27.3358 291.661 26.9028 291.482 26.5836 291.162C26.2643 290.843 26.085 290.409 26.085 289.958C26.085 289.506 26.2643 289.073 26.5836 288.753C26.9028 288.434 27.3358 288.254 27.7873 288.254H577.382C577.834 288.254 578.267 288.434 578.586 288.753C578.905 289.073 579.085 289.506 579.085 289.958C579.085 290.409 578.905 290.843 578.586 291.162C578.267 291.482 577.834 291.661 577.382 291.661Z" fill="#262F5F"/>
<path d="M17.6242 291.661H2.20042C1.74893 291.661 1.31592 291.482 0.996662 291.162C0.677405 290.843 0.498047 290.409 0.498047 289.958C0.498047 289.506 0.677405 289.073 0.996662 288.753C1.31592 288.434 1.74893 288.254 2.20042 288.254H17.6242C18.0757 288.254 18.5087 288.434 18.8279 288.753C19.1472 289.073 19.3265 289.506 19.3265 289.958C19.3265 290.409 19.1472 290.843 18.8279 291.162C18.5087 291.482 18.0757 291.661 17.6242 291.661Z" fill="#262F5F"/>
<path d="M611.938 291.661H583.11C582.658 291.661 582.225 291.482 581.906 291.162C581.587 290.843 581.407 290.409 581.407 289.958C581.407 289.506 581.587 289.073 581.906 288.753C582.225 288.434 582.658 288.254 583.11 288.254H611.938C612.39 288.254 612.823 288.434 613.142 288.753C613.461 289.073 613.641 289.506 613.641 289.958C613.641 290.409 613.461 290.843 613.142 291.162C612.823 291.482 612.39 291.661 611.938 291.661Z" fill="#262F5F"/>
<path d="M587.57 242.858V277.79C587.57 278.184 587.546 278.577 587.498 278.967C587.424 279.581 587.291 280.187 587.102 280.776C585.71 285.117 581.359 288.283 576.206 288.283H558.303C552.025 288.283 546.939 283.585 546.939 277.79V242.858H587.57Z" fill="#262F5F"/>
<path d="M592.049 250.53C590.603 250.06 589.091 249.821 587.57 249.823C586.921 249.822 586.273 249.866 585.63 249.953C582.15 250.423 578.958 252.14 576.647 254.786C574.335 257.432 573.062 260.826 573.062 264.34C573.062 267.854 574.335 271.249 576.647 273.894C578.958 276.54 582.15 278.257 585.63 278.727C586.249 278.812 586.873 278.855 587.498 278.858H587.57C591.025 278.857 594.366 277.623 596.993 275.378C599.62 273.132 601.36 270.022 601.9 266.608C602.44 263.193 601.744 259.698 599.939 256.751C598.133 253.804 595.335 251.598 592.049 250.53ZM592.049 274.117C590.644 274.761 589.116 275.093 587.57 275.092C586.919 275.091 586.27 275.033 585.63 274.918C583.158 274.463 580.924 273.156 579.315 271.224C577.706 269.291 576.826 266.856 576.826 264.341C576.826 261.827 577.706 259.391 579.315 257.459C580.924 255.527 583.158 254.22 585.63 253.765C586.27 253.65 586.919 253.591 587.57 253.591C590.021 253.592 592.399 254.431 594.308 255.969C596.218 257.508 597.544 259.654 598.067 262.05C598.59 264.446 598.278 266.95 597.184 269.145C596.089 271.339 594.277 273.094 592.049 274.117Z" fill="#211F44"/>
<path d="M587.569 242.858V277.79C587.57 278.184 587.546 278.577 587.498 278.967C587.424 279.581 587.291 280.187 587.102 280.776C585.71 285.117 581.359 288.283 576.205 288.283H567.253V242.858H587.569Z" fill="#211F44"/>
<g style="mix-blend-mode:multiply" opacity="0.5">
<path d="M592.049 250.53V254.566C590.644 253.922 589.116 253.59 587.57 253.591V249.823C589.091 249.821 590.603 250.06 592.049 250.53Z" fill="#211F44"/>
</g>
<g style="mix-blend-mode:multiply" opacity="0.5">
<path d="M587.57 275.092C589.116 275.093 590.644 274.761 592.049 274.117V278.151C590.603 278.621 589.091 278.86 587.57 278.858H587.498C587.546 278.435 587.57 278.009 587.57 277.583V275.092Z" fill="#211F44"/>
</g>
<path d="M589.256 215.673C589.256 215.286 589.18 214.903 589.032 214.546C588.884 214.188 588.667 213.864 588.393 213.59C588.12 213.316 587.795 213.099 587.438 212.951C587.081 212.803 586.698 212.727 586.311 212.727H568.266C567.585 212.727 566.932 212.457 566.451 211.975C565.97 211.494 565.7 210.841 565.7 210.16C565.7 209.823 565.766 209.489 565.895 209.177C566.024 208.866 566.213 208.583 566.451 208.344C566.689 208.106 566.972 207.917 567.284 207.788C567.595 207.659 567.929 207.592 568.266 207.592H572.64C572.922 207.592 573.201 207.537 573.461 207.429C573.722 207.321 573.958 207.163 574.157 206.964C574.357 206.764 574.515 206.528 574.622 206.267C574.73 206.007 574.786 205.728 574.786 205.446C574.786 205.164 574.73 204.885 574.622 204.624C574.515 204.364 574.357 204.127 574.157 203.928C573.958 203.729 573.722 203.571 573.461 203.463C573.201 203.355 572.922 203.299 572.64 203.299H555.855C555.573 203.299 555.294 203.355 555.034 203.463C554.774 203.571 554.537 203.729 554.338 203.928C554.139 204.127 553.981 204.364 553.873 204.624C553.765 204.885 553.71 205.164 553.71 205.446C553.71 205.728 553.765 206.007 553.873 206.267C553.981 206.528 554.139 206.764 554.338 206.964C554.537 207.163 554.774 207.321 555.034 207.429C555.294 207.537 555.573 207.592 555.855 207.592H557.359C557.696 207.592 558.03 207.659 558.341 207.788C558.653 207.917 558.935 208.106 559.174 208.344C559.412 208.583 559.601 208.866 559.73 209.177C559.859 209.489 559.925 209.823 559.925 210.16C559.925 210.497 559.859 210.831 559.73 211.142C559.601 211.454 559.412 211.737 559.174 211.975C558.935 212.214 558.653 212.403 558.341 212.532C558.03 212.661 557.696 212.727 557.359 212.727H553.417C553.03 212.727 552.647 212.803 552.29 212.951C551.933 213.099 551.608 213.316 551.335 213.59C551.061 213.864 550.844 214.188 550.696 214.546C550.548 214.903 550.472 215.286 550.472 215.673C550.472 216.06 550.548 216.443 550.696 216.801C550.844 217.158 551.061 217.483 551.335 217.757C551.608 218.03 551.933 218.247 552.29 218.395C552.647 218.543 553.03 218.619 553.417 218.619H567.805C568.092 218.619 568.376 218.676 568.642 218.786C568.907 218.896 569.147 219.057 569.35 219.26C569.553 219.463 569.714 219.704 569.824 219.969C569.934 220.234 569.99 220.518 569.99 220.806C569.99 221.385 569.76 221.941 569.35 222.351C568.941 222.761 568.385 222.992 567.805 222.992H556.923C556.544 222.992 556.169 223.066 555.818 223.211C555.468 223.357 555.15 223.569 554.882 223.838C554.614 224.106 554.401 224.424 554.256 224.775C554.111 225.125 554.037 225.5 554.037 225.88C554.037 226.259 554.111 226.635 554.256 226.985C554.401 227.335 554.614 227.654 554.882 227.922C555.15 228.19 555.468 228.403 555.818 228.548C556.169 228.693 556.544 228.768 556.923 228.768H560.496C560.92 228.768 561.327 228.937 561.627 229.237C561.927 229.537 562.096 229.944 562.096 230.368V231.645C562.096 231.966 562.159 232.284 562.282 232.581C562.405 232.877 562.585 233.147 562.812 233.374C563.039 233.601 563.308 233.781 563.605 233.904C563.901 234.027 564.219 234.09 564.54 234.09C564.861 234.09 565.179 234.027 565.475 233.904C565.772 233.781 566.042 233.601 566.268 233.374C566.495 233.147 566.675 232.877 566.798 232.581C566.921 232.284 566.984 231.966 566.984 231.645V230.368C566.984 229.943 567.153 229.536 567.453 229.236C567.753 228.936 568.159 228.767 568.583 228.767L579.243 228.762C580.006 228.762 580.739 228.458 581.279 227.917C581.819 227.377 582.122 226.644 582.122 225.88C582.122 225.114 581.818 224.38 581.278 223.839C580.737 223.298 580.004 222.993 579.239 222.993C578.703 222.992 578.152 222.992 577.642 222.992C577.063 222.992 576.508 222.762 576.098 222.352C575.689 221.942 575.459 221.387 575.459 220.808V220.807C575.458 220.52 575.515 220.236 575.625 219.97C575.734 219.705 575.895 219.464 576.098 219.26C576.301 219.057 576.542 218.896 576.807 218.786C577.072 218.676 577.356 218.619 577.643 218.619H586.311C586.698 218.619 587.081 218.543 587.438 218.395C587.795 218.247 588.12 218.03 588.393 217.757C588.667 217.483 588.884 217.158 589.032 216.801C589.18 216.443 589.256 216.06 589.256 215.673Z" fill="#9DBDE4"/>
</svg>
